<?xml version="1.0" encoding="UTF-8"?><svg xmlns="http://www.w3.org/2000/svg" xmlns:xlink="http://www.w3.org/1999/xlink"><symbol viewBox="0 0 64 50" id="_assets--img--src--responsive"><title>responsive</title><defs><linearGradient x1="50%" y1="0%" x2="50%" y2="100%" id="aa"><stop stop-color="#E92D79" offset="0%"/><stop stop-color="#AE2BCA" offset="100%"/></linearGradient></defs><g fill="none" fill-rule="evenodd"><g transform="translate(14.933 11.043)"><path fill="#E92D79" d="M0 0h37.898v2.51H0zM0 5.02h37.898v2.51H0zM0 10.039h37.898v2.51H0z"/><path fill="#AE2BCA" d="M11.42 15.059h15.059v5.02H11.42z"/></g><path d="M61.49 40.157H64v5.02a5.02 5.02 0 0 1-5.019 5.02H8.784a5.02 5.02 0 0 1-5.02-5.02v-5.02h2.51V5.02A5.02 5.02 0 0 1 11.296 0H56.47a5.02 5.02 0 0 1 5.02 5.02v35.137zM8.784 5.02v35.137H58.98V5.02a2.51 2.51 0 0 0-2.51-2.51H11.295a2.51 2.51 0 0 0-2.51 2.51zm-2.51 37.647v2.51a2.51 2.51 0 0 0 2.51 2.51H58.98a2.51 2.51 0 0 0 2.51-2.51v-2.51H6.274z" fill="#7ED321" fill-rule="nonzero"/><g transform="translate(0 15.435)"><path d="M2.51 5.02v24.72a2.509 2.509 0 0 0 2.509 2.511h12.3a2.51 2.51 0 0 0 2.508-2.51V5.02a2.509 2.509 0 0 0-2.508-2.51h-12.3a2.51 2.51 0 0 0-2.51 2.51z" fill="#FFF"/><path d="M2.51 5.02v24.72a2.509 2.509 0 0 0 2.509 2.511h12.3a2.51 2.51 0 0 0 2.508-2.51V5.02a2.509 2.509 0 0 0-2.508-2.51h-12.3a2.51 2.51 0 0 0-2.51 2.51zM0 5.02A5.02 5.02 0 0 1 5.019 0h12.3a5.019 5.019 0 0 1 5.018 5.02v24.72a5.02 5.02 0 0 1-5.018 5.02h-12.3A5.019 5.019 0 0 1 0 29.74V5.02z" fill="url(#aa)" fill-rule="nonzero"/><circle fill="#AE2BCA" cx="11.169" cy="29.114" r="1.882"/></g><g transform="translate(4.518 22.337)"><path fill="#E92D79" d="M0 0h13.378v2.51H0zM0 5.02h13.378v2.51H0zM0 10.039h13.378v2.51H0z"/><path fill="#AE2BCA" d="M0 15.059h13.378v3.765H0z"/></g></g></symbol><symbol viewBox="0 0 64 52" id="_assets--img--src--time"><title>time</title><defs><linearGradient x1="50%" y1="0%" x2="50%" y2="100%" id="ba"><stop stop-color="#E92D79" offset="0%"/><stop stop-color="#AE2BCA" offset="100%"/></linearGradient></defs><g fill="none" fill-rule="evenodd"><path d="M7.303 8.994L12.35 3.95l1.68 1.68-6.73 6.725-1.68-1.68L3.94 8.99l1.68-1.68 1.683 1.684zM10.465 0v2.376h-5.71A2.376 2.376 0 0 0 2.38 4.75v6.42a2.377 2.377 0 0 0 2.378 2.374h6.423a2.376 2.376 0 0 0 2.377-2.375V7.127h2.378v4.04a4.754 4.754 0 0 1-4.756 4.752H4.755A4.752 4.752 0 0 1 0 11.17V4.75C0 2.128 2.13 0 4.756 0h5.71zM0 22.573a4.754 4.754 0 0 1 4.756-4.752h6.423a4.754 4.754 0 0 1 4.755 4.753v6.417a4.755 4.755 0 0 1-4.756 4.752H4.755A4.756 4.756 0 0 1 0 28.99v-6.417zm2.378 0v6.417a2.377 2.377 0 0 0 2.378 2.375h6.423a2.376 2.376 0 0 0 2.377-2.375v-6.417a2.377 2.377 0 0 0-2.378-2.376H4.755a2.377 2.377 0 0 0-2.378 2.376zM0 40.393c0-2.623 2.13-4.75 4.756-4.75h6.423a4.753 4.753 0 0 1 4.755 4.75v6.418a4.754 4.754 0 0 1-4.756 4.753H4.755A4.756 4.756 0 0 1 0 46.81v-6.416zm2.378 0v6.418a2.378 2.378 0 0 0 2.378 2.377h6.423a2.377 2.377 0 0 0 2.377-2.376v-6.416a2.377 2.377 0 0 0-2.378-2.375H4.755a2.376 2.376 0 0 0-2.378 2.374z" fill="url(#ba)" fill-rule="nonzero"/><path fill="#E92D79" d="M19.95 21.895H64v2.59H19.95zm0 5.182h19.434v2.59H19.95zm0 12.437h32.78v2.59H19.95zm0 5.182h28.114v2.59H19.95zm2.602-38.091c-.01.167-.047.318-.108.45a1.04 1.04 0 0 1-.617.56c-.142.05-.3.077-.473.077-.196 0-.37-.037-.52-.11a1.042 1.042 0 0 1-.384-.302 1.385 1.385 0 0 1-.237-.468 2.102 2.102 0 0 1-.082-.6v-.447c0-.22.03-.42.088-.604.058-.18.14-.337.246-.468a1.11 1.11 0 0 1 .896-.412c.18 0 .343.026.485.078.142.05.263.125.363.22.1.096.18.213.237.35.058.14.094.295.11.468h-.638a1.01 1.01 0 0 0-.045-.26.48.48 0 0 0-.102-.185.392.392 0 0 0-.17-.11.66.66 0 0 0-.24-.038c-.1 0-.186.02-.26.063a.53.53 0 0 0-.18.187.956.956 0 0 0-.105.302c-.023.12-.035.255-.035.406v.45c0 .328.046.57.138.725.092.157.237.235.436.235.167 0 .3-.044.397-.133.098-.09.152-.233.162-.432h.64zm.433-.216c0-.18.026-.346.077-.5.052-.15.127-.284.227-.396.098-.112.22-.2.363-.264.144-.064.308-.096.493-.096s.35.032.494.096c.145.064.267.152.366.264.1.112.175.245.227.397.05.154.077.32.077.5v.047c0 .18-.026.347-.077.5a1.158 1.158 0 0 1-.226.397c-.1.112-.22.2-.364.263-.145.063-.308.095-.492.095s-.35-.032-.495-.095a1.025 1.025 0 0 1-.366-.263 1.146 1.146 0 0 1-.228-.397 1.603 1.603 0 0 1-.077-.5V6.39zm.633.047c0 .103.01.2.03.29.02.09.05.17.093.237a.48.48 0 0 0 .166.16c.068.04.15.06.245.06a.46.46 0 0 0 .403-.22.761.761 0 0 0 .092-.237c.02-.09.03-.187.03-.29V6.39c0-.1-.01-.196-.03-.286a.77.77 0 0 0-.092-.237.454.454 0 0 0-.407-.22.455.455 0 0 0-.405.22.766.766 0 0 0-.092.237c-.02.09-.03.185-.03.285v.047zm2.186-.044c0-.186.022-.357.065-.512.042-.154.106-.287.19-.397a.882.882 0 0 1 .303-.258c.12-.06.256-.09.41-.09a.766.766 0 0 1 .6.266V4.147h.636v3.498h-.573l-.032-.258a.837.837 0 0 1-.273.224.798.798 0 0 1-.365.08.851.851 0 0 1-.707-.355 1.255 1.255 0 0 1-.19-.396 1.81 1.81 0 0 1-.066-.5v-.047zm.633.048c0 .105.01.2.026.29a.726.726 0 0 0 .086.232.45.45 0 0 0 .15.156.44.44 0 0 0 .23.057c.108 0 .2-.024.27-.07a.512.512 0 0 0 .173-.195v-.997a.5.5 0 0 0-.17-.195.492.492 0 0 0-.27-.07c-.09 0-.165.02-.228.06a.44.44 0 0 0-.154.158.808.808 0 0 0-.085.237 1.34 1.34 0 0 0-.028.29v.048zm3.428 1.25a1.38 1.38 0 0 1-.517-.094 1.237 1.237 0 0 1-.4-.254c-.11-.107-.195-.233-.255-.378s-.09-.3-.09-.466v-.09c0-.19.03-.36.09-.517.058-.154.14-.288.247-.4.106-.113.232-.2.378-.263.146-.062.304-.093.476-.093.178 0 .336.03.475.088a.98.98 0 0 1 .352.247c.096.105.17.233.22.383.05.15.075.314.075.495v.27h-1.672a.702.702 0 0 0 .074.228c.036.07.084.128.142.178.057.05.123.09.198.116.074.028.155.04.243.04a.968.968 0 0 0 .361-.07.782.782 0 0 0 .158-.088.643.643 0 0 0 .127-.123l.317.34a.872.872 0 0 1-.154.166c-.063.054-.137.1-.223.143a1.476 1.476 0 0 1-.626.14zm-.076-2.043a.496.496 0 0 0-.196.037.434.434 0 0 0-.156.108.593.593 0 0 0-.113.17.905.905 0 0 0-.068.217h1.038v-.05a.57.57 0 0 0-.04-.19.438.438 0 0 0-.253-.256.556.556 0 0 0-.213-.037zm6.494.544h-1.36v.937h1.59v.517H34.28V4.328h2.228v.52h-1.585v.837h1.36v.506zm1.176-1.01l.018.298a.627.627 0 0 1 .194-.252.503.503 0 0 1 .302-.092c.2 0 .33.087.39.262a.496.496 0 0 1 .455-.262c.076 0 .145.014.21.04a.44.44 0 0 1 .168.132c.048.06.085.137.112.232.026.095.04.21.04.348v1.758h-.576v-1.76a.382.382 0 0 0-.015-.117.205.205 0 0 0-.04-.072.182.182 0 0 0-.126-.046.2.2 0 0 0-.112.03.197.197 0 0 0-.07.083v1.88h-.56V5.882a.418.418 0 0 0-.012-.115.178.178 0 0 0-.038-.07.12.12 0 0 0-.056-.036.187.187 0 0 0-.068-.01.162.162 0 0 0-.117.04.282.282 0 0 0-.07.11v1.844h-.575V5.18h.545zm3.944 2.464a.7.7 0 0 1-.066-.231.838.838 0 0 1-.456.255c-.066.014-.14.02-.216.02-.126 0-.242-.017-.347-.053a.821.821 0 0 1-.273-.153.687.687 0 0 1-.243-.529c0-.26.097-.46.29-.603.194-.14.483-.212.867-.212h.353v-.145c0-.12-.04-.213-.116-.282a.5.5 0 0 0-.336-.102c-.13 0-.223.028-.282.083a.29.29 0 0 0-.09.223h-.632c0-.105.023-.204.07-.298a.737.737 0 0 1 .202-.25c.09-.07.197-.127.326-.168.128-.042.275-.063.44-.063.15 0 .288.018.416.055.128.035.24.09.334.16a.752.752 0 0 1 .22.27c.054.11.08.235.08.377v1.057c0 .132.008.24.025.328.017.086.04.16.073.223v.04H41.4zM40.8 7.2a.672.672 0 0 0 .326-.083.489.489 0 0 0 .189-.177v-.424h-.323c-.1 0-.183.01-.253.03a.443.443 0 0 0-.172.08.304.304 0 0 0-.098.122.399.399 0 0 0-.032.156c0 .085.03.155.09.21.06.058.15.086.272.086zm2.032-2.02h1.34v1.95h.668v.514h-2.008V7.13h.7V5.696h-.7V5.18zm.656-.63c0-.05.008-.095.026-.137a.316.316 0 0 1 .189-.177.441.441 0 0 1 .15-.024c.11 0 .2.03.267.094.066.063.1.144.1.243a.315.315 0 0 1-.1.24.37.37 0 0 1-.268.096.425.425 0 0 1-.15-.025.33.33 0 0 1-.188-.176.332.332 0 0 1-.026-.135zm2.106-.404h1.378V7.13h.706v.514h-2.084V7.13h.738V4.662h-.738v-.517zM22.686 10.29h-1.022v2.795h-.642V10.29h-1.01v-.52h2.674v.52zm1.58 2.84c-.19 0-.36-.03-.516-.093a1.237 1.237 0 0 1-.4-.254c-.11-.107-.195-.233-.255-.378s-.09-.3-.09-.465v-.092c0-.188.03-.36.09-.515.058-.156.14-.29.247-.402.107-.112.233-.2.378-.26a1.19 1.19 0 0 1 .476-.095c.178 0 .336.03.475.088a.986.986 0 0 1 .574.631c.05.15.075.315.075.495v.268h-1.672a.645.645 0 0 0 .414.524.71.71 0 0 0 .244.04.958.958 0 0 0 .363-.071.776.776 0 0 0 .157-.087.643.643 0 0 0 .127-.123l.317.342a.98.98 0 0 1-.378.309 1.413 1.413 0 0 1-.626.142zm-.074-2.042a.496.496 0 0 0-.196.037.431.431 0 0 0-.156.11.613.613 0 0 0-.113.167.916.916 0 0 0-.068.22h1.037v-.05a.623.623 0 0 0-.038-.19.46.46 0 0 0-.255-.257.566.566 0 0 0-.213-.037zm2.072-.467l.018.3c.047-.107.112-.19.195-.252s.183-.093.302-.093c.198 0 .328.088.388.262a.553.553 0 0 1 .186-.192.512.512 0 0 1 .272-.07.55.55 0 0 1 .208.04c.065.03.12.072.17.132.047.06.084.138.11.233.027.095.04.21.04.347v1.758h-.576v-1.76a.376.376 0 0 0-.015-.116.174.174 0 0 0-.04-.073.129.129 0 0 0-.058-.037.218.218 0 0 0-.067-.01.192.192 0 0 0-.182.114v1.88h-.558v-1.762a.383.383 0 0 0-.014-.116.165.165 0 0 0-.037-.07.126.126 0 0 0-.056-.036.205.205 0 0 0-.067-.01.167.167 0 0 0-.117.04.285.285 0 0 0-.07.11v1.845h-.576V10.62h.544zm4.62 1.256c0 .18-.022.345-.064.498a1.217 1.217 0 0 1-.184.398.896.896 0 0 1-.302.263.864.864 0 0 1-.412.096.831.831 0 0 1-.35-.068.801.801 0 0 1-.26-.19v1.16h-.634v-3.41h.585l.023.24a.786.786 0 0 1 .63-.287.848.848 0 0 1 .719.345c.082.11.144.243.186.397.042.154.063.324.063.51v.05zm-.635-.048c0-.103-.01-.2-.03-.29a.719.719 0 0 0-.088-.235.454.454 0 0 0-.155-.156.438.438 0 0 0-.23-.057.51.51 0 0 0-.27.065.447.447 0 0 0-.166.183v1.03a.48.48 0 0 0 .166.185.49.49 0 0 0 .277.07c.09 0 .166-.02.23-.06a.48.48 0 0 0 .153-.16c.04-.07.068-.15.086-.24.018-.09.027-.186.027-.287v-.048zm1.35-2.24h1.378v2.982h.706v.515H31.6v-.515h.738v-2.466H31.6v-.517zm4.206 3.497a.66.66 0 0 1-.04-.105c-.01-.04-.018-.08-.026-.125a.831.831 0 0 1-.455.255 1.143 1.143 0 0 1-.564-.034.819.819 0 0 1-.27-.153.706.706 0 0 1-.18-.233.726.726 0 0 1-.063-.295c0-.26.097-.46.29-.602.194-.142.483-.213.867-.213h.353v-.146a.352.352 0 0 0-.116-.28c-.076-.07-.188-.105-.334-.105-.13 0-.223.027-.282.082a.29.29 0 0 0-.09.222h-.632c0-.105.023-.204.07-.298a.721.721 0 0 1 .202-.248c.09-.072.198-.128.326-.17.128-.042.275-.063.44-.063.15 0 .288.02.416.055.13.036.24.09.334.162a.71.71 0 0 1 .22.27c.054.108.08.234.08.377v1.055c0 .132.01.242.026.328.016.087.04.16.072.223v.04h-.642zm-.603-.444a.665.665 0 0 0 .325-.082.462.462 0 0 0 .189-.177v-.422h-.323c-.1 0-.183.01-.253.028a.498.498 0 0 0-.17.08.323.323 0 0 0-.098.123c-.02.047-.03.1-.03.155 0 .085.03.156.09.212.06.056.15.084.27.084zm3.024-2.623v.604h.92v.468h-.92v1.06c0 .088.01.163.03.223.02.06.05.11.088.145.038.035.084.06.138.076a.632.632 0 0 0 .18.024c.05 0 .1-.003.15-.007.05-.005.1-.01.146-.017a3.181 3.181 0 0 0 .233-.045l.06.435a.735.735 0 0 1-.154.067c-.06.02-.123.035-.19.047a3.15 3.15 0 0 1-.208.03c-.072.005-.143.01-.213.01-.136 0-.26-.02-.37-.055a.712.712 0 0 1-.462-.454 1.205 1.205 0 0 1-.064-.418v-1.12h-.563v-.467h.564v-.603h.633zm2.833 3.114c-.19 0-.362-.03-.517-.093a1.237 1.237 0 0 1-.4-.254c-.11-.107-.195-.233-.255-.378s-.09-.3-.09-.465v-.092c0-.188.03-.36.09-.515.058-.156.14-.29.247-.402.107-.112.233-.2.378-.26a1.19 1.19 0 0 1 .476-.095c.177 0 .335.03.474.088.14.06.257.14.353.247.097.106.17.234.22.384.05.15.075.315.075.495v.268h-1.67a.64.64 0 0 0 .657.564.962.962 0 0 0 .361-.071.643.643 0 0 0 .285-.21l.317.342a1.044 1.044 0 0 1-.377.309 1.413 1.413 0 0 1-.626.142zm-.075-2.042a.496.496 0 0 0-.196.037.427.427 0 0 0-.157.11.613.613 0 0 0-.113.167.916.916 0 0 0-.068.22h1.038v-.05a.623.623 0 0 0-.038-.19.456.456 0 0 0-.254-.257.566.566 0 0 0-.213-.037zm3.268 1.32a.21.21 0 0 0-.026-.1.266.266 0 0 0-.094-.08.777.777 0 0 0-.18-.07 3.909 3.909 0 0 0-.28-.064 2.635 2.635 0 0 1-.396-.108 1.22 1.22 0 0 1-.306-.157.763.763 0 0 1-.2-.214.606.606 0 0 1 .003-.568.717.717 0 0 1 .21-.245c.09-.07.2-.125.332-.166.13-.04.277-.062.44-.062.173 0 .327.02.464.06.135.04.25.096.346.167.095.07.167.154.217.252a.68.68 0 0 1 .076.316h-.635a.299.299 0 0 0-.116-.24c-.078-.065-.196-.097-.354-.097-.147 0-.258.027-.333.08-.075.053-.113.118-.113.196 0 .035.008.07.023.1s.042.06.08.084c.04.025.092.048.16.07.066.02.15.037.254.052.15.024.287.056.414.094.13.037.24.086.332.146a.593.593 0 0 1 .295.525.6.6 0 0 1-.08.303.715.715 0 0 1-.222.238c-.096.068-.213.12-.35.157a1.75 1.75 0 0 1-.457.056c-.187 0-.35-.024-.492-.073a1.195 1.195 0 0 1-.357-.19.814.814 0 0 1-.216-.267.664.664 0 0 1-.074-.3h.603a.35.35 0 0 0 .178.289c.05.03.108.05.173.065.065.014.13.02.2.02a.693.693 0 0 0 .357-.075c.082-.05.123-.114.123-.193z"/></g></symbol></svg>