<?xml version="1.0" encoding="UTF-8"?><svg xmlns="http://www.w3.org/2000/svg" xmlns:xlink="http://www.w3.org/1999/xlink"><symbol viewBox="0 0 64 50" id="_assets--img--src--responsive"><title>responsive</title><g fill="none" fill-rule="evenodd"><g transform="translate(14.933 11.043)" fill="#E92D79"><path d="M0 0h37.898v2.51H0zM0 5.02h37.898v2.51H0zM0 10.039h37.898v2.51H0zM11.42 15.059h15.059v5.02H11.42z"/></g><path d="M61.49 40.157H64v5.02a5.02 5.02 0 0 1-5.019 5.02H8.784a5.02 5.02 0 0 1-5.02-5.02v-5.02h2.51V5.02A5.02 5.02 0 0 1 11.296 0H56.47a5.02 5.02 0 0 1 5.02 5.02v35.137zM8.784 5.02v35.137H58.98V5.02a2.51 2.51 0 0 0-2.51-2.51H11.295a2.51 2.51 0 0 0-2.51 2.51zm-2.51 37.647v2.51a2.51 2.51 0 0 0 2.51 2.51H58.98a2.51 2.51 0 0 0 2.51-2.51v-2.51H6.274z" fill="#AE2BCA" fill-rule="nonzero"/><g transform="translate(0 15.435)"><path d="M2.51 5.02v24.72a2.509 2.509 0 0 0 2.509 2.511h12.3a2.51 2.51 0 0 0 2.508-2.51V5.02a2.509 2.509 0 0 0-2.508-2.51h-12.3a2.51 2.51 0 0 0-2.51 2.51z" fill="#FFF"/><path d="M2.51 5.02v24.72a2.509 2.509 0 0 0 2.509 2.511h12.3a2.51 2.51 0 0 0 2.508-2.51V5.02a2.509 2.509 0 0 0-2.508-2.51h-12.3a2.51 2.51 0 0 0-2.51 2.51zM0 5.02A5.02 5.02 0 0 1 5.019 0h12.3a5.019 5.019 0 0 1 5.018 5.02v24.72a5.02 5.02 0 0 1-5.018 5.02h-12.3A5.019 5.019 0 0 1 0 29.74V5.02z" fill="#AE2BCA" fill-rule="nonzero"/><circle fill="#AE2BCA" cx="11.169" cy="29.114" r="1.882"/></g><g transform="translate(4.518 22.337)" fill="#E92D79"><path d="M0 0h13.378v2.51H0zM0 5.02h13.378v2.51H0zM0 10.039h13.378v2.51H0zM0 15.059h13.378v3.765H0z"/></g></g></symbol><symbol viewBox="0 0 64 52" id="_assets--img--src--time"><title>time</title><g fill="none" fill-rule="evenodd"><path d="M7.303 8.994L12.35 3.95l1.68 1.68-6.727 6.727-1.68-1.68.001-.001L3.94 8.99l1.68-1.68 1.683 1.683zM10.465 0v2.376h-5.71a2.376 2.376 0 0 0-2.377 2.375v6.418a2.376 2.376 0 0 0 2.378 2.375h6.423a2.376 2.376 0 0 0 2.378-2.375v-4.04h2.378v4.04a4.754 4.754 0 0 1-4.756 4.751H4.756A4.754 4.754 0 0 1 0 11.17V4.75A4.754 4.754 0 0 1 4.756 0h5.709zM0 22.573a4.754 4.754 0 0 1 4.756-4.752h6.423a4.754 4.754 0 0 1 4.756 4.752v6.417a4.754 4.754 0 0 1-4.756 4.752H4.756A4.754 4.754 0 0 1 0 28.99v-6.417zm2.378 0v6.417a2.376 2.376 0 0 0 2.378 2.375h6.423a2.376 2.376 0 0 0 2.378-2.375v-6.417a2.376 2.376 0 0 0-2.378-2.376H4.756a2.376 2.376 0 0 0-2.378 2.376zM0 40.393a4.754 4.754 0 0 1 4.756-4.75h6.423a4.754 4.754 0 0 1 4.756 4.75v6.418a4.754 4.754 0 0 1-4.756 4.752H4.756A4.754 4.754 0 0 1 0 46.81v-6.417zm2.378 0v6.418a2.376 2.376 0 0 0 2.378 2.376h6.423a2.376 2.376 0 0 0 2.378-2.376v-6.417a2.376 2.376 0 0 0-2.378-2.375H4.756a2.376 2.376 0 0 0-2.378 2.375z" fill="#AE2BCA" fill-rule="nonzero"/><path fill="#E92D79" d="M19.951 21.895H64v2.591H19.951zM19.951 27.077h19.433v2.591H19.951zM19.951 39.514h32.777v2.591H19.951zM19.951 44.696h28.113v2.591H19.951zM22.552 6.605c-.01.167-.047.318-.108.451a1.05 1.05 0 0 1-.616.56c-.143.05-.3.076-.474.076-.196 0-.37-.037-.521-.109a1.067 1.067 0 0 1-.383-.303 1.38 1.38 0 0 1-.237-.468 2.086 2.086 0 0 1-.082-.6v-.447c0-.22.03-.421.087-.604.058-.182.14-.338.246-.469a1.107 1.107 0 0 1 .895-.412c.182 0 .344.026.486.078.142.051.263.125.363.22.1.096.18.213.237.351.058.138.094.294.11.467h-.638a1.086 1.086 0 0 0-.045-.26.493.493 0 0 0-.102-.185.42.42 0 0 0-.169-.112.699.699 0 0 0-.242-.037.502.502 0 0 0-.258.063.504.504 0 0 0-.18.187.951.951 0 0 0-.106.302 2.18 2.18 0 0 0-.035.406v.451c0 .327.046.568.138.724.092.157.237.235.436.235.167 0 .3-.044.397-.133.097-.089.15-.233.161-.432h.64zm.433-.216c0-.18.026-.345.077-.498.052-.152.127-.285.227-.397.1-.112.22-.2.364-.264s.308-.096.493-.096.35.032.494.096c.145.064.267.152.366.264.1.112.175.245.227.397.051.153.077.319.077.498v.048c0 .18-.026.347-.077.5a1.156 1.156 0 0 1-.226.397c-.099.112-.22.2-.364.263a1.218 1.218 0 0 1-.492.095c-.185 0-.35-.032-.496-.095a1.03 1.03 0 0 1-.366-.263 1.146 1.146 0 0 1-.227-.397 1.551 1.551 0 0 1-.077-.5v-.048zm.633.048c0 .103.01.2.03.29.02.09.05.17.093.237a.477.477 0 0 0 .165.16c.068.04.15.06.245.06.092 0 .172-.02.239-.06a.47.47 0 0 0 .163-.16.753.753 0 0 0 .092-.237c.02-.09.03-.187.03-.29v-.048c0-.1-.01-.195-.03-.285a.767.767 0 0 0-.092-.237.468.468 0 0 0-.163-.161.471.471 0 0 0-.244-.06.466.466 0 0 0-.241.06.477.477 0 0 0-.164.161.75.75 0 0 0-.093.237c-.02.09-.03.185-.03.285v.048zm2.186-.044a1.9 1.9 0 0 1 .065-.512c.043-.155.107-.288.19-.398a.874.874 0 0 1 .304-.258.888.888 0 0 1 .409-.09c.13 0 .243.022.34.069a.814.814 0 0 1 .261.197V4.146h.636v3.498h-.572l-.032-.258a.836.836 0 0 1-.273.224.795.795 0 0 1-.365.08.852.852 0 0 1-.707-.356 1.218 1.218 0 0 1-.19-.395 1.789 1.789 0 0 1-.066-.498v-.048zm.633.048c0 .104.009.2.026.288a.72.72 0 0 0 .086.233c.04.066.09.118.152.156a.43.43 0 0 0 .228.057c.11 0 .2-.024.272-.071a.501.501 0 0 0 .172-.194v-.997a.492.492 0 0 0-.17-.195.484.484 0 0 0-.27-.07c-.089 0-.165.02-.228.059a.45.45 0 0 0-.154.16.767.767 0 0 0-.086.236c-.019.09-.028.187-.028.29v.048zm3.428 1.248c-.19 0-.362-.03-.517-.093a1.223 1.223 0 0 1-.399-.254 1.108 1.108 0 0 1-.256-.378c-.06-.145-.09-.3-.09-.466v-.09c0-.19.03-.361.089-.517.059-.155.142-.29.248-.402.106-.112.232-.2.378-.262a1.2 1.2 0 0 1 .476-.093c.178 0 .336.03.475.088.139.058.256.14.353.247.096.106.17.234.22.384.05.15.075.314.075.495v.269h-1.672c.012.083.037.16.074.229a.63.63 0 0 0 .34.294.702.702 0 0 0 .244.041.956.956 0 0 0 .362-.071.794.794 0 0 0 .158-.088.612.612 0 0 0 .127-.123l.317.342a.905.905 0 0 1-.154.165 1.044 1.044 0 0 1-.223.143 1.437 1.437 0 0 1-.625.14zm-.076-2.042a.462.462 0 0 0-.352.146.623.623 0 0 0-.112.168.922.922 0 0 0-.068.218h1.038v-.05a.599.599 0 0 0-.039-.189.444.444 0 0 0-.254-.256.561.561 0 0 0-.213-.037zm6.495.544h-1.361v.936h1.591v.517H34.28V4.328h2.228v.521h-1.585v.836h1.361v.506zM37.46 5.18l.018.298a.616.616 0 0 1 .194-.252.492.492 0 0 1 .302-.092c.2 0 .329.087.39.262a.55.55 0 0 1 .185-.192.509.509 0 0 1 .272-.07c.075 0 .144.014.209.041.064.027.12.071.168.131a.65.65 0 0 1 .112.232c.026.095.04.211.04.348v1.758h-.576v-1.76a.383.383 0 0 0-.015-.117.185.185 0 0 0-.04-.072.135.135 0 0 0-.058-.036.225.225 0 0 0-.179.02.204.204 0 0 0-.07.084v1.88h-.559V5.882a.412.412 0 0 0-.013-.116.172.172 0 0 0-.038-.07.132.132 0 0 0-.056-.036.222.222 0 0 0-.068-.01.166.166 0 0 0-.117.04.274.274 0 0 0-.07.11v1.845h-.576V5.18h.545zm3.944 2.464a.56.56 0 0 1-.039-.105c-.01-.04-.02-.081-.027-.125a.83.83 0 0 1-.272.194 1.025 1.025 0 0 1-.4.08c-.126.001-.242-.017-.347-.053a.825.825 0 0 1-.272-.153.695.695 0 0 1-.242-.528c0-.26.097-.46.29-.603.194-.142.483-.213.867-.213h.353v-.145a.358.358 0 0 0-.116-.282c-.078-.069-.19-.103-.335-.103-.129 0-.223.028-.282.083a.29.29 0 0 0-.09.222h-.632c0-.105.023-.204.07-.298a.732.732 0 0 1 .202-.249c.089-.071.197-.128.326-.17.128-.041.275-.062.44-.062.15 0 .288.018.416.055.128.036.24.09.334.161a.744.744 0 0 1 .22.27c.054.109.08.235.08.377v1.057c0 .132.008.241.025.328.017.086.041.16.073.223v.039h-.642zM40.8 7.2a.662.662 0 0 0 .44-.165.436.436 0 0 0 .075-.095v-.424h-.323a.975.975 0 0 0-.253.029.482.482 0 0 0-.17.08.318.318 0 0 0-.099.123.38.38 0 0 0-.032.156c0 .085.03.155.09.211.06.057.15.085.272.085zm2.032-2.02h1.341v1.949h.667v.515h-2.008v-.515h.701V5.697h-.701V5.18zm.656-.631c0-.049.008-.094.026-.136a.304.304 0 0 1 .074-.107.343.343 0 0 1 .115-.07.424.424 0 0 1 .149-.024c.112 0 .202.031.268.094a.32.32 0 0 1 .099.243.32.32 0 0 1-.1.242.372.372 0 0 1-.267.095.424.424 0 0 1-.15-.025.343.343 0 0 1-.114-.07.304.304 0 0 1-.074-.107.348.348 0 0 1-.026-.135zm2.106-.403h1.378v2.983h.706v.515h-2.084v-.515h.738V4.663h-.738v-.517zM22.686 10.29h-1.022v2.794h-.642v-2.794h-1.01v-.522h2.674v.522zm1.581 2.84c-.19 0-.362-.032-.517-.094a1.223 1.223 0 0 1-.399-.254 1.108 1.108 0 0 1-.256-.378c-.06-.145-.09-.3-.09-.465v-.092c0-.188.03-.36.09-.515a1.12 1.12 0 0 1 .626-.664 1.2 1.2 0 0 1 .475-.094c.178 0 .336.03.475.088.14.059.257.14.353.247.097.106.17.234.22.384.05.15.075.315.075.495v.269h-1.671c.012.083.036.16.074.229a.63.63 0 0 0 .34.295.702.702 0 0 0 .244.04.956.956 0 0 0 .362-.071.794.794 0 0 0 .157-.088.612.612 0 0 0 .127-.123l.317.342a.905.905 0 0 1-.154.165 1.044 1.044 0 0 1-.223.144 1.437 1.437 0 0 1-.625.14zm-.075-2.043a.462.462 0 0 0-.352.146.623.623 0 0 0-.113.168.922.922 0 0 0-.068.219h1.038v-.05a.599.599 0 0 0-.038-.19.444.444 0 0 0-.254-.256.561.561 0 0 0-.213-.037zm2.072-.467l.018.298a.616.616 0 0 1 .195-.251.492.492 0 0 1 .302-.093c.199 0 .329.088.39.262a.55.55 0 0 1 .185-.192.509.509 0 0 1 .272-.07c.074 0 .144.014.208.041.065.028.121.071.169.131a.65.65 0 0 1 .111.233c.027.095.04.21.04.347v1.758h-.576v-1.76a.383.383 0 0 0-.015-.116.185.185 0 0 0-.04-.072.135.135 0 0 0-.058-.037.225.225 0 0 0-.178.02.204.204 0 0 0-.07.084v1.881h-.559v-1.763a.412.412 0 0 0-.014-.116.172.172 0 0 0-.037-.07.132.132 0 0 0-.056-.036.222.222 0 0 0-.068-.01.166.166 0 0 0-.117.041.274.274 0 0 0-.07.11v1.844h-.576v-2.464h.544zm4.619 1.255c0 .179-.021.345-.063.498a1.207 1.207 0 0 1-.184.398.88.88 0 0 1-.302.263.865.865 0 0 1-.412.096.834.834 0 0 1-.349-.069.794.794 0 0 1-.262-.191v1.161h-.633v-3.411h.585l.023.241a.804.804 0 0 1 .269-.211.82.82 0 0 1 .362-.076.844.844 0 0 1 .717.345c.082.11.144.243.186.397.042.154.063.324.063.51v.049zm-.634-.048c0-.103-.009-.2-.028-.29a.74.74 0 0 0-.089-.235.455.455 0 0 0-.155-.156.436.436 0 0 0-.229-.057.514.514 0 0 0-.272.065.44.44 0 0 0-.165.183v1.03c.04.077.095.139.165.185.07.047.163.07.277.07.09 0 .166-.02.229-.06a.456.456 0 0 0 .154-.161.781.781 0 0 0 .086-.238c.018-.09.027-.187.027-.288v-.048zm1.35-2.241h1.379v2.983h.706v.515H31.6v-.515h.738v-2.466H31.6v-.517zm4.207 3.498a.56.56 0 0 1-.039-.105c-.01-.04-.02-.081-.027-.125a.83.83 0 0 1-.272.195 1.025 1.025 0 0 1-.4.08c-.126 0-.241-.018-.347-.054a.825.825 0 0 1-.272-.153.695.695 0 0 1-.242-.528c0-.26.097-.46.29-.602.194-.142.483-.213.867-.213h.353v-.146a.358.358 0 0 0-.116-.281c-.077-.07-.189-.104-.335-.104-.129 0-.223.028-.282.083a.29.29 0 0 0-.089.222h-.633c0-.105.023-.204.07-.298a.732.732 0 0 1 .202-.248c.09-.072.198-.128.326-.17.128-.042.275-.063.44-.063.15 0 .288.019.416.055.129.036.24.09.334.162a.744.744 0 0 1 .22.27c.054.108.08.234.08.377v1.056c0 .132.009.242.026.328.016.087.04.161.072.223v.039h-.642zm-.603-.444a.662.662 0 0 0 .44-.165.436.436 0 0 0 .074-.095v-.423h-.323a.975.975 0 0 0-.253.028.482.482 0 0 0-.17.08.318.318 0 0 0-.099.123.38.38 0 0 0-.031.156c0 .085.03.156.09.212.06.056.15.084.272.084zm3.024-2.624v.604h.92v.467h-.92v1.059c0 .09.01.164.03.224.021.06.05.108.088.144a.327.327 0 0 0 .138.076.667.667 0 0 0 .181.023 2.57 2.57 0 0 0 .528-.068l.062.434a.772.772 0 0 1-.155.067c-.059.02-.122.035-.189.047a2.464 2.464 0 0 1-.421.039c-.135 0-.258-.018-.368-.054a.722.722 0 0 1-.282-.166.746.746 0 0 1-.181-.287 1.219 1.219 0 0 1-.064-.418v-1.12h-.563v-.467h.563v-.604h.633zm2.833 3.114c-.19 0-.362-.032-.517-.094a1.223 1.223 0 0 1-.399-.254 1.108 1.108 0 0 1-.256-.378c-.06-.145-.09-.3-.09-.465v-.092c0-.188.03-.36.09-.515a1.12 1.12 0 0 1 .626-.664 1.2 1.2 0 0 1 .475-.094c.178 0 .336.03.475.088.14.059.257.14.353.247.097.106.17.234.22.384.05.15.075.315.075.495v.269h-1.671c.012.083.036.16.074.229a.63.63 0 0 0 .34.295.702.702 0 0 0 .244.04.956.956 0 0 0 .362-.071.794.794 0 0 0 .157-.088.612.612 0 0 0 .127-.123l.317.342a.905.905 0 0 1-.154.165 1.044 1.044 0 0 1-.223.144 1.437 1.437 0 0 1-.625.14zm-.075-2.043a.462.462 0 0 0-.352.146.623.623 0 0 0-.113.168.922.922 0 0 0-.068.219h1.038v-.05a.599.599 0 0 0-.038-.19.444.444 0 0 0-.254-.256.561.561 0 0 0-.213-.037zm3.268 1.32a.19.19 0 0 0-.026-.1.246.246 0 0 0-.094-.08.854.854 0 0 0-.179-.07 3.183 3.183 0 0 0-.282-.064 2.725 2.725 0 0 1-.395-.108 1.245 1.245 0 0 1-.306-.157.713.713 0 0 1-.2-.213.533.533 0 0 1-.071-.278.62.62 0 0 1 .073-.291.74.74 0 0 1 .209-.244c.091-.07.202-.125.333-.166.13-.041.277-.062.441-.062.172 0 .326.02.463.06.136.041.252.096.347.167.095.07.167.154.217.252a.68.68 0 0 1 .076.316h-.634a.3.3 0 0 0-.116-.24c-.077-.065-.195-.097-.353-.097-.147 0-.258.027-.333.08-.075.053-.113.118-.113.196 0 .036.008.07.023.101s.042.06.08.084a.643.643 0 0 0 .159.069c.067.02.152.038.255.053.149.024.287.056.414.094.128.037.238.086.33.146.093.06.166.133.218.219a.576.576 0 0 1 .079.306c0 .11-.027.21-.079.302a.73.73 0 0 1-.223.238 1.13 1.13 0 0 1-.35.156c-.136.037-.289.056-.457.056-.186 0-.35-.024-.491-.073a1.141 1.141 0 0 1-.357-.19.808.808 0 0 1-.217-.267.668.668 0 0 1-.074-.3h.603a.347.347 0 0 0 .178.289c.05.03.107.051.172.065a.96.96 0 0 0 .2.02.693.693 0 0 0 .357-.075c.082-.05.123-.114.123-.193z"/></g></symbol></svg>