<?xml version="1.0" encoding="UTF-8"?><svg xmlns="http://www.w3.org/2000/svg" xmlns:xlink="http://www.w3.org/1999/xlink"><symbol viewBox="0 0 64 50" id="_assets--img--src--code"><title>code</title><g fill="none" fill-rule="evenodd"><path d="M11.25 47.75h-2.5v-36.5H2.5v-2.5h59v2.5H11.25v36.5zM2.5 5v40A2.5 2.5 0 0 0 5 47.5h54a2.5 2.5 0 0 0 2.5-2.5V5A2.5 2.5 0 0 0 59 2.5H5A2.5 2.5 0 0 0 2.5 5zM0 5a5 5 0 0 1 5-5h54a5 5 0 0 1 5 5v40a5 5 0 0 1-5 5H5a5 5 0 0 1-5-5V5z" fill="#AE2BCA" fill-rule="nonzero"/><path d="M18.583 18.078l-.15.055.15.053 1.204.402v.596l-1.944-.807v-.494l1.944-.807v.594l-1.204.408zm3.048-1.538v.583h.888v.45h-.888v1.022c0 .086.01.158.03.216.02.058.047.104.084.139.037.034.081.059.133.073.052.015.11.022.175.022a1.614 1.614 0 0 0 .284-.023 3.184 3.184 0 0 0 .226-.043l.059.42a.745.745 0 0 1-.15.065 1.443 1.443 0 0 1-.182.045 2.378 2.378 0 0 1-.406.037c-.13 0-.25-.017-.355-.051a.697.697 0 0 1-.273-.16.72.72 0 0 1-.174-.278 1.176 1.176 0 0 1-.062-.403v-1.081h-.543v-.45h.543v-.583h.61zm3.065 2.96a.54.54 0 0 1-.037-.101 1.342 1.342 0 0 1-.027-.12.802.802 0 0 1-.44.244.988.988 0 0 1-.208.02 1.02 1.02 0 0 1-.335-.052.796.796 0 0 1-.263-.147.67.67 0 0 1-.232-.51c0-.25.093-.444.28-.58.186-.138.465-.206.836-.206h.34v-.141a.345.345 0 0 0-.112-.271c-.074-.067-.182-.1-.323-.1-.124 0-.215.026-.272.08a.28.28 0 0 0-.086.214h-.61c0-.101.022-.197.066-.288.045-.09.11-.17.196-.24a.98.98 0 0 1 .314-.163c.124-.04.266-.06.425-.06.144 0 .277.017.401.052a.962.962 0 0 1 .322.156c.091.07.162.156.213.26a.817.817 0 0 1 .077.364v1.02c0 .127.008.233.024.316.016.084.04.156.07.216v.037h-.619zm-.582-.428a.638.638 0 0 0 .424-.16.42.42 0 0 0 .072-.091v-.409h-.312a.94.94 0 0 0-.244.028.465.465 0 0 0-.164.077.307.307 0 0 0-.095.118.366.366 0 0 0-.03.15c0 .083.028.151.086.205.058.054.146.082.263.082zm3.94-.737c0 .178-.02.34-.059.488a1.133 1.133 0 0 1-.174.383.812.812 0 0 1-.695.338.785.785 0 0 1-.361-.078.782.782 0 0 1-.263-.219l-.028.253h-.55v-3.375h.611v1.213a.745.745 0 0 1 .25-.191.78.78 0 0 1 .337-.068.82.82 0 0 1 .699.34c.077.107.135.235.174.384.04.148.058.31.058.486v.046zm-.611-.046c0-.096-.008-.188-.022-.274a.717.717 0 0 0-.076-.228.413.413 0 0 0-.146-.155.431.431 0 0 0-.231-.057.477.477 0 0 0-.271.07.462.462 0 0 0-.162.194v.947a.462.462 0 0 0 .162.193c.07.047.161.07.275.07a.44.44 0 0 0 .229-.053.398.398 0 0 0 .144-.15.692.692 0 0 0 .076-.226 1.72 1.72 0 0 0 .022-.285v-.046zm1.296-2.164h1.33v2.878h.68v.497h-2.01v-.497h.712v-2.38h-.712v-.498zm3.727 3.419c-.184 0-.35-.03-.5-.09a1.18 1.18 0 0 1-.384-.245 1.07 1.07 0 0 1-.247-.365 1.164 1.164 0 0 1-.087-.45v-.087c0-.182.029-.348.086-.498.057-.15.137-.28.24-.388a1.08 1.08 0 0 1 .364-.252c.14-.06.294-.09.46-.09.17 0 .324.028.458.084a.95.95 0 0 1 .34.239c.093.102.164.226.212.37.049.144.073.303.073.478v.259h-1.613c.012.08.035.154.071.22a.608.608 0 0 0 .329.285c.072.027.15.04.235.04a.922.922 0 0 0 .35-.07.766.766 0 0 0 .15-.084.59.59 0 0 0 .124-.119l.305.33a.873.873 0 0 1-.148.16c-.06.051-.133.098-.215.138a1.387 1.387 0 0 1-.603.135zm-.073-1.971a.445.445 0 0 0-.34.14.601.601 0 0 0-.108.163.89.89 0 0 0-.066.211h1.002v-.048a.578.578 0 0 0-.037-.183.428.428 0 0 0-.245-.247.541.541 0 0 0-.206-.036zm5.854 1.274a.183.183 0 0 0-.026-.096.237.237 0 0 0-.09-.078.824.824 0 0 0-.172-.067 3.07 3.07 0 0 0-.273-.062 2.63 2.63 0 0 1-.38-.104 1.201 1.201 0 0 1-.296-.152.688.688 0 0 1-.193-.205.515.515 0 0 1-.069-.268c0-.098.023-.192.07-.282a.714.714 0 0 1 .203-.235c.087-.067.194-.12.32-.16.126-.04.268-.06.427-.06.165 0 .314.02.446.059.131.039.243.092.335.16a.703.703 0 0 1 .21.243.657.657 0 0 1 .072.305h-.61a.29.29 0 0 0-.113-.231c-.075-.063-.188-.094-.34-.094-.143 0-.25.026-.322.077-.073.051-.11.114-.11.19a.22.22 0 0 0 .023.097.21.21 0 0 0 .078.081.62.62 0 0 0 .153.066c.064.02.146.037.246.052.143.023.277.053.4.09.123.036.229.084.318.142.09.057.16.128.21.21.05.083.076.182.076.296a.578.578 0 0 1-.076.291.703.703 0 0 1-.215.23 1.09 1.09 0 0 1-.338.15c-.131.036-.279.054-.441.054a1.46 1.46 0 0 1-.474-.07 1.101 1.101 0 0 1-.344-.184.78.78 0 0 1-.21-.257.645.645 0 0 1-.07-.289h.581a.334.334 0 0 0 .172.278c.048.029.103.05.166.063.062.013.126.02.192.02.15 0 .266-.024.345-.073.079-.048.119-.11.119-.187zm2.287-2.307v.583h.888v.45h-.888v1.022c0 .086.01.158.03.216.02.058.048.104.084.139.037.034.081.059.133.073.052.015.11.022.175.022a1.614 1.614 0 0 0 .284-.023 3.185 3.185 0 0 0 .226-.043l.059.42a.745.745 0 0 1-.15.065 1.443 1.443 0 0 1-.182.045 2.378 2.378 0 0 1-.406.037c-.13 0-.249-.017-.355-.051a.697.697 0 0 1-.273-.16.72.72 0 0 1-.174-.278 1.176 1.176 0 0 1-.062-.403v-1.081h-.543v-.45h.543v-.583h.61zm2.593 1.962l.07.255.633-1.634h.674l-1.206 2.733c-.026.06-.06.125-.102.196a.917.917 0 0 1-.157.195.766.766 0 0 1-.55.213.929.929 0 0 1-.223-.025 1.562 1.562 0 0 1-.073-.019l.075-.466c.024 0 .056.002.095.004l.094.003a.203.203 0 0 0 .128-.044.518.518 0 0 0 .096-.097.834.834 0 0 0 .063-.096c.016-.03.027-.044.033-.044l.148-.277-1.007-2.276h.668l.54 1.38zm1.815-2.377h1.329v2.878h.681v.497h-2.01v-.497h.712v-2.38h-.712v-.498zm3.726 3.419c-.183 0-.35-.03-.499-.09a1.18 1.18 0 0 1-.384-.245 1.07 1.07 0 0 1-.247-.365 1.164 1.164 0 0 1-.087-.45v-.087c0-.182.028-.348.086-.498.057-.15.137-.28.24-.388a1.08 1.08 0 0 1 .364-.252c.14-.06.294-.09.46-.09.17 0 .323.028.457.084a.95.95 0 0 1 .34.239c.094.102.164.226.213.37.048.144.072.303.072.478v.259h-1.612c.011.08.035.154.071.22a.608.608 0 0 0 .328.285c.072.027.15.04.236.04a.922.922 0 0 0 .349-.07.766.766 0 0 0 .152-.084.59.59 0 0 0 .123-.119l.305.33a.873.873 0 0 1-.148.16c-.061.051-.133.098-.216.138a1.387 1.387 0 0 1-.603.135zm-.072-1.971a.445.445 0 0 0-.34.14.601.601 0 0 0-.109.163.89.89 0 0 0-.065.211h1.001v-.048a.578.578 0 0 0-.037-.183.428.428 0 0 0-.245-.247.541.541 0 0 0-.205-.036zm3.735.352h-2.079v-.501h2.08v.5zm0 .947h-2.079v-.5h2.08v.5zM18.216 22.14a.93.93 0 0 1 .031-.232 1.436 1.436 0 0 1 .213-.45c.049-.067.101-.126.158-.177l.282.173a1.638 1.638 0 0 0-.139.307c-.036.109-.055.234-.055.376v.39h-.49v-.387zm.75 0a.93.93 0 0 1 .03-.232 1.436 1.436 0 0 1 .213-.45c.049-.067.102-.126.159-.177l.28.173a1.638 1.638 0 0 0-.138.307c-.036.109-.054.234-.054.376v.39h-.49v-.387zm3.065 1.865l.206-1.632h.56l-.426 2.377h-.536l-.312-1.512-.3 1.512h-.537l-.426-2.377h.558l.206 1.639.3-1.64h.408l.299 1.633zm1.342-1.632h1.294v1.88h.644v.497h-1.938v-.497h.677v-1.382h-.677v-.498zm.633-.61c0-.046.009-.09.025-.13a.294.294 0 0 1 .072-.103.33.33 0 0 1 .11-.067.41.41 0 0 1 .145-.024c.108 0 .194.03.258.09a.31.31 0 0 1 .095.235.31.31 0 0 1-.095.234.359.359 0 0 1-.258.091.41.41 0 0 1-.144-.024.33.33 0 0 1-.111-.067.294.294 0 0 1-.072-.103.335.335 0 0 1-.025-.131zm1.841 1.78c0-.18.021-.344.063-.494.042-.15.103-.277.184-.384a.844.844 0 0 1 .293-.248.857.857 0 0 1 .394-.088.76.76 0 0 1 .329.067.786.786 0 0 1 .251.19v-1.211h.613v3.375h-.551l-.03-.248a.806.806 0 0 1-.265.215.767.767 0 0 1-.351.077.822.822 0 0 1-.682-.343 1.175 1.175 0 0 1-.184-.381 1.726 1.726 0 0 1-.064-.48v-.046zm.611.047c0 .1.009.192.026.278.016.085.044.16.082.224a.433.433 0 0 0 .147.15c.06.037.133.055.22.055a.471.471 0 0 0 .262-.068.484.484 0 0 0 .166-.187v-.962a.475.475 0 0 0-.164-.188.467.467 0 0 0-.26-.067.414.414 0 0 0-.22.056.433.433 0 0 0-.149.154.74.74 0 0 0-.083.229c-.018.087-.027.18-.027.28v.046zm3.274-1.8v.583h.888v.45h-.888v1.022c0 .086.01.158.03.216.02.058.048.104.084.139.037.034.081.059.133.073.052.015.11.022.175.022a1.614 1.614 0 0 0 .285-.023 3.185 3.185 0 0 0 .225-.043l.06.42a.745.745 0 0 1-.15.065 1.443 1.443 0 0 1-.183.045 2.378 2.378 0 0 1-.406.037c-.13 0-.249-.017-.355-.051a.697.697 0 0 1-.272-.16.72.72 0 0 1-.175-.278 1.176 1.176 0 0 1-.062-.403v-1.081h-.542v-.45h.542v-.583h.611zm2.19.91a.89.89 0 0 1 .29-.273.745.745 0 0 1 .381-.098c.125 0 .239.018.343.056a.679.679 0 0 1 .268.174c.075.08.133.18.175.305.041.123.062.272.062.447v1.439h-.61v-1.444a.675.675 0 0 0-.033-.22.371.371 0 0 0-.09-.149.369.369 0 0 0-.144-.084.603.603 0 0 0-.189-.028.605.605 0 0 0-.266.055.494.494 0 0 0-.186.154v1.716h-.611v-3.375h.61V22.7zm2.739 1.696c0-.057.01-.11.028-.16a.357.357 0 0 1 .084-.127.405.405 0 0 1 .134-.085.473.473 0 0 1 .178-.032c.066 0 .125.01.178.032a.378.378 0 0 1 .216.213.422.422 0 0 1-.083.442.38.38 0 0 1-.133.084.488.488 0 0 1-.178.03.488.488 0 0 1-.178-.03.36.36 0 0 1-.218-.21.422.422 0 0 1-.028-.157zm0-1.815c0-.057.01-.11.028-.159a.357.357 0 0 1 .084-.127.405.405 0 0 1 .134-.086.473.473 0 0 1 .178-.032c.066 0 .125.01.178.032a.378.378 0 0 1 .216.213.422.422 0 0 1-.083.442.38.38 0 0 1-.133.084.488.488 0 0 1-.178.031.488.488 0 0 1-.178-.03.36.36 0 0 1-.218-.21.422.422 0 0 1-.028-.158zm6.374-1.057v.508H41c-.161 0-.304.021-.428.064a.85.85 0 0 0-.523.46 1.11 1.11 0 0 0-.095.361c.034-.036.072-.072.116-.108a.863.863 0 0 1 .536-.193c.153 0 .286.03.4.087a.83.83 0 0 1 .284.235c.076.1.133.214.17.345.037.131.056.27.056.415 0 .155-.025.3-.075.432a.989.989 0 0 1-.55.579c-.13.057-.279.085-.443.085-.171 0-.326-.032-.463-.096a1.012 1.012 0 0 1-.35-.264 1.204 1.204 0 0 1-.223-.401 1.58 1.58 0 0 1-.078-.507v-.235c0-.253.035-.488.103-.704.07-.216.172-.403.308-.56.136-.158.306-.281.508-.37.202-.088.435-.133.7-.133h.082zm-.607 1.582c-.11 0-.206.03-.29.088a.553.553 0 0 0-.19.227v.18c0 .117.011.22.036.307.024.088.058.161.102.22a.434.434 0 0 0 .696.005.573.573 0 0 0 .095-.188.82.82 0 0 0 .033-.239.83.83 0 0 0-.033-.24.585.585 0 0 0-.095-.19.435.435 0 0 0-.354-.17zm3.769.427c0 .206-.024.388-.072.546a1.1 1.1 0 0 1-.205.395.855.855 0 0 1-.327.24 1.113 1.113 0 0 1-.436.082c-.16 0-.303-.027-.432-.081a.864.864 0 0 1-.329-.24 1.117 1.117 0 0 1-.209-.396 1.838 1.838 0 0 1-.073-.546v-.765c0-.206.024-.388.072-.546.049-.157.118-.29.208-.395.09-.107.2-.187.327-.241.128-.054.272-.081.432-.081.161 0 .306.027.435.08a.864.864 0 0 1 .329.242c.09.106.159.238.207.395.049.158.073.34.073.546v.765zm-1.468-.264l.853-.635c-.005-.215-.042-.375-.113-.479a.356.356 0 0 0-.316-.156.353.353 0 0 0-.319.165c-.07.11-.105.279-.105.507v.598zm.853-.22l-.853.633c.007.211.046.367.116.47.07.101.175.152.312.152a.35.35 0 0 0 .32-.167c.07-.111.105-.282.105-.512v-.576zm3.315.484c0 .206-.024.388-.071.546a1.1 1.1 0 0 1-.206.395.855.855 0 0 1-.327.24 1.113 1.113 0 0 1-.435.082c-.16 0-.304-.027-.433-.081a.864.864 0 0 1-.328-.24 1.117 1.117 0 0 1-.21-.396 1.838 1.838 0 0 1-.073-.546v-.765c0-.206.024-.388.073-.546.048-.157.117-.29.207-.395.09-.107.2-.187.328-.241.128-.054.272-.081.432-.081.16 0 .306.027.435.08a.864.864 0 0 1 .328.242c.09.106.16.238.208.395.048.158.072.34.072.546v.765zm-1.468-.264l.853-.635c-.004-.215-.042-.375-.112-.479a.356.356 0 0 0-.316-.156.353.353 0 0 0-.32.165c-.07.11-.105.279-.105.507v.598zm.853-.22l-.853.633c.008.211.047.367.117.47.07.101.174.152.312.152a.35.35 0 0 0 .32-.167c.07-.111.104-.282.104-.512v-.576zm3.368.534c0 .173-.02.334-.06.481-.04.148-.1.276-.178.384a.85.85 0 0 1-.291.254.834.834 0 0 1-.398.092.805.805 0 0 1-.336-.066.766.766 0 0 1-.253-.185v1.121h-.61v-3.291h.564l.022.232a.775.775 0 0 1 .26-.204.792.792 0 0 1 .349-.072.815.815 0 0 1 .692.333c.079.106.139.233.179.382.04.149.06.313.06.493v.046zm-.61-.046c0-.1-.01-.193-.028-.28a.714.714 0 0 0-.086-.226.439.439 0 0 0-.149-.15.42.42 0 0 0-.22-.056.496.496 0 0 0-.263.063.425.425 0 0 0-.16.177v.993a.46.46 0 0 0 .16.179.48.48 0 0 0 .267.067c.086 0 .16-.02.22-.057a.44.44 0 0 0 .149-.156.754.754 0 0 0 .083-.23c.018-.087.027-.18.027-.278v-.046zm2.263-.422l.523-.742h.657l-.798 1.166.826 1.211h-.659l-.547-.778-.543.778h-.661l.826-1.21-.795-1.167h.657l.514.742zm1.525 1.283c0-.057.01-.11.028-.159a.357.357 0 0 1 .084-.127.405.405 0 0 1 .134-.086.473.473 0 0 1 .178-.032c.066 0 .125.01.178.032a.378.378 0 0 1 .216.213.422.422 0 0 1-.083.442.38.38 0 0 1-.133.084.488.488 0 0 1-.178.031.488.488 0 0 1-.178-.03.36.36 0 0 1-.218-.21.422.422 0 0 1-.028-.158zm.872 0c0-.057.01-.11.029-.159a.357.357 0 0 1 .083-.127.405.405 0 0 1 .134-.086.473.473 0 0 1 .178-.032c.066 0 .125.01.178.032a.378.378 0 0 1 .216.213.422.422 0 0 1-.083.442.38.38 0 0 1-.133.084.488.488 0 0 1-.178.031.488.488 0 0 1-.178-.03.36.36 0 0 1-.218-.21.422.422 0 0 1-.028-.158zm.872 0c0-.057.01-.11.029-.159a.357.357 0 0 1 .083-.127.405.405 0 0 1 .134-.086.473.473 0 0 1 .178-.032c.066 0 .126.01.178.032a.378.378 0 0 1 .216.213.422.422 0 0 1-.083.442.38.38 0 0 1-.133.084.488.488 0 0 1-.178.031.488.488 0 0 1-.178-.03.36.36 0 0 1-.218-.21.422.422 0 0 1-.028-.158zM17.5 28.75h37.75v2.5H17.5zM17.5 33.75h25.25v2.5H17.5zM17.5 38.75h12.75v2.5H17.5z" fill="#E92D79"/></g></symbol><symbol viewBox="0 0 64 50" id="_assets--img--src--responsive"><title>responsive</title><g fill="none" fill-rule="evenodd"><g transform="translate(14.933 11.043)" fill="#E92D79"><path d="M0 0h37.898v2.51H0zM0 5.02h37.898v2.51H0zM0 10.039h37.898v2.51H0zM11.42 15.059h15.059v5.02H11.42z"/></g><path d="M61.49 40.157H64v5.02a5.02 5.02 0 0 1-5.019 5.02H8.784a5.02 5.02 0 0 1-5.02-5.02v-5.02h2.51V5.02A5.02 5.02 0 0 1 11.296 0H56.47a5.02 5.02 0 0 1 5.02 5.02v35.137zM8.784 5.02v35.137H58.98V5.02a2.51 2.51 0 0 0-2.51-2.51H11.295a2.51 2.51 0 0 0-2.51 2.51zm-2.51 37.647v2.51a2.51 2.51 0 0 0 2.51 2.51H58.98a2.51 2.51 0 0 0 2.51-2.51v-2.51H6.274z" fill="#AE2BCA" fill-rule="nonzero"/><g transform="translate(0 15.435)"><path d="M2.51 5.02v24.72a2.509 2.509 0 0 0 2.509 2.511h12.3a2.51 2.51 0 0 0 2.508-2.51V5.02a2.509 2.509 0 0 0-2.508-2.51h-12.3a2.51 2.51 0 0 0-2.51 2.51z" fill="#FFF"/><path d="M2.51 5.02v24.72a2.509 2.509 0 0 0 2.509 2.511h12.3a2.51 2.51 0 0 0 2.508-2.51V5.02a2.509 2.509 0 0 0-2.508-2.51h-12.3a2.51 2.51 0 0 0-2.51 2.51zM0 5.02A5.02 5.02 0 0 1 5.019 0h12.3a5.019 5.019 0 0 1 5.018 5.02v24.72a5.02 5.02 0 0 1-5.018 5.02h-12.3A5.019 5.019 0 0 1 0 29.74V5.02z" fill="#AE2BCA" fill-rule="nonzero"/><circle fill="#AE2BCA" cx="11.169" cy="29.114" r="1.882"/></g><g transform="translate(4.518 22.337)" fill="#E92D79"><path d="M0 0h13.378v2.51H0zM0 5.02h13.378v2.51H0zM0 10.039h13.378v2.51H0zM0 15.059h13.378v3.765H0z"/></g></g></symbol><symbol viewBox="0 0 64 52" id="_assets--img--src--time"><title>time</title><g fill="none" fill-rule="evenodd"><path d="M7.303 8.994L12.35 3.95l1.68 1.68-6.727 6.727-1.68-1.68.001-.001L3.94 8.99l1.68-1.68 1.683 1.683zM10.465 0v2.376h-5.71a2.376 2.376 0 0 0-2.377 2.375v6.418a2.376 2.376 0 0 0 2.378 2.375h6.423a2.376 2.376 0 0 0 2.378-2.375v-4.04h2.378v4.04a4.754 4.754 0 0 1-4.756 4.751H4.756A4.754 4.754 0 0 1 0 11.17V4.75A4.754 4.754 0 0 1 4.756 0h5.709zM0 22.573a4.754 4.754 0 0 1 4.756-4.752h6.423a4.754 4.754 0 0 1 4.756 4.752v6.417a4.754 4.754 0 0 1-4.756 4.752H4.756A4.754 4.754 0 0 1 0 28.99v-6.417zm2.378 0v6.417a2.376 2.376 0 0 0 2.378 2.375h6.423a2.376 2.376 0 0 0 2.378-2.375v-6.417a2.376 2.376 0 0 0-2.378-2.376H4.756a2.376 2.376 0 0 0-2.378 2.376zM0 40.393a4.754 4.754 0 0 1 4.756-4.75h6.423a4.754 4.754 0 0 1 4.756 4.75v6.418a4.754 4.754 0 0 1-4.756 4.752H4.756A4.754 4.754 0 0 1 0 46.81v-6.417zm2.378 0v6.418a2.376 2.376 0 0 0 2.378 2.376h6.423a2.376 2.376 0 0 0 2.378-2.376v-6.417a2.376 2.376 0 0 0-2.378-2.375H4.756a2.376 2.376 0 0 0-2.378 2.375z" fill="#AE2BCA" fill-rule="nonzero"/><path fill="#E92D79" d="M19.951 21.895H64v2.591H19.951zM19.951 27.077h19.433v2.591H19.951zM19.951 39.514h32.777v2.591H19.951zM19.951 44.696h28.113v2.591H19.951zM22.552 6.605c-.01.167-.047.318-.108.451a1.05 1.05 0 0 1-.616.56c-.143.05-.3.076-.474.076-.196 0-.37-.037-.521-.109a1.067 1.067 0 0 1-.383-.303 1.38 1.38 0 0 1-.237-.468 2.086 2.086 0 0 1-.082-.6v-.447c0-.22.03-.421.087-.604.058-.182.14-.338.246-.469a1.107 1.107 0 0 1 .895-.412c.182 0 .344.026.486.078.142.051.263.125.363.22.1.096.18.213.237.351.058.138.094.294.11.467h-.638a1.086 1.086 0 0 0-.045-.26.493.493 0 0 0-.102-.185.42.42 0 0 0-.169-.112.699.699 0 0 0-.242-.037.502.502 0 0 0-.258.063.504.504 0 0 0-.18.187.951.951 0 0 0-.106.302 2.18 2.18 0 0 0-.035.406v.451c0 .327.046.568.138.724.092.157.237.235.436.235.167 0 .3-.044.397-.133.097-.089.15-.233.161-.432h.64zm.433-.216c0-.18.026-.345.077-.498.052-.152.127-.285.227-.397.1-.112.22-.2.364-.264s.308-.096.493-.096.35.032.494.096c.145.064.267.152.366.264.1.112.175.245.227.397.051.153.077.319.077.498v.048c0 .18-.026.347-.077.5a1.156 1.156 0 0 1-.226.397c-.099.112-.22.2-.364.263a1.218 1.218 0 0 1-.492.095c-.185 0-.35-.032-.496-.095a1.03 1.03 0 0 1-.366-.263 1.146 1.146 0 0 1-.227-.397 1.551 1.551 0 0 1-.077-.5v-.048zm.633.048c0 .103.01.2.03.29.02.09.05.17.093.237a.477.477 0 0 0 .165.16c.068.04.15.06.245.06.092 0 .172-.02.239-.06a.47.47 0 0 0 .163-.16.753.753 0 0 0 .092-.237c.02-.09.03-.187.03-.29v-.048c0-.1-.01-.195-.03-.285a.767.767 0 0 0-.092-.237.468.468 0 0 0-.163-.161.471.471 0 0 0-.244-.06.466.466 0 0 0-.241.06.477.477 0 0 0-.164.161.75.75 0 0 0-.093.237c-.02.09-.03.185-.03.285v.048zm2.186-.044a1.9 1.9 0 0 1 .065-.512c.043-.155.107-.288.19-.398a.874.874 0 0 1 .304-.258.888.888 0 0 1 .409-.09c.13 0 .243.022.34.069a.814.814 0 0 1 .261.197V4.146h.636v3.498h-.572l-.032-.258a.836.836 0 0 1-.273.224.795.795 0 0 1-.365.08.852.852 0 0 1-.707-.356 1.218 1.218 0 0 1-.19-.395 1.789 1.789 0 0 1-.066-.498v-.048zm.633.048c0 .104.009.2.026.288a.72.72 0 0 0 .086.233c.04.066.09.118.152.156a.43.43 0 0 0 .228.057c.11 0 .2-.024.272-.071a.501.501 0 0 0 .172-.194v-.997a.492.492 0 0 0-.17-.195.484.484 0 0 0-.27-.07c-.089 0-.165.02-.228.059a.45.45 0 0 0-.154.16.767.767 0 0 0-.086.236c-.019.09-.028.187-.028.29v.048zm3.428 1.248c-.19 0-.362-.03-.517-.093a1.223 1.223 0 0 1-.399-.254 1.108 1.108 0 0 1-.256-.378c-.06-.145-.09-.3-.09-.466v-.09c0-.19.03-.361.089-.517.059-.155.142-.29.248-.402.106-.112.232-.2.378-.262a1.2 1.2 0 0 1 .476-.093c.178 0 .336.03.475.088.139.058.256.14.353.247.096.106.17.234.22.384.05.15.075.314.075.495v.269h-1.672c.012.083.037.16.074.229a.63.63 0 0 0 .34.294.702.702 0 0 0 .244.041.956.956 0 0 0 .362-.071.794.794 0 0 0 .158-.088.612.612 0 0 0 .127-.123l.317.342a.905.905 0 0 1-.154.165 1.044 1.044 0 0 1-.223.143 1.437 1.437 0 0 1-.625.14zm-.076-2.042a.462.462 0 0 0-.352.146.623.623 0 0 0-.112.168.922.922 0 0 0-.068.218h1.038v-.05a.599.599 0 0 0-.039-.189.444.444 0 0 0-.254-.256.561.561 0 0 0-.213-.037zm6.495.544h-1.361v.936h1.591v.517H34.28V4.328h2.228v.521h-1.585v.836h1.361v.506zM37.46 5.18l.018.298a.616.616 0 0 1 .194-.252.492.492 0 0 1 .302-.092c.2 0 .329.087.39.262a.55.55 0 0 1 .185-.192.509.509 0 0 1 .272-.07c.075 0 .144.014.209.041.064.027.12.071.168.131a.65.65 0 0 1 .112.232c.026.095.04.211.04.348v1.758h-.576v-1.76a.383.383 0 0 0-.015-.117.185.185 0 0 0-.04-.072.135.135 0 0 0-.058-.036.225.225 0 0 0-.179.02.204.204 0 0 0-.07.084v1.88h-.559V5.882a.412.412 0 0 0-.013-.116.172.172 0 0 0-.038-.07.132.132 0 0 0-.056-.036.222.222 0 0 0-.068-.01.166.166 0 0 0-.117.04.274.274 0 0 0-.07.11v1.845h-.576V5.18h.545zm3.944 2.464a.56.56 0 0 1-.039-.105c-.01-.04-.02-.081-.027-.125a.83.83 0 0 1-.272.194 1.025 1.025 0 0 1-.4.08c-.126.001-.242-.017-.347-.053a.825.825 0 0 1-.272-.153.695.695 0 0 1-.242-.528c0-.26.097-.46.29-.603.194-.142.483-.213.867-.213h.353v-.145a.358.358 0 0 0-.116-.282c-.078-.069-.19-.103-.335-.103-.129 0-.223.028-.282.083a.29.29 0 0 0-.09.222h-.632c0-.105.023-.204.07-.298a.732.732 0 0 1 .202-.249c.089-.071.197-.128.326-.17.128-.041.275-.062.44-.062.15 0 .288.018.416.055.128.036.24.09.334.161a.744.744 0 0 1 .22.27c.054.109.08.235.08.377v1.057c0 .132.008.241.025.328.017.086.041.16.073.223v.039h-.642zM40.8 7.2a.662.662 0 0 0 .44-.165.436.436 0 0 0 .075-.095v-.424h-.323a.975.975 0 0 0-.253.029.482.482 0 0 0-.17.08.318.318 0 0 0-.099.123.38.38 0 0 0-.032.156c0 .085.03.155.09.211.06.057.15.085.272.085zm2.032-2.02h1.341v1.949h.667v.515h-2.008v-.515h.701V5.697h-.701V5.18zm.656-.631c0-.049.008-.094.026-.136a.304.304 0 0 1 .074-.107.343.343 0 0 1 .115-.07.424.424 0 0 1 .149-.024c.112 0 .202.031.268.094a.32.32 0 0 1 .099.243.32.32 0 0 1-.1.242.372.372 0 0 1-.267.095.424.424 0 0 1-.15-.025.343.343 0 0 1-.114-.07.304.304 0 0 1-.074-.107.348.348 0 0 1-.026-.135zm2.106-.403h1.378v2.983h.706v.515h-2.084v-.515h.738V4.663h-.738v-.517zM22.686 10.29h-1.022v2.794h-.642v-2.794h-1.01v-.522h2.674v.522zm1.581 2.84c-.19 0-.362-.032-.517-.094a1.223 1.223 0 0 1-.399-.254 1.108 1.108 0 0 1-.256-.378c-.06-.145-.09-.3-.09-.465v-.092c0-.188.03-.36.09-.515a1.12 1.12 0 0 1 .626-.664 1.2 1.2 0 0 1 .475-.094c.178 0 .336.03.475.088.14.059.257.14.353.247.097.106.17.234.22.384.05.15.075.315.075.495v.269h-1.671c.012.083.036.16.074.229a.63.63 0 0 0 .34.295.702.702 0 0 0 .244.04.956.956 0 0 0 .362-.071.794.794 0 0 0 .157-.088.612.612 0 0 0 .127-.123l.317.342a.905.905 0 0 1-.154.165 1.044 1.044 0 0 1-.223.144 1.437 1.437 0 0 1-.625.14zm-.075-2.043a.462.462 0 0 0-.352.146.623.623 0 0 0-.113.168.922.922 0 0 0-.068.219h1.038v-.05a.599.599 0 0 0-.038-.19.444.444 0 0 0-.254-.256.561.561 0 0 0-.213-.037zm2.072-.467l.018.298a.616.616 0 0 1 .195-.251.492.492 0 0 1 .302-.093c.199 0 .329.088.39.262a.55.55 0 0 1 .185-.192.509.509 0 0 1 .272-.07c.074 0 .144.014.208.041.065.028.121.071.169.131a.65.65 0 0 1 .111.233c.027.095.04.21.04.347v1.758h-.576v-1.76a.383.383 0 0 0-.015-.116.185.185 0 0 0-.04-.072.135.135 0 0 0-.058-.037.225.225 0 0 0-.178.02.204.204 0 0 0-.07.084v1.881h-.559v-1.763a.412.412 0 0 0-.014-.116.172.172 0 0 0-.037-.07.132.132 0 0 0-.056-.036.222.222 0 0 0-.068-.01.166.166 0 0 0-.117.041.274.274 0 0 0-.07.11v1.844h-.576v-2.464h.544zm4.619 1.255c0 .179-.021.345-.063.498a1.207 1.207 0 0 1-.184.398.88.88 0 0 1-.302.263.865.865 0 0 1-.412.096.834.834 0 0 1-.349-.069.794.794 0 0 1-.262-.191v1.161h-.633v-3.411h.585l.023.241a.804.804 0 0 1 .269-.211.82.82 0 0 1 .362-.076.844.844 0 0 1 .717.345c.082.11.144.243.186.397.042.154.063.324.063.51v.049zm-.634-.048c0-.103-.009-.2-.028-.29a.74.74 0 0 0-.089-.235.455.455 0 0 0-.155-.156.436.436 0 0 0-.229-.057.514.514 0 0 0-.272.065.44.44 0 0 0-.165.183v1.03c.04.077.095.139.165.185.07.047.163.07.277.07.09 0 .166-.02.229-.06a.456.456 0 0 0 .154-.161.781.781 0 0 0 .086-.238c.018-.09.027-.187.027-.288v-.048zm1.35-2.241h1.379v2.983h.706v.515H31.6v-.515h.738v-2.466H31.6v-.517zm4.207 3.498a.56.56 0 0 1-.039-.105c-.01-.04-.02-.081-.027-.125a.83.83 0 0 1-.272.195 1.025 1.025 0 0 1-.4.08c-.126 0-.241-.018-.347-.054a.825.825 0 0 1-.272-.153.695.695 0 0 1-.242-.528c0-.26.097-.46.29-.602.194-.142.483-.213.867-.213h.353v-.146a.358.358 0 0 0-.116-.281c-.077-.07-.189-.104-.335-.104-.129 0-.223.028-.282.083a.29.29 0 0 0-.089.222h-.633c0-.105.023-.204.07-.298a.732.732 0 0 1 .202-.248c.09-.072.198-.128.326-.17.128-.042.275-.063.44-.063.15 0 .288.019.416.055.129.036.24.09.334.162a.744.744 0 0 1 .22.27c.054.108.08.234.08.377v1.056c0 .132.009.242.026.328.016.087.04.161.072.223v.039h-.642zm-.603-.444a.662.662 0 0 0 .44-.165.436.436 0 0 0 .074-.095v-.423h-.323a.975.975 0 0 0-.253.028.482.482 0 0 0-.17.08.318.318 0 0 0-.099.123.38.38 0 0 0-.031.156c0 .085.03.156.09.212.06.056.15.084.272.084zm3.024-2.624v.604h.92v.467h-.92v1.059c0 .09.01.164.03.224.021.06.05.108.088.144a.327.327 0 0 0 .138.076.667.667 0 0 0 .181.023 2.57 2.57 0 0 0 .528-.068l.062.434a.772.772 0 0 1-.155.067c-.059.02-.122.035-.189.047a2.464 2.464 0 0 1-.421.039c-.135 0-.258-.018-.368-.054a.722.722 0 0 1-.282-.166.746.746 0 0 1-.181-.287 1.219 1.219 0 0 1-.064-.418v-1.12h-.563v-.467h.563v-.604h.633zm2.833 3.114c-.19 0-.362-.032-.517-.094a1.223 1.223 0 0 1-.399-.254 1.108 1.108 0 0 1-.256-.378c-.06-.145-.09-.3-.09-.465v-.092c0-.188.03-.36.09-.515a1.12 1.12 0 0 1 .626-.664 1.2 1.2 0 0 1 .475-.094c.178 0 .336.03.475.088.14.059.257.14.353.247.097.106.17.234.22.384.05.15.075.315.075.495v.269h-1.671c.012.083.036.16.074.229a.63.63 0 0 0 .34.295.702.702 0 0 0 .244.04.956.956 0 0 0 .362-.071.794.794 0 0 0 .157-.088.612.612 0 0 0 .127-.123l.317.342a.905.905 0 0 1-.154.165 1.044 1.044 0 0 1-.223.144 1.437 1.437 0 0 1-.625.14zm-.075-2.043a.462.462 0 0 0-.352.146.623.623 0 0 0-.113.168.922.922 0 0 0-.068.219h1.038v-.05a.599.599 0 0 0-.038-.19.444.444 0 0 0-.254-.256.561.561 0 0 0-.213-.037zm3.268 1.32a.19.19 0 0 0-.026-.1.246.246 0 0 0-.094-.08.854.854 0 0 0-.179-.07 3.183 3.183 0 0 0-.282-.064 2.725 2.725 0 0 1-.395-.108 1.245 1.245 0 0 1-.306-.157.713.713 0 0 1-.2-.213.533.533 0 0 1-.071-.278.62.62 0 0 1 .073-.291.74.74 0 0 1 .209-.244c.091-.07.202-.125.333-.166.13-.041.277-.062.441-.062.172 0 .326.02.463.06.136.041.252.096.347.167.095.07.167.154.217.252a.68.68 0 0 1 .076.316h-.634a.3.3 0 0 0-.116-.24c-.077-.065-.195-.097-.353-.097-.147 0-.258.027-.333.08-.075.053-.113.118-.113.196 0 .036.008.07.023.101s.042.06.08.084a.643.643 0 0 0 .159.069c.067.02.152.038.255.053.149.024.287.056.414.094.128.037.238.086.33.146.093.06.166.133.218.219a.576.576 0 0 1 .079.306c0 .11-.027.21-.079.302a.73.73 0 0 1-.223.238 1.13 1.13 0 0 1-.35.156c-.136.037-.289.056-.457.056-.186 0-.35-.024-.491-.073a1.141 1.141 0 0 1-.357-.19.808.808 0 0 1-.217-.267.668.668 0 0 1-.074-.3h.603a.347.347 0 0 0 .178.289c.05.03.107.051.172.065a.96.96 0 0 0 .2.02.693.693 0 0 0 .357-.075c.082-.05.123-.114.123-.193z"/></g></symbol></svg>