<?xml version="1.0" encoding="utf-8"?><!DOCTYPE svg PUBLIC "-//W3C//DTD SVG 1.1//EN" "http://www.w3.org/Graphics/SVG/1.1/DTD/svg11.dtd"><svg xmlns="http://www.w3.org/2000/svg" xmlns:xlink="http://www.w3.org/1999/xlink"><symbol viewBox="0 0 48 48" id="_assets--img--src--unhappy"><path d="M24 47.998C10.767 47.998.001 37.232.001 23.999.001 10.766 10.767 0 24 0c13.233 0 23.999 10.766 23.999 23.999 0 13.233-10.766 23.999-23.999 23.999zM24 2C11.87 2 2.001 11.869 2.001 23.999c0 12.13 9.869 21.999 21.999 21.999 12.13 0 21.999-9.869 21.999-21.999C45.999 11.869 36.13 2 24 2z"/><path d="M15.828 25.343c-2.559 0-4.563-2.938-4.563-6.69s2.004-6.69 4.563-6.69 4.563 2.938 4.563 6.69-2.004 6.69-4.563 6.69zm0-11.38c-1.212 0-2.563 1.926-2.563 4.69s1.351 4.69 2.563 4.69 2.563-1.926 2.563-4.69-1.35-4.69-2.563-4.69zM32.169 25.343c-2.558 0-4.562-2.938-4.562-6.69 0-3.752 2.004-6.691 4.562-6.691 2.559 0 4.563 2.939 4.563 6.691 0 3.751-2.004 6.69-4.563 6.69zm0-11.381c-1.212 0-2.562 1.926-2.562 4.691 0 2.764 1.35 4.69 2.562 4.69 1.213 0 2.563-1.926 2.563-4.69 0-2.765-1.35-4.691-2.563-4.691zM14.057 38.208l-1.673-1.096a13.91 13.91 0 0 1 11.666-6.306c4.638 0 8.959 2.297 11.558 6.144l-1.656 1.119a11.94 11.94 0 0 0-9.901-5.263 11.916 11.916 0 0 0-9.994 5.402zM18.763 12.714c-1.5-2.876-4.412-3.69-4.441-3.698l.509-1.935c.153.04 3.784 1.023 5.706 4.708l-1.774.925zM28.363 12.714l-1.773-.924c1.921-3.684 5.552-4.667 5.706-4.708l.508 1.935c-.029.007-2.941.821-4.441 3.697z"/></symbol></svg>