<?xml version="1.0" encoding="UTF-8"?>
<svg width="64px" height="50px" viewBox="0 0 64 50" version="1.1" xmlns="http://www.w3.org/2000/svg" xmlns:xlink="http://www.w3.org/1999/xlink">
    <!-- Generator: Sketch 43.2 (39069) - http://www.bohemiancoding.com/sketch -->
    <title>code</title>
    <desc>Created with Sketch.</desc>
    <defs></defs>
    <g id="Iconography" stroke="none" stroke-width="1" fill="none" fill-rule="evenodd">
        <g id="code">
            <g id="Group">
                <path d="M11.25,47.75 L8.75,47.75 L8.75,11.25 L2.5,11.25 L2.5,8.75 L61.5,8.75 L61.5,11.25 L11.25,11.25 L11.25,47.75 Z M2.5,4.99981954 L2.5,45.0001805 C2.5,46.3805798 3.61920733,47.5 4.99981954,47.5 L59.0001805,47.5 C60.3805798,47.5 61.5,46.3807927 61.5,45.0001805 L61.5,4.99981954 C61.5,3.61942024 60.3807927,2.5 59.0001805,2.5 L4.99981954,2.5 C3.61942024,2.5 2.5,3.61920733 2.5,4.99981954 Z M0,4.99981954 C0,2.23853606 2.23866775,0 4.99981954,0 L59.0001805,0 C61.7614639,0 64,2.23866775 64,4.99981954 L64,45.0001805 C64,47.7614639 61.7613322,50 59.0001805,50 L4.99981954,50 C2.23853606,50 0,47.7613322 0,45.0001805 L0,4.99981954 Z" id="editor" fill="#AE2BCA" fill-rule="nonzero"></path>
                <path d="M18.583252,18.0783691 L18.4338379,18.1333008 L18.583252,18.1860352 L19.7873535,18.5881348 L19.7873535,19.1835938 L17.8427734,18.3771973 L17.8427734,17.8828125 L19.7873535,17.076416 L19.7873535,17.6696777 L18.583252,18.0783691 Z M21.6308594,16.5402832 L21.6308594,17.1225586 L22.5185547,17.1225586 L22.5185547,17.572998 L21.6308594,17.572998 L21.6308594,18.5947266 C21.6308594,18.6811528 21.640747,18.7532956 21.6605225,18.8111572 C21.680298,18.8690188 21.7084959,18.915161 21.7451172,18.949585 C21.7817385,18.984009 21.8260495,19.0085448 21.8780518,19.0231934 C21.930054,19.0378419 21.9882809,19.045166 22.0527344,19.045166 C22.0996096,19.045166 22.1475828,19.0429688 22.1966553,19.0385742 C22.2457278,19.0341797 22.2926023,19.0286866 22.3372803,19.0220947 C22.3819582,19.0155029 22.4237059,19.008545 22.4625244,19.0012207 C22.501343,18.9938964 22.5346678,18.9865723 22.5625,18.979248 L22.6218262,19.3989258 C22.5793455,19.4238282 22.5295413,19.4454345 22.4724121,19.4637451 C22.4152829,19.4820558 22.3544925,19.4970703 22.2900391,19.5087891 C22.2255856,19.5205079 22.1585697,19.5296631 22.0889893,19.5362549 C22.0194088,19.5428467 21.9509281,19.5461426 21.8835449,19.5461426 C21.7531732,19.5461426 21.6348882,19.5289308 21.5286865,19.4945068 C21.4224848,19.4600828 21.3316654,19.4066166 21.2562256,19.3341064 C21.1807858,19.2615963 21.1225588,19.1693121 21.081543,19.057251 C21.0405271,18.9451899 21.0200195,18.8107918 21.0200195,18.6540527 L21.0200195,17.572998 L20.4772949,17.572998 L20.4772949,17.1225586 L21.0200195,17.1225586 L21.0200195,16.5402832 L21.6308594,16.5402832 Z M24.6960449,19.5 C24.6813964,19.470703 24.6689454,19.4370119 24.6586914,19.3989258 C24.6484374,19.3608397 24.6396485,19.3205569 24.6323242,19.2780762 C24.5986326,19.3146974 24.5598147,19.3491209 24.5158691,19.3813477 C24.4719236,19.4135744 24.423218,19.4417723 24.369751,19.4659424 C24.3162839,19.4901124 24.2573245,19.5091552 24.1928711,19.5230713 C24.1284176,19.5369874 24.0588383,19.5439453 23.9841309,19.5439453 C23.8625482,19.5439453 23.750855,19.5263674 23.6490479,19.4912109 C23.5472407,19.4560545 23.4597172,19.4069827 23.3864746,19.3439941 C23.3132321,19.2810055 23.2561037,19.2059331 23.2150879,19.1187744 C23.1740721,19.0316158 23.1535645,18.9367681 23.1535645,18.8342285 C23.1535645,18.583739 23.2469473,18.3900153 23.4337158,18.2530518 C23.6204843,18.1160882 23.8991681,18.0476074 24.2697754,18.0476074 L24.6103516,18.0476074 L24.6103516,17.9069824 C24.6103516,17.792724 24.5729984,17.7022708 24.498291,17.6356201 C24.4235836,17.5689694 24.3159187,17.5356445 24.175293,17.5356445 C24.0507806,17.5356445 23.9599612,17.5623777 23.902832,17.6158447 C23.8457028,17.6693118 23.8171387,17.7407222 23.8171387,17.8300781 L23.2062988,17.8300781 C23.2062988,17.7290034 23.2286375,17.6330571 23.2733154,17.5422363 C23.3179934,17.4514156 23.3831783,17.3715824 23.4688721,17.3027344 C23.5545659,17.2338864 23.6593011,17.1793215 23.7830811,17.1390381 C23.906861,17.0987547 24.0485832,17.0786133 24.208252,17.0786133 C24.3518074,17.0786133 24.485473,17.0961912 24.6092529,17.1313477 C24.7330328,17.1665041 24.8403316,17.2185055 24.9311523,17.2873535 C25.0219731,17.3562015 25.0930173,17.4429926 25.1442871,17.5477295 C25.1955569,17.6524663 25.2211914,17.773681 25.2211914,17.911377 L25.2211914,18.9309082 C25.2211914,19.0583502 25.229248,19.1638179 25.2453613,19.2473145 C25.2614747,19.330811 25.284912,19.4025876 25.3156738,19.4626465 L25.3156738,19.5 L24.6960449,19.5 Z M24.1137695,19.0715332 C24.1752933,19.0715332 24.2324216,19.0642091 24.2851562,19.0495605 C24.3378909,19.034912 24.3854978,19.0158693 24.4279785,18.9924316 C24.4704592,18.968994 24.5070799,18.9422609 24.5378418,18.9122314 C24.5686037,18.882202 24.5927733,18.8518068 24.6103516,18.8210449 L24.6103516,18.4123535 L24.2983398,18.4123535 C24.2031245,18.4123535 24.1218265,18.4215087 24.0544434,18.4398193 C23.9870602,18.45813 23.9321291,18.4837645 23.8896484,18.5167236 C23.8471678,18.5496828 23.8156739,18.5892332 23.795166,18.635376 C23.7746581,18.6815188 23.7644043,18.7316892 23.7644043,18.7858887 C23.7644043,18.8679203 23.7933347,18.9360349 23.8511963,18.9902344 C23.9090579,19.0444339 23.9965814,19.0715332 24.1137695,19.0715332 Z M28.0534668,18.3354492 C28.0534668,18.5126962 28.0340578,18.6752922 27.9952393,18.8232422 C27.9564207,18.9711921 27.8981937,19.0986323 27.8205566,19.2055664 C27.7429195,19.3125005 27.6462408,19.3956296 27.5305176,19.4549561 C27.4147943,19.5142825 27.2800301,19.5439453 27.1262207,19.5439453 C26.9870599,19.5439453 26.8665777,19.5179446 26.7647705,19.4659424 C26.6629634,19.4139402 26.5754398,19.3410649 26.5021973,19.2473145 L26.4736328,19.5 L25.9243164,19.5 L25.9243164,16.125 L26.5351562,16.125 L26.5351562,17.3378906 C26.6054691,17.255859 26.6885982,17.1921389 26.7845459,17.1467285 C26.8804936,17.1013181 26.9929193,17.0786133 27.1218262,17.0786133 C27.2771004,17.0786133 27.4129633,17.1086423 27.5294189,17.1687012 C27.6458746,17.2287601 27.7429195,17.3122553 27.8205566,17.4191895 C27.8981937,17.5261236 27.9564207,17.6539299 27.9952393,17.8026123 C28.0340578,17.9512947 28.0534668,18.1135245 28.0534668,18.2893066 L28.0534668,18.3354492 Z M27.442627,18.2893066 C27.442627,18.1926265 27.4353028,18.1010747 27.4206543,18.0146484 C27.4060058,17.9282222 27.3807375,17.8524173 27.3448486,17.7872314 C27.3089598,17.7220456 27.2602542,17.6704103 27.1987305,17.6323242 C27.1372067,17.5942381 27.0603032,17.5751953 26.9680176,17.5751953 C26.8566889,17.5751953 26.7662357,17.5986326 26.6966553,17.6455078 C26.6270748,17.692383 26.5732424,17.7568355 26.5351562,17.8388672 L26.5351562,18.7858887 C26.5732424,18.8679203 26.6270748,18.9323728 26.6966553,18.979248 C26.7662357,19.0261233 26.8581537,19.0495605 26.9724121,19.0495605 C27.0646977,19.0495605 27.1408688,19.0316164 27.2009277,18.9957275 C27.2609866,18.9598387 27.3089598,18.9100345 27.3448486,18.8463135 C27.3807375,18.7825925 27.4060058,18.7071538 27.4206543,18.6199951 C27.4353028,18.5328365 27.442627,18.4379888 27.442627,18.3354492 L27.442627,18.2893066 Z M28.7390137,16.125 L30.0683594,16.125 L30.0683594,19.003418 L30.7495117,19.003418 L30.7495117,19.5 L28.7390137,19.5 L28.7390137,19.003418 L29.4509277,19.003418 L29.4509277,16.6237793 L28.7390137,16.6237793 L28.7390137,16.125 Z M32.4655762,19.5439453 C32.2824698,19.5439453 32.1162117,19.5139163 31.9667969,19.4538574 C31.8173821,19.3937985 31.6892095,19.3121343 31.5822754,19.2088623 C31.4753413,19.1055903 31.3929446,18.9840095 31.335083,18.8441162 C31.2772214,18.7042229 31.248291,18.5544442 31.248291,18.3947754 L31.248291,18.3068848 C31.248291,18.1252432 31.2768552,17.9593513 31.3339844,17.8092041 C31.3911136,17.6590569 31.4709468,17.5297857 31.5734863,17.4213867 C31.6760259,17.3129877 31.7976067,17.2287601 31.9382324,17.1687012 C32.0788581,17.1086423 32.2319328,17.0786133 32.3974609,17.0786133 C32.5688485,17.0786133 32.7215569,17.1068112 32.8555908,17.163208 C32.9896247,17.2196048 33.1031489,17.2990718 33.196167,17.4016113 C33.289185,17.5041509 33.359863,17.6275628 33.4082031,17.7718506 C33.4565432,17.9161384 33.4807129,18.0754386 33.4807129,18.2497559 L33.4807129,18.5090332 L31.8679199,18.5090332 C31.8796387,18.5896 31.9034422,18.6632077 31.9393311,18.7298584 C31.9752199,18.7965091 32.0209958,18.8540037 32.0766602,18.9023438 C32.1323245,18.9506838 32.1960446,18.988037 32.2678223,19.0144043 C32.3396,19.0407716 32.4179683,19.0539551 32.5029297,19.0539551 C32.5629886,19.0539551 32.6226804,19.0480958 32.6820068,19.036377 C32.7413333,19.0246581 32.7980954,19.0074464 32.8522949,18.9847412 C32.9064944,18.962036 32.957031,18.9338381 33.0039062,18.9001465 C33.0507815,18.8664549 33.0917967,18.8269045 33.1269531,18.7814941 L33.432373,19.111084 C33.3942869,19.1652835 33.3448489,19.2183835 33.2840576,19.2703857 C33.2232663,19.322388 33.1514897,19.3685301 33.0687256,19.4088135 C32.9859615,19.4490969 32.8940435,19.4816893 32.7929688,19.5065918 C32.691894,19.5314943 32.5827643,19.5439453 32.4655762,19.5439453 Z M32.3930664,17.572998 C32.3242184,17.572998 32.2612308,17.5850829 32.2041016,17.6092529 C32.1469724,17.633423 32.096802,17.6682127 32.0535889,17.713623 C32.0103758,17.7590334 31.9741212,17.8132321 31.9448242,17.8762207 C31.9155272,17.9392093 31.8935548,18.0095211 31.8789062,18.0871582 L32.8808594,18.0871582 L32.8808594,18.0388184 C32.8779297,17.9743649 32.8654786,17.9135745 32.8435059,17.8564453 C32.8215331,17.7993161 32.7900393,17.7498781 32.7490234,17.7081299 C32.7080076,17.6663816 32.6578372,17.633423 32.5985107,17.6092529 C32.5391843,17.5850829 32.4707035,17.572998 32.3930664,17.572998 Z M38.246582,18.8474121 C38.246582,18.8107908 38.2381593,18.7785646 38.2213135,18.7507324 C38.2044677,18.7229003 38.1744387,18.6968995 38.1312256,18.6727295 C38.0880125,18.6485594 38.0305179,18.6262208 37.9587402,18.6057129 C37.8869625,18.585205 37.7961431,18.5646974 37.6862793,18.5441895 C37.5471184,18.5163573 37.4200445,18.4815676 37.3050537,18.4398193 C37.1900629,18.3980711 37.0915531,18.3475345 37.0095215,18.288208 C36.9274898,18.2288815 36.8634036,18.1604008 36.8172607,18.0827637 C36.7711179,18.0051266 36.7480469,17.915772 36.7480469,17.8146973 C36.7480469,17.7165522 36.7714841,17.6228032 36.8183594,17.5334473 C36.8652346,17.4440914 36.9326167,17.365723 37.0205078,17.2983398 C37.1083989,17.2309567 37.2153314,17.1774904 37.3413086,17.1379395 C37.4672858,17.0983885 37.6093742,17.0786133 37.7675781,17.0786133 C37.9331063,17.0786133 38.0817865,17.0980223 38.213623,17.1368408 C38.3454596,17.1756594 38.4571529,17.2291256 38.5487061,17.2972412 C38.6402592,17.3653568 38.7102048,17.4462886 38.7585449,17.5400391 C38.806885,17.6337895 38.8310547,17.7355952 38.8310547,17.845459 L38.2202148,17.845459 C38.2202148,17.7531734 38.1828617,17.6759036 38.1081543,17.6136475 C38.0334469,17.5513913 37.9199226,17.5202637 37.7675781,17.5202637 C37.6254876,17.5202637 37.5181888,17.5458982 37.4456787,17.597168 C37.3731686,17.6484378 37.3369141,17.7114254 37.3369141,17.7861328 C37.3369141,17.8212892 37.3442382,17.8538817 37.3588867,17.8839111 C37.3735352,17.9139406 37.3995359,17.9410399 37.4368896,17.96521 C37.4742434,17.98938 37.5251462,18.0113524 37.5895996,18.0311279 C37.6540531,18.0509034 37.7360835,18.0681152 37.8356934,18.0827637 C37.9792488,18.1062013 38.1125482,18.1362303 38.2355957,18.1728516 C38.3586432,18.2094728 38.4648433,18.2567136 38.5541992,18.3145752 C38.6435551,18.3724368 38.7135007,18.4427486 38.7640381,18.5255127 C38.8145754,18.6082768 38.8398438,18.7067865 38.8398438,18.8210449 C38.8398438,18.9265142 38.8145754,19.0235591 38.7640381,19.1121826 C38.7135007,19.2008061 38.6417241,19.2773434 38.5487061,19.3417969 C38.455688,19.4062503 38.3432624,19.4564207 38.2114258,19.4923096 C38.0795892,19.5281984 37.9323739,19.5461426 37.7697754,19.5461426 C37.5910636,19.5461426 37.4332282,19.5227053 37.2962646,19.4758301 C37.1593011,19.4289548 37.0446782,19.3677982 36.9523926,19.2923584 C36.860107,19.2169186 36.7901614,19.1312261 36.7425537,19.0352783 C36.6949461,18.9393306 36.6711426,18.8430181 36.6711426,18.7463379 L37.253418,18.7463379 C37.2578125,18.8107913 37.2753905,18.8660886 37.3061523,18.9122314 C37.3369142,18.9583743 37.3764646,18.9957274 37.4248047,19.024292 C37.4731448,19.0528566 37.5284421,19.0737304 37.5906982,19.0869141 C37.6529544,19.1000977 37.7170407,19.1066895 37.782959,19.1066895 C37.9338386,19.1066895 38.0488277,19.0825198 38.1279297,19.0341797 C38.2070316,18.9858396 38.246582,18.9235844 38.246582,18.8474121 Z M40.5339355,16.5402832 L40.5339355,17.1225586 L41.4216309,17.1225586 L41.4216309,17.572998 L40.5339355,17.572998 L40.5339355,18.5947266 C40.5339355,18.6811528 40.5438231,18.7532956 40.5635986,18.8111572 C40.5833741,18.8690188 40.6115721,18.915161 40.6481934,18.949585 C40.6848146,18.984009 40.7291257,19.0085448 40.7811279,19.0231934 C40.8331301,19.0378419 40.8913571,19.045166 40.9558105,19.045166 C41.0026858,19.045166 41.0506589,19.0429688 41.0997314,19.0385742 C41.148804,19.0341797 41.1956785,19.0286866 41.2403564,19.0220947 C41.2850344,19.0155029 41.326782,19.008545 41.3656006,19.0012207 C41.4044191,18.9938964 41.437744,18.9865723 41.4655762,18.979248 L41.5249023,19.3989258 C41.4824217,19.4238282 41.4326175,19.4454345 41.3754883,19.4637451 C41.3183591,19.4820558 41.2575687,19.4970703 41.1931152,19.5087891 C41.1286618,19.5205079 41.0616459,19.5296631 40.9920654,19.5362549 C40.922485,19.5428467 40.8540042,19.5461426 40.7866211,19.5461426 C40.6562493,19.5461426 40.5379644,19.5289308 40.4317627,19.4945068 C40.325561,19.4600828 40.2347416,19.4066166 40.1593018,19.3341064 C40.0838619,19.2615963 40.025635,19.1693121 39.9846191,19.057251 C39.9436033,18.9451899 39.9230957,18.8107918 39.9230957,18.6540527 L39.9230957,17.572998 L39.3803711,17.572998 L39.3803711,17.1225586 L39.9230957,17.1225586 L39.9230957,16.5402832 L40.5339355,16.5402832 Z M43.126709,18.5024414 L43.1970215,18.7573242 L43.829834,17.1225586 L44.5043945,17.1225586 L43.2980957,19.855957 C43.2717284,19.9160159 43.2376711,19.9812008 43.1959229,20.0515137 C43.1541746,20.1218265 43.101807,20.1870114 43.0388184,20.2470703 C42.9758298,20.3071292 42.8992924,20.3576658 42.8092041,20.3986816 C42.7191158,20.4396975 42.6125494,20.4602051 42.489502,20.4602051 C42.4602049,20.4602051 42.4331056,20.4591065 42.4082031,20.4569092 C42.3833007,20.4547119 42.359131,20.4517822 42.3356934,20.4481201 C42.3122557,20.444458 42.2891847,20.4400635 42.2664795,20.4349365 C42.2437743,20.4298095 42.2192384,20.423584 42.1928711,20.4162598 L42.2675781,19.9504395 C42.2924806,19.9504395 42.3243406,19.9515381 42.3631592,19.9537354 C42.4019777,19.9559326 42.4331054,19.9570312 42.456543,19.9570312 C42.5048831,19.9570312 42.5477293,19.942383 42.585083,19.9130859 C42.6224367,19.8837889 42.6542967,19.8515627 42.6806641,19.8164062 C42.7070314,19.7812498 42.7282714,19.7490236 42.7443848,19.7197266 C42.7604981,19.6904295 42.7714843,19.6757812 42.7773438,19.6757812 L42.9245605,19.3989258 L41.9182129,17.1225586 L42.5861816,17.1225586 L43.126709,18.5024414 Z M44.9416504,16.125 L46.2709961,16.125 L46.2709961,19.003418 L46.9521484,19.003418 L46.9521484,19.5 L44.9416504,19.5 L44.9416504,19.003418 L45.6535645,19.003418 L45.6535645,16.6237793 L44.9416504,16.6237793 L44.9416504,16.125 Z M48.6682129,19.5439453 C48.4851065,19.5439453 48.3188484,19.5139163 48.1694336,19.4538574 C48.0200188,19.3937985 47.8918462,19.3121343 47.7849121,19.2088623 C47.677978,19.1055903 47.5955813,18.9840095 47.5377197,18.8441162 C47.4798581,18.7042229 47.4509277,18.5544442 47.4509277,18.3947754 L47.4509277,18.3068848 C47.4509277,18.1252432 47.4794919,17.9593513 47.5366211,17.8092041 C47.5937503,17.6590569 47.6735835,17.5297857 47.776123,17.4213867 C47.8786626,17.3129877 48.0002434,17.2287601 48.1408691,17.1687012 C48.2814948,17.1086423 48.4345695,17.0786133 48.6000977,17.0786133 C48.7714852,17.0786133 48.9241937,17.1068112 49.0582275,17.163208 C49.1922614,17.2196048 49.3057857,17.2990718 49.3988037,17.4016113 C49.4918218,17.5041509 49.5624998,17.6275628 49.6108398,17.7718506 C49.6591799,17.9161384 49.6833496,18.0754386 49.6833496,18.2497559 L49.6833496,18.5090332 L48.0705566,18.5090332 C48.0822754,18.5896 48.1060789,18.6632077 48.1419678,18.7298584 C48.1778566,18.7965091 48.2236325,18.8540037 48.2792969,18.9023438 C48.3349612,18.9506838 48.3986813,18.988037 48.470459,19.0144043 C48.5422367,19.0407716 48.620605,19.0539551 48.7055664,19.0539551 C48.7656253,19.0539551 48.8253171,19.0480958 48.8846436,19.036377 C48.94397,19.0246581 49.0007322,19.0074464 49.0549316,18.9847412 C49.1091311,18.962036 49.1596677,18.9338381 49.206543,18.9001465 C49.2534182,18.8664549 49.2944334,18.8269045 49.3295898,18.7814941 L49.6350098,19.111084 C49.5969236,19.1652835 49.5474857,19.2183835 49.4866943,19.2703857 C49.425903,19.322388 49.3541264,19.3685301 49.2713623,19.4088135 C49.1885982,19.4490969 49.0966802,19.4816893 48.9956055,19.5065918 C48.8945307,19.5314943 48.785401,19.5439453 48.6682129,19.5439453 Z M48.5957031,17.572998 C48.5268551,17.572998 48.4638675,17.5850829 48.4067383,17.6092529 C48.3496091,17.633423 48.2994387,17.6682127 48.2562256,17.713623 C48.2130125,17.7590334 48.176758,17.8132321 48.1474609,17.8762207 C48.1181639,17.9392093 48.0961915,18.0095211 48.081543,18.0871582 L49.0834961,18.0871582 L49.0834961,18.0388184 C49.0805664,17.9743649 49.0681153,17.9135745 49.0461426,17.8564453 C49.0241698,17.7993161 48.992676,17.7498781 48.9516602,17.7081299 C48.9106443,17.6663816 48.8604739,17.633423 48.8011475,17.6092529 C48.741821,17.5850829 48.6733402,17.572998 48.5957031,17.572998 Z M52.3310547,17.9245605 L50.2524414,17.9245605 L50.2524414,17.423584 L52.3310547,17.423584 L52.3310547,17.9245605 Z M52.3310547,18.871582 L50.2524414,18.871582 L50.2524414,18.3728027 L52.3310547,18.3728027 L52.3310547,18.871582 Z M18.2163086,22.1396484 C18.2163086,22.064941 18.2265624,21.9876713 18.2470703,21.9078369 C18.2675782,21.8280025 18.2961424,21.7500004 18.3327637,21.6738281 C18.3693849,21.5976559 18.411865,21.5258792 18.4602051,21.4584961 C18.5085452,21.3911129 18.561279,21.3317874 18.6184082,21.2805176 L18.8996582,21.4541016 C18.8439939,21.5493169 18.7978517,21.6514887 18.7612305,21.7606201 C18.7246092,21.8697515 18.7062988,21.9953606 18.7062988,22.1374512 L18.7062988,22.5263672 L18.2163086,22.5263672 L18.2163086,22.1396484 Z M18.9655762,22.1396484 C18.9655762,22.064941 18.97583,21.9876713 18.9963379,21.9078369 C19.0168458,21.8280025 19.04541,21.7500004 19.0820312,21.6738281 C19.1186525,21.5976559 19.1611326,21.5258792 19.2094727,21.4584961 C19.2578127,21.3911129 19.3105466,21.3317874 19.3676758,21.2805176 L19.6489258,21.4541016 C19.5932614,21.5493169 19.5471193,21.6514887 19.510498,21.7606201 C19.4738768,21.8697515 19.4555664,21.9953606 19.4555664,22.1374512 L19.4555664,22.5263672 L18.9655762,22.5263672 L18.9655762,22.1396484 Z M22.0307617,24.005127 L22.2373047,22.3725586 L22.7976074,22.3725586 L22.3713379,24.75 L21.8352051,24.75 L21.5231934,23.2382812 L21.222168,24.75 L20.6860352,24.75 L20.2597656,22.3725586 L20.8178711,22.3725586 L21.0244141,24.0117188 L21.3232422,22.3725586 L21.7319336,22.3725586 L22.0307617,24.005127 Z M23.373291,22.3725586 L24.6674805,22.3725586 L24.6674805,24.253418 L25.3112793,24.253418 L25.3112793,24.75 L23.373291,24.75 L23.373291,24.253418 L24.0500488,24.253418 L24.0500488,22.8713379 L23.373291,22.8713379 L23.373291,22.3725586 Z M24.0061035,21.763916 C24.0061035,21.7170408 24.0145263,21.6734621 24.0313721,21.6331787 C24.0482179,21.5928953 24.0720213,21.5584718 24.1027832,21.5299072 C24.1335451,21.5013426 24.170532,21.479004 24.2137451,21.4628906 C24.2569582,21.4467773 24.3049314,21.4387207 24.357666,21.4387207 C24.466065,21.4387207 24.5521237,21.4691159 24.6158447,21.5299072 C24.6795657,21.5906985 24.7114258,21.6687007 24.7114258,21.763916 C24.7114258,21.8591313 24.6795657,21.9371335 24.6158447,21.9979248 C24.5521237,22.0587161 24.466065,22.0891113 24.357666,22.0891113 C24.3049314,22.0891113 24.2569582,22.0810548 24.2137451,22.0649414 C24.170532,22.048828 24.1335451,22.0264894 24.1027832,21.9979248 C24.0720213,21.9693602 24.0482179,21.9349367 24.0313721,21.8946533 C24.0145263,21.8543699 24.0061035,21.8107913 24.0061035,21.763916 Z M25.8474121,23.5437012 C25.8474121,23.3635245 25.8682859,23.1987312 25.9100342,23.0493164 C25.9517824,22.8999016 26.0129391,22.7717291 26.0935059,22.6647949 C26.1740727,22.5578608 26.27185,22.4750979 26.3868408,22.4165039 C26.5018316,22.3579099 26.6333,22.3286133 26.78125,22.3286133 C26.9057623,22.3286133 27.0152583,22.3509519 27.1097412,22.3956299 C27.2042241,22.4403078 27.2880856,22.5036617 27.3613281,22.5856934 L27.3613281,21.375 L27.9743652,21.375 L27.9743652,24.75 L27.4228516,24.75 L27.3920898,24.501709 C27.3173824,24.5939946 27.2294927,24.6657712 27.128418,24.717041 C27.0273432,24.7683108 26.9101569,24.7939453 26.7768555,24.7939453 C26.6318352,24.7939453 26.5018316,24.7635501 26.3868408,24.7027588 C26.27185,24.6419675 26.1744389,24.558106 26.0946045,24.4511719 C26.0147701,24.3442377 25.9536135,24.2171638 25.9111328,24.0699463 C25.8686521,23.9227288 25.8474121,23.7626962 25.8474121,23.5898438 L25.8474121,23.5437012 Z M26.458252,23.5898438 C26.458252,23.6894536 26.4666747,23.7821041 26.4835205,23.8677979 C26.5003663,23.9534916 26.5278318,24.0281979 26.565918,24.0919189 C26.6040041,24.15564 26.6530759,24.2058104 26.7131348,24.2424316 C26.7731937,24.2790529 26.8464351,24.2973633 26.9328613,24.2973633 C27.0383306,24.2973633 27.1258541,24.2746584 27.1954346,24.229248 C27.265015,24.1838377 27.3203123,24.1215824 27.3613281,24.0424805 L27.3613281,23.0800781 C27.3203123,22.9995113 27.2653812,22.9368899 27.1965332,22.8922119 C27.1276852,22.847534 27.0412603,22.8251953 26.9372559,22.8251953 C26.8508296,22.8251953 26.777222,22.8438719 26.7164307,22.8812256 C26.6556393,22.9185793 26.6062014,22.9698483 26.5681152,23.0350342 C26.5300291,23.1002201 26.5021974,23.1763912 26.4846191,23.2635498 C26.4670409,23.3507084 26.458252,23.4440913 26.458252,23.5437012 L26.458252,23.5898438 Z M29.7321777,21.7902832 L29.7321777,22.3725586 L30.619873,22.3725586 L30.619873,22.822998 L29.7321777,22.822998 L29.7321777,23.8447266 C29.7321777,23.9311528 29.7420653,24.0032956 29.7618408,24.0611572 C29.7816163,24.1190188 29.8098143,24.165161 29.8464355,24.199585 C29.8830568,24.234009 29.9273679,24.2585448 29.9793701,24.2731934 C30.0313723,24.2878419 30.0895993,24.295166 30.1540527,24.295166 C30.200928,24.295166 30.2489011,24.2929688 30.2979736,24.2885742 C30.3470461,24.2841797 30.3939207,24.2786866 30.4385986,24.2720947 C30.4832766,24.2655029 30.5250242,24.258545 30.5638428,24.2512207 C30.6026613,24.2438964 30.6359862,24.2365723 30.6638184,24.229248 L30.7231445,24.6489258 C30.6806639,24.6738282 30.6308597,24.6954345 30.5737305,24.7137451 C30.5166013,24.7320558 30.4558109,24.7470703 30.3913574,24.7587891 C30.326904,24.7705079 30.259888,24.7796631 30.1903076,24.7862549 C30.1207272,24.7928467 30.0522464,24.7961426 29.9848633,24.7961426 C29.8544915,24.7961426 29.7362066,24.7789308 29.6300049,24.7445068 C29.5238032,24.7100828 29.4329838,24.6566166 29.3575439,24.5841064 C29.2821041,24.5115963 29.2238772,24.4193121 29.1828613,24.307251 C29.1418455,24.1951899 29.1213379,24.0607918 29.1213379,23.9040527 L29.1213379,22.822998 L28.5786133,22.822998 L28.5786133,22.3725586 L29.1213379,22.3725586 L29.1213379,21.7902832 L29.7321777,21.7902832 Z M31.9228516,22.6999512 C32.0019535,22.5842279 32.098266,22.4934085 32.211792,22.4274902 C32.325318,22.3615719 32.4523919,22.3286133 32.5930176,22.3286133 C32.7175299,22.3286133 32.8317866,22.3472899 32.935791,22.3846436 C33.0397954,22.4219973 33.12915,22.4802242 33.2038574,22.5593262 C33.2785648,22.6384281 33.3367918,22.7398675 33.37854,22.8636475 C33.4202883,22.9874274 33.4411621,23.1364737 33.4411621,23.310791 L33.4411621,24.75 L32.8303223,24.75 L32.8303223,23.3063965 C32.8303223,23.2214351 32.8197023,23.1481937 32.7984619,23.0866699 C32.7772216,23.0251462 32.7468264,22.975342 32.7072754,22.9372559 C32.6677244,22.8991697 32.6201175,22.8709718 32.5644531,22.8526611 C32.5087888,22.8343505 32.4458011,22.8251953 32.3754883,22.8251953 C32.2729487,22.8251953 32.1839603,22.8435057 32.1085205,22.880127 C32.0330807,22.9167482 31.9711916,22.9680172 31.9228516,23.0339355 L31.9228516,24.75 L31.3120117,24.75 L31.3120117,21.375 L31.9228516,21.375 L31.9228516,22.6999512 Z M34.6606445,24.3962402 C34.6606445,24.339111 34.6701659,24.286011 34.689209,24.2369385 C34.708252,24.187866 34.7360838,24.1453859 34.7727051,24.1094971 C34.8093264,24.0736082 34.8540036,24.0450441 34.9067383,24.0238037 C34.9594729,24.0025634 35.0187985,23.9919434 35.0847168,23.9919434 C35.1506351,23.9919434 35.2099607,24.0025634 35.2626953,24.0238037 C35.31543,24.0450441 35.359741,24.0736082 35.3956299,24.1094971 C35.4315187,24.1453859 35.4593505,24.187866 35.479126,24.2369385 C35.4989015,24.286011 35.5087891,24.339111 35.5087891,24.3962402 C35.5087891,24.4519046 35.4989015,24.503906 35.479126,24.5522461 C35.4593505,24.6005862 35.4315187,24.6427 35.3956299,24.6785889 C35.359741,24.7144777 35.31543,24.7426757 35.2626953,24.7631836 C35.2099607,24.7836915 35.1506351,24.7939453 35.0847168,24.7939453 C35.0187985,24.7939453 34.9594729,24.7836915 34.9067383,24.7631836 C34.8540036,24.7426757 34.8093264,24.7144777 34.7727051,24.6785889 C34.7360838,24.6427 34.708252,24.6005862 34.689209,24.5522461 C34.6701659,24.503906 34.6606445,24.4519046 34.6606445,24.3962402 Z M34.6606445,22.5812988 C34.6606445,22.5241696 34.6701659,22.4710696 34.689209,22.4219971 C34.708252,22.3729246 34.7360838,22.3304445 34.7727051,22.2945557 C34.8093264,22.2586668 34.8540036,22.2301026 34.9067383,22.2088623 C34.9594729,22.187622 35.0187985,22.177002 35.0847168,22.177002 C35.1506351,22.177002 35.2099607,22.187622 35.2626953,22.2088623 C35.31543,22.2301026 35.359741,22.2586668 35.3956299,22.2945557 C35.4315187,22.3304445 35.4593505,22.3729246 35.479126,22.4219971 C35.4989015,22.4710696 35.5087891,22.5241696 35.5087891,22.5812988 C35.5087891,22.6369632 35.4989015,22.6889646 35.479126,22.7373047 C35.4593505,22.7856448 35.4315187,22.8277586 35.3956299,22.8636475 C35.359741,22.8995363 35.31543,22.9277343 35.2626953,22.9482422 C35.2099607,22.9687501 35.1506351,22.9790039 35.0847168,22.9790039 C35.0187985,22.9790039 34.9594729,22.9687501 34.9067383,22.9482422 C34.8540036,22.9277343 34.8093264,22.8995363 34.7727051,22.8636475 C34.7360838,22.8277586 34.708252,22.7856448 34.689209,22.7373047 C34.6701659,22.6889646 34.6606445,22.6369632 34.6606445,22.5812988 Z M41.0349121,21.5244141 L41.0349121,22.0319824 L40.9997559,22.0319824 C40.8386222,22.0319824 40.6961676,22.0532224 40.5723877,22.0957031 C40.4486078,22.1381838 40.3431401,22.1982418 40.2559814,22.2758789 C40.1688228,22.353516 40.0999758,22.4465327 40.0494385,22.5549316 C39.9989011,22.6633306 39.9670411,22.784179 39.9538574,22.9174805 C39.987549,22.8808592 40.026367,22.8446047 40.0703125,22.8087158 C40.114258,22.772827 40.163696,22.7406007 40.2186279,22.7120361 C40.2735598,22.6834715 40.3332516,22.6604005 40.3977051,22.6428223 C40.4621585,22.6252441 40.5317379,22.6164551 40.6064453,22.6164551 C40.7587898,22.6164551 40.8917231,22.6453855 41.005249,22.7032471 C41.118775,22.7611087 41.2136227,22.839477 41.2897949,22.9383545 C41.3659672,23.0372319 41.4227293,23.152221 41.460083,23.2833252 C41.4974367,23.4144294 41.5161133,23.5524895 41.5161133,23.6975098 C41.5161133,23.852784 41.4912112,23.9970696 41.4414062,24.1303711 C41.3916013,24.2636725 41.3205571,24.379394 41.2282715,24.4775391 C41.1359859,24.5756841 41.0239264,24.6529538 40.8920898,24.7093506 C40.7602532,24.7657474 40.6123055,24.7939453 40.4482422,24.7939453 C40.2768546,24.7939453 40.1223151,24.7620853 39.9846191,24.6983643 C39.8469231,24.6346432 39.730103,24.5463873 39.6341553,24.4335938 C39.5382075,24.3208002 39.4642337,24.1871346 39.4122314,24.0325928 C39.3602292,23.878051 39.3342285,23.7092294 39.3342285,23.526123 L39.3342285,23.2910156 C39.3342285,23.0375964 39.368652,22.8028575 39.4375,22.586792 C39.506348,22.3707265 39.608886,22.1839607 39.7451172,22.0264893 C39.8813483,21.8690178 40.0505361,21.7459721 40.2526855,21.6573486 C40.454835,21.5687251 40.6884752,21.5244141 40.9536133,21.5244141 L41.0349121,21.5244141 Z M40.4284668,23.1064453 C40.318603,23.1064453 40.221558,23.1357419 40.1373291,23.1943359 C40.0531002,23.25293 39.9897463,23.3283687 39.9472656,23.4206543 L39.9472656,23.6008301 C39.9472656,23.7180182 39.9593505,23.8205562 39.9835205,23.9084473 C40.0076906,23.9963383 40.0417478,24.0692136 40.0856934,24.1270752 C40.1296389,24.1849368 40.1816403,24.2285155 40.2416992,24.2578125 C40.3017581,24.2871095 40.366943,24.3017578 40.4372559,24.3017578 C40.5090336,24.3017578 40.5742185,24.2867433 40.6328125,24.2567139 C40.6914065,24.2266844 40.7412107,24.185303 40.7822266,24.1325684 C40.8232424,24.0798337 40.8547362,24.0172123 40.876709,23.9447021 C40.8986818,23.872192 40.909668,23.792725 40.909668,23.7062988 C40.909668,23.6198726 40.8986818,23.5400394 40.876709,23.4667969 C40.8547362,23.3935543 40.8232424,23.3302005 40.7822266,23.2767334 C40.7412107,23.2232663 40.6910403,23.1815187 40.6317139,23.1514893 C40.5723874,23.1214598 40.5046391,23.1064453 40.4284668,23.1064453 Z M44.1967773,23.5327148 C44.1967773,23.7392588 44.1729739,23.9212639 44.1253662,24.0787354 C44.0777586,24.2362068 44.0092778,24.3680415 43.9199219,24.4742432 C43.830566,24.5804449 43.7214362,24.6606443 43.5925293,24.7148438 C43.4636224,24.7690432 43.3186043,24.7961426 43.1574707,24.7961426 C42.9978019,24.7961426 42.8535163,24.7690432 42.7246094,24.7148438 C42.5957025,24.6606443 42.4862065,24.5804449 42.3961182,24.4742432 C42.3060298,24.3680415 42.2364504,24.2362068 42.1873779,24.0787354 C42.1383054,23.9212639 42.1137695,23.7392588 42.1137695,23.5327148 L42.1137695,22.7680664 C42.1137695,22.5615224 42.1379392,22.3795174 42.1862793,22.2220459 C42.2346194,22.0645744 42.3038326,21.9327398 42.3939209,21.8265381 C42.4840092,21.7203364 42.593139,21.640137 42.7213135,21.5859375 C42.8494879,21.531738 42.9934074,21.5046387 43.1530762,21.5046387 C43.3142098,21.5046387 43.4592279,21.531738 43.5881348,21.5859375 C43.7170417,21.640137 43.8265376,21.7203364 43.916626,21.8265381 C44.0067143,21.9327398 44.0759275,22.0645744 44.1242676,22.2220459 C44.1726077,22.3795174 44.1967773,22.5615224 44.1967773,22.7680664 L44.1967773,23.5327148 Z M42.7290039,23.269043 L43.581543,22.6340332 C43.5771484,22.4187001 43.5397953,22.2590337 43.4694824,22.1550293 C43.3991696,22.0510249 43.2937019,21.9990234 43.1530762,21.9990234 C43.0109856,21.9990234 42.9047855,22.0539545 42.8344727,22.1638184 C42.7641598,22.2736822 42.7290039,22.44287 42.7290039,22.6713867 L42.7290039,23.269043 Z M43.581543,23.0493164 L42.7290039,23.6821289 C42.7363282,23.8930675 42.7751461,24.049438 42.845459,24.1512451 C42.9157718,24.2530523 43.0197747,24.3039551 43.1574707,24.3039551 C43.3010261,24.3039551 43.4075924,24.2482916 43.4771729,24.1369629 C43.5467533,24.0256342 43.581543,23.8549816 43.581543,23.625 L43.581543,23.0493164 Z M46.8972168,23.5327148 C46.8972168,23.7392588 46.8734133,23.9212639 46.8258057,24.0787354 C46.778198,24.2362068 46.7097172,24.3680415 46.6203613,24.4742432 C46.5310054,24.5804449 46.4218756,24.6606443 46.2929688,24.7148438 C46.1640619,24.7690432 46.0190438,24.7961426 45.8579102,24.7961426 C45.6982414,24.7961426 45.5539557,24.7690432 45.4250488,24.7148438 C45.2961419,24.6606443 45.186646,24.5804449 45.0965576,24.4742432 C45.0064693,24.3680415 44.9368899,24.2362068 44.8878174,24.0787354 C44.8387449,23.9212639 44.814209,23.7392588 44.814209,23.5327148 L44.814209,22.7680664 C44.814209,22.5615224 44.8383787,22.3795174 44.8867188,22.2220459 C44.9350588,22.0645744 45.004272,21.9327398 45.0943604,21.8265381 C45.1844487,21.7203364 45.2935785,21.640137 45.4217529,21.5859375 C45.5499274,21.531738 45.6938469,21.5046387 45.8535156,21.5046387 C46.0146492,21.5046387 46.1596673,21.531738 46.2885742,21.5859375 C46.4174811,21.640137 46.5269771,21.7203364 46.6170654,21.8265381 C46.7071538,21.9327398 46.7763669,22.0645744 46.824707,22.2220459 C46.8730471,22.3795174 46.8972168,22.5615224 46.8972168,22.7680664 L46.8972168,23.5327148 Z M45.4294434,23.269043 L46.2819824,22.6340332 C46.2775879,22.4187001 46.2402347,22.2590337 46.1699219,22.1550293 C46.099609,22.0510249 45.9941413,21.9990234 45.8535156,21.9990234 C45.7114251,21.9990234 45.605225,22.0539545 45.5349121,22.1638184 C45.4645993,22.2736822 45.4294434,22.44287 45.4294434,22.6713867 L45.4294434,23.269043 Z M46.2819824,23.0493164 L45.4294434,23.6821289 C45.4367676,23.8930675 45.4755856,24.049438 45.5458984,24.1512451 C45.6162113,24.2530523 45.7202142,24.3039551 45.8579102,24.3039551 C46.0014656,24.3039551 46.1080319,24.2482916 46.1776123,24.1369629 C46.2471927,24.0256342 46.2819824,23.8549816 46.2819824,23.625 L46.2819824,23.0493164 Z M49.6503906,23.583252 C49.6503906,23.7561044 49.6302492,23.9165032 49.5899658,24.0644531 C49.5496824,24.2124031 49.4903568,24.3402094 49.4119873,24.447876 C49.3336178,24.5555425 49.2365728,24.6401364 49.1208496,24.7016602 C49.0051264,24.7631839 48.8725593,24.7939453 48.7231445,24.7939453 C48.5957025,24.7939453 48.4836431,24.7719729 48.3869629,24.7280273 C48.2902827,24.6840818 48.206055,24.622559 48.1342773,24.543457 L48.1342773,25.6640625 L47.5234375,25.6640625 L47.5234375,22.3725586 L48.0881348,22.3725586 L48.1101074,22.6054688 C48.18335,22.5175777 48.2697749,22.4494631 48.3693848,22.401123 C48.4689946,22.352783 48.5854486,22.3286133 48.71875,22.3286133 C48.8696297,22.3286133 49.0029291,22.3575437 49.1186523,22.4154053 C49.2343756,22.4732669 49.3317867,22.5552973 49.4108887,22.661499 C49.4899906,22.7677007 49.5496824,22.8951409 49.5899658,23.0438232 C49.6302492,23.1925056 49.6503906,23.3569327 49.6503906,23.5371094 L49.6503906,23.583252 Z M49.0395508,23.5371094 C49.0395508,23.4374995 49.0303956,23.3441166 49.012085,23.256958 C48.9937743,23.1697994 48.9652102,23.0943607 48.9263916,23.0306396 C48.887573,22.9669186 48.8377689,22.9167482 48.7769775,22.880127 C48.7161862,22.8435057 48.6425786,22.8251953 48.5561523,22.8251953 C48.4492182,22.8251953 48.3616947,22.8460691 48.2935791,22.8878174 C48.2254635,22.9295656 48.1723635,22.988525 48.1342773,23.0646973 L48.1342773,24.0578613 C48.1723635,24.1325687 48.2254635,24.1922605 48.2935791,24.2369385 C48.3616947,24.2816164 48.450683,24.3039551 48.5605469,24.3039551 C48.6469731,24.3039551 48.7205808,24.2849123 48.7813721,24.2468262 C48.8421634,24.20874 48.8916014,24.1567386 48.9296875,24.0908203 C48.9677736,24.024902 48.9956054,23.9483647 49.0131836,23.8612061 C49.0307618,23.7740474 49.0395508,23.681397 49.0395508,23.583252 L49.0395508,23.5371094 Z M51.3027344,23.1152344 L51.8256836,22.3725586 L52.482666,22.3725586 L51.6850586,23.5393066 L52.5112305,24.75 L51.8520508,24.75 L51.3049316,23.972168 L50.762207,24.75 L50.1008301,24.75 L50.927002,23.5393066 L50.1315918,22.3725586 L50.7885742,22.3725586 L51.3027344,23.1152344 Z M52.8276367,24.3984375 C52.8276367,24.3413083 52.8371581,24.2882083 52.8562012,24.2391357 C52.8752442,24.1900632 52.903076,24.1475832 52.9396973,24.1116943 C52.9763185,24.0758055 53.0209958,24.0472413 53.0737305,24.026001 C53.1264651,24.0047606 53.1857907,23.9941406 53.251709,23.9941406 C53.3176273,23.9941406 53.3769529,24.0047606 53.4296875,24.026001 C53.4824221,24.0472413 53.5267332,24.0758055 53.5626221,24.1116943 C53.5985109,24.1475832 53.6263427,24.1900632 53.6461182,24.2391357 C53.6658937,24.2882083 53.6757812,24.3413083 53.6757812,24.3984375 C53.6757812,24.4541018 53.6658937,24.5061033 53.6461182,24.5544434 C53.6263427,24.6027834 53.5985109,24.6448973 53.5626221,24.6807861 C53.5267332,24.716675 53.4824221,24.7448729 53.4296875,24.7653809 C53.3769529,24.7858888 53.3176273,24.7961426 53.251709,24.7961426 C53.1857907,24.7961426 53.1264651,24.7858888 53.0737305,24.7653809 C53.0209958,24.7448729 52.9763185,24.716675 52.9396973,24.6807861 C52.903076,24.6448973 52.8752442,24.6027834 52.8562012,24.5544434 C52.8371581,24.5061033 52.8276367,24.4541018 52.8276367,24.3984375 Z M53.6999512,24.3984375 C53.6999512,24.3413083 53.7094726,24.2882083 53.7285156,24.2391357 C53.7475587,24.1900632 53.7753904,24.1475832 53.8120117,24.1116943 C53.848633,24.0758055 53.8933103,24.0472413 53.9460449,24.026001 C53.9987796,24.0047606 54.0581051,23.9941406 54.1240234,23.9941406 C54.1899417,23.9941406 54.2492673,24.0047606 54.302002,24.026001 C54.3547366,24.0472413 54.3990477,24.0758055 54.4349365,24.1116943 C54.4708254,24.1475832 54.4986571,24.1900632 54.5184326,24.2391357 C54.5382081,24.2882083 54.5480957,24.3413083 54.5480957,24.3984375 C54.5480957,24.4541018 54.5382081,24.5061033 54.5184326,24.5544434 C54.4986571,24.6027834 54.4708254,24.6448973 54.4349365,24.6807861 C54.3990477,24.716675 54.3547366,24.7448729 54.302002,24.7653809 C54.2492673,24.7858888 54.1899417,24.7961426 54.1240234,24.7961426 C54.0581051,24.7961426 53.9987796,24.7858888 53.9460449,24.7653809 C53.8933103,24.7448729 53.848633,24.716675 53.8120117,24.6807861 C53.7753904,24.6448973 53.7475587,24.6027834 53.7285156,24.5544434 C53.7094726,24.5061033 53.6999512,24.4541018 53.6999512,24.3984375 Z M54.5722656,24.3984375 C54.5722656,24.3413083 54.581787,24.2882083 54.6008301,24.2391357 C54.6198731,24.1900632 54.6477049,24.1475832 54.6843262,24.1116943 C54.7209474,24.0758055 54.7656247,24.0472413 54.8183594,24.026001 C54.871094,24.0047606 54.9304196,23.9941406 54.9963379,23.9941406 C55.0622562,23.9941406 55.1215818,24.0047606 55.1743164,24.026001 C55.227051,24.0472413 55.2713621,24.0758055 55.307251,24.1116943 C55.3431398,24.1475832 55.3709716,24.1900632 55.3907471,24.2391357 C55.4105226,24.2882083 55.4204102,24.3413083 55.4204102,24.3984375 C55.4204102,24.4541018 55.4105226,24.5061033 55.3907471,24.5544434 C55.3709716,24.6027834 55.3431398,24.6448973 55.307251,24.6807861 C55.2713621,24.716675 55.227051,24.7448729 55.1743164,24.7653809 C55.1215818,24.7858888 55.0622562,24.7961426 54.9963379,24.7961426 C54.9304196,24.7961426 54.871094,24.7858888 54.8183594,24.7653809 C54.7656247,24.7448729 54.7209474,24.716675 54.6843262,24.6807861 C54.6477049,24.6448973 54.6198731,24.6027834 54.6008301,24.5544434 C54.581787,24.5061033 54.5722656,24.4541018 54.5722656,24.3984375 Z" id="code" fill="#E92D79"></path>
                <rect id="line" fill="#E92D79" x="17.5" y="28.75" width="37.75" height="2.5"></rect>
                <rect id="line" fill="#E92D79" x="17.5" y="33.75" width="25.25" height="2.5"></rect>
                <rect id="line" fill="#E92D79" x="17.5" y="38.75" width="12.75" height="2.5"></rect>
            </g>
        </g>
    </g>
</svg>