<?xml version="1.0" encoding="UTF-8"?>
<svg width="64px" height="50px" viewBox="0 0 64 50" version="1.1" xmlns="http://www.w3.org/2000/svg" xmlns:xlink="http://www.w3.org/1999/xlink">
    <!-- Generator: Sketch 43.2 (39069) - http://www.bohemiancoding.com/sketch -->
    <title>responsive</title>
    <desc>Created with Sketch.</desc>
    <defs></defs>
    <g id="Iconography" stroke="none" stroke-width="1" fill="none" fill-rule="evenodd">
        <g id="responsive">
            <g id="Group">
                <g id="desktop-content" transform="translate(14.933333, 11.043137)" fill="#E92D79">
                    <rect id="line" x="0" y="0" width="37.8980392" height="2.50980392"></rect>
                    <rect id="line-copy" x="0" y="5.01960784" width="37.8980392" height="2.50980392"></rect>
                    <rect id="line-copy-2" x="0" y="10.0392157" width="37.8980392" height="2.50980392"></rect>
                    <rect id="line-copy-3" x="11.4196078" y="15.0588235" width="15.0588235" height="5.01960784"></rect>
                </g>
                <path d="M61.4901961,40.1568627 L64,40.1568627 L64,45.1764706 C64,47.9483085 61.7519045,50.1960784 58.9810214,50.1960784 L8.78368449,50.1960784 C6.01158014,50.1960784 3.76470588,47.9488292 3.76470588,45.1764706 L3.76470588,40.1568627 L6.2745098,40.1568627 L6.2745098,5.02005942 C6.2745098,2.24758471 8.52291569,0 11.2950205,0 L56.4696853,0 C59.2422854,0 61.4901961,2.24767021 61.4901961,5.02005942 L61.4901961,40.1568627 Z M8.78431373,5.02005942 L8.78431373,40.1568627 L58.9803922,40.1568627 L58.9803922,5.02005942 C58.9803922,3.63394812 57.8563104,2.50980392 56.4696853,2.50980392 L11.2950205,2.50980392 C9.90906984,2.50980392 8.78431373,3.63368359 8.78431373,5.02005942 Z M6.2745098,42.6666667 L6.2745098,45.1764706 C6.2745098,46.5629018 7.39790557,47.6862745 8.78368449,47.6862745 L58.9810214,47.6862745 C60.365363,47.6862745 61.4901961,46.562597 61.4901961,45.1764706 L61.4901961,42.6666667 L6.2745098,42.6666667 Z" id="desktop" fill="#AE2BCA" fill-rule="nonzero"></path>
                <g id="mobile" transform="translate(0.000000, 15.435294)">
                    <path d="M2.50980392,5.01988787 L2.50980392,29.7408964 C2.50980392,31.1281597 3.63306807,32.2509804 5.01868463,32.2509804 L17.3185703,32.2509804 C18.7045352,32.2509804 19.827451,31.1271775 19.827451,29.7408964 L19.827451,5.01988787 C19.827451,3.63262466 18.7041868,2.50980392 17.3185703,2.50980392 L5.01868463,2.50980392 C3.63271974,2.50980392 2.50980392,3.63360678 2.50980392,5.01988787 Z" id="Path-Copy" fill="#FFFFFF"></path>
                    <path d="M2.50980392,5.01988787 L2.50980392,29.7408964 C2.50980392,31.1281597 3.63306807,32.2509804 5.01868463,32.2509804 L17.3185703,32.2509804 C18.7045352,32.2509804 19.827451,31.1271775 19.827451,29.7408964 L19.827451,5.01988787 C19.827451,3.63262466 18.7041868,2.50980392 17.3185703,2.50980392 L5.01868463,2.50980392 C3.63271974,2.50980392 2.50980392,3.63360678 2.50980392,5.01988787 Z M0,5.01988787 C0,2.24768315 2.24639024,0 5.01868463,0 L17.3185703,0 C20.0907699,0 22.3372549,2.24695493 22.3372549,5.01988787 L22.3372549,29.7408964 C22.3372549,32.5131012 20.0908647,34.7607843 17.3185703,34.7607843 L5.01868463,34.7607843 C2.24648498,34.7607843 0,32.5138294 0,29.7408964 L0,5.01988787 Z" fill="#AE2BCA" fill-rule="nonzero"></path>
                    <circle id="Oval" fill="#AE2BCA" cx="11.1686275" cy="29.1137255" r="1.88235294"></circle>
                </g>
                <g id="mobile-content" transform="translate(4.517647, 22.337255)" fill="#E92D79">
                    <rect id="line" x="0" y="0" width="13.3781049" height="2.50980392"></rect>
                    <rect id="line-copy" x="0" y="5.01960784" width="13.3781049" height="2.50980392"></rect>
                    <rect id="line-copy-2" x="0" y="10.0392157" width="13.3781049" height="2.50980392"></rect>
                    <rect id="line-copy-3" x="0" y="15.0588235" width="13.3781049" height="3.76470588"></rect>
                </g>
            </g>
        </g>
    </g>
</svg>