<?xml version="1.0" encoding="UTF-8"?>
<svg width="64px" height="52px" viewBox="0 0 64 52" version="1.1" xmlns="http://www.w3.org/2000/svg" xmlns:xlink="http://www.w3.org/1999/xlink">
    <!-- Generator: Sketch 43.2 (39069) - http://www.bohemiancoding.com/sketch -->
    <title>time</title>
    <desc>Created with Sketch.</desc>
    <defs></defs>
    <g id="Iconography" stroke="none" stroke-width="1" fill="none" fill-rule="evenodd">
        <g id="time">
            <g id="Group">
                <path d="M7.30342839,8.99429959 L12.3487585,3.94896943 L14.02896,5.62917092 L7.30185316,12.3562778 L5.62165167,10.6760763 L5.6232269,10.6745011 L3.93987496,8.99114913 L5.62007645,7.31094764 L7.30342839,8.99429959 L7.30342839,8.99429959 Z M10.4649224,0 L10.4649224,2.37616373 L4.75589036,2.37616373 C3.44263544,2.37616373 2.37839144,3.43960925 2.37839144,4.75143578 L2.37839144,11.1688612 C2.37839144,12.4808861 3.44283397,13.5441333 4.75589036,13.5441333 L11.1793323,13.5441333 C12.4925872,13.5441333 13.5568312,12.4806878 13.5568312,11.1688612 L13.5568312,7.1284912 L15.9352227,7.1284912 L15.9352227,11.1688612 C15.9352227,13.7930446 13.8060987,15.920297 11.1793323,15.920297 L4.75589036,15.920297 C2.12924678,15.920297 0,13.7931673 0,11.1688612 L0,4.75143578 C0,2.12725243 2.12912397,3.88578059e-16 4.75589036,3.88578059e-16 L10.4649224,3.88578059e-16 L10.4649224,0 Z M0,22.5726638 C0,19.9484804 2.12912397,17.821228 4.75589036,17.821228 L11.1793323,17.821228 C13.8059759,17.821228 15.9352227,19.9483577 15.9352227,22.5726638 L15.9352227,28.9900893 C15.9352227,31.6142726 13.8060987,33.741525 11.1793323,33.741525 L4.75589036,33.741525 C2.12924678,33.741525 0,31.6143953 0,28.9900893 L0,22.5726638 Z M2.37839144,22.5726638 L2.37839144,28.9900893 C2.37839144,30.3021141 3.44283397,31.3653613 4.75589036,31.3653613 L11.1793323,31.3653613 C12.4925872,31.3653613 13.5568312,30.3019158 13.5568312,28.9900893 L13.5568312,22.5726638 C13.5568312,21.2606389 12.4923887,20.1973917 11.1793323,20.1973917 L4.75589036,20.1973917 C3.44263544,20.1973917 2.37839144,21.2608373 2.37839144,22.5726638 Z M0,40.3938918 C0,37.7697084 2.12912397,35.642456 4.75589036,35.642456 L11.1793323,35.642456 C13.8059759,35.642456 15.9352227,37.7695858 15.9352227,40.3938918 L15.9352227,46.8113173 C15.9352227,49.4355006 13.8060987,51.562753 11.1793323,51.562753 L4.75589036,51.562753 C2.12924678,51.562753 0,49.4356233 0,46.8113173 L0,40.3938918 Z M2.37839144,40.3938918 L2.37839144,46.8113173 C2.37839144,48.1233421 3.44283397,49.1865893 4.75589036,49.1865893 L11.1793323,49.1865893 C12.4925872,49.1865893 13.5568312,48.1231438 13.5568312,46.8113173 L13.5568312,40.3938918 C13.5568312,39.0818669 12.4923887,38.0186198 11.1793323,38.0186198 L4.75589036,38.0186198 C3.44263544,38.0186198 2.37839144,39.0820653 2.37839144,40.3938918 Z" id="Combined-Shape" fill="#AE2BCA" fill-rule="nonzero"></path>
                <rect id="text-line1" fill="#E92D79" x="19.951417" y="21.8947368" width="44.048583" height="2.59109312"></rect>
                <rect id="text-line2" fill="#E92D79" x="19.951417" y="27.0769231" width="19.4331984" height="2.59109312"></rect>
                <rect id="text-line3" fill="#E92D79" x="19.951417" y="39.51417" width="32.7773279" height="2.59109312"></rect>
                <rect id="text-line4" fill="#E92D79" x="19.951417" y="44.6963563" width="28.1133603" height="2.59109312"></rect>
                <path d="M22.5521255,6.60526316 C22.5414979,6.77226804 22.5054406,6.92257018 22.4439524,7.05617409 C22.3824643,7.189778 22.3001017,7.30364325 22.1968623,7.39777328 C22.093623,7.4919033 21.9706485,7.56439752 21.8279352,7.6152581 C21.685222,7.66611868 21.5273288,7.69154858 21.354251,7.69154858 C21.1583998,7.69154858 20.9845655,7.65549125 20.8327429,7.58337551 C20.6809203,7.51125976 20.5533912,7.41029923 20.4501518,7.28049089 C20.3469124,7.15068255 20.2679659,6.99468715 20.2133097,6.8125 C20.1586536,6.63031285 20.1313259,6.42991 20.1313259,6.21128543 L20.1313259,5.76492915 C20.1313259,5.54478635 20.1601718,5.34362439 20.2178644,5.16143725 C20.275557,4.9792501 20.35754,4.82287515 20.4638158,4.69230769 C20.5700916,4.56174024 20.6987594,4.46040016 20.8498229,4.38828441 C21.0008864,4.31616867 21.1705456,4.28011134 21.3588057,4.28011134 C21.5409928,4.28011134 21.703061,4.30592079 21.8450152,4.35754049 C21.9869693,4.40916018 22.1080461,4.48279304 22.208249,4.5784413 C22.3084519,4.67408955 22.3873985,4.79099121 22.4450911,4.9291498 C22.5027837,5.06730838 22.5392206,5.22292424 22.5544028,5.39600202 L21.916751,5.39600202 C21.9106781,5.29731732 21.8958756,5.21077972 21.8723431,5.13638664 C21.8488106,5.06199356 21.814651,5.00012676 21.7698634,4.95078441 C21.7250757,4.90144206 21.6689022,4.86424608 21.6013411,4.83919534 C21.53378,4.81414461 21.4529357,4.80161943 21.3588057,4.80161943 C21.260121,4.80161943 21.1743425,4.82287428 21.1014676,4.86538462 C21.0285928,4.90789495 20.9682442,4.97014129 20.92042,5.05212551 C20.8725959,5.13410972 20.8372977,5.2346907 20.8145243,5.35387146 C20.7917509,5.47305222 20.7803644,5.60855187 20.7803644,5.76037449 L20.7803644,6.21128543 C20.7803644,6.53770406 20.82629,6.77909841 20.9181427,6.93547571 C21.0099954,7.09185301 21.1553634,7.17004049 21.354251,7.17004049 C21.5212559,7.17004049 21.6533396,7.12563304 21.7505061,7.0368168 C21.8476726,6.94800057 21.9015688,6.80415079 21.9121964,6.60526316 L22.5521255,6.60526316 Z M22.9848178,6.388917 C22.9848178,6.20976631 23.0106273,6.04390258 23.062247,5.89132085 C23.1138667,5.73873912 23.1893973,5.60627587 23.2888411,5.49392713 C23.3882849,5.38157839 23.5097412,5.29352259 23.6532136,5.22975709 C23.7966859,5.16599158 23.9610315,5.13410931 24.1462551,5.13410931 C24.3314787,5.13410931 24.4962037,5.16599158 24.6404352,5.22975709 C24.7846667,5.29352259 24.9065025,5.38157839 25.0059464,5.49392713 C25.1053902,5.60627587 25.1809208,5.73873912 25.2325405,5.89132085 C25.2841602,6.04390258 25.3099696,6.20976631 25.3099696,6.388917 L25.3099696,6.43674089 C25.3099696,6.61740981 25.2841602,6.78403264 25.2325405,6.93661437 C25.1809208,7.08919611 25.1057697,7.22165936 25.007085,7.3340081 C24.9084003,7.44635684 24.786944,7.53403309 24.6427126,7.59703947 C24.4984811,7.66004586 24.3345151,7.69154858 24.1508097,7.69154858 C23.9655861,7.69154858 23.8004815,7.66004586 23.6554909,7.59703947 C23.5105003,7.53403309 23.3882849,7.44635684 23.2888411,7.3340081 C23.1893973,7.22165936 23.1138667,7.08919611 23.062247,6.93661437 C23.0106273,6.78403264 22.9848178,6.61740981 22.9848178,6.43674089 L22.9848178,6.388917 Z M23.617915,6.43674089 C23.617915,6.53998027 23.6277833,6.63676574 23.6475202,6.7271002 C23.6672572,6.81743466 23.6983804,6.89638124 23.7408907,6.96394231 C23.783401,7.03150337 23.8384359,7.08502005 23.905997,7.12449393 C23.973558,7.16396781 24.0551615,7.18370445 24.1508097,7.18370445 C24.2434215,7.18370445 24.3231272,7.16396781 24.3899291,7.12449393 C24.4567311,7.08502005 24.5110069,7.03150337 24.5527581,6.96394231 C24.5945093,6.89638124 24.6252529,6.81743466 24.6449899,6.7271002 C24.6647268,6.63676574 24.6745951,6.53998027 24.6745951,6.43674089 L24.6745951,6.388917 C24.6745951,6.28871407 24.6647268,6.19382636 24.6449899,6.10425101 C24.6252529,6.01467567 24.5945093,5.93572909 24.5527581,5.86740891 C24.5110069,5.79908873 24.4567311,5.74519251 24.3899291,5.70571862 C24.3231272,5.66624474 24.2419033,5.6465081 24.1462551,5.6465081 C24.052125,5.6465081 23.9716603,5.66624474 23.9048583,5.70571862 C23.8380563,5.74519251 23.783401,5.79908873 23.7408907,5.86740891 C23.6983804,5.93572909 23.6672572,6.01467567 23.6475202,6.10425101 C23.6277833,6.19382636 23.617915,6.28871407 23.617915,6.388917 L23.617915,6.43674089 Z M25.8041498,6.39347166 C25.8041498,6.20672984 25.8257842,6.03593195 25.8690536,5.88107287 C25.9123231,5.7262138 25.9757081,5.593371 26.0592105,5.48254049 C26.142713,5.37170997 26.244053,5.28593148 26.3632338,5.22520243 C26.4824146,5.16447338 26.6186733,5.13410931 26.7720142,5.13410931 C26.9010634,5.13410931 27.0145491,5.15726191 27.1124747,5.20356781 C27.2104003,5.24987371 27.2973174,5.31553601 27.3732287,5.40055668 L27.3732287,4.14574899 L28.0086032,4.14574899 L28.0086032,7.6437247 L27.4369939,7.6437247 L27.4051113,7.38638664 C27.3276818,7.48203489 27.2365896,7.55642686 27.131832,7.60956478 C27.0270744,7.66270269 26.9056181,7.68927126 26.7674595,7.68927126 C26.6171551,7.68927126 26.4824146,7.65776853 26.3632338,7.59476215 C26.244053,7.53175576 26.1430925,7.44483861 26.0603492,7.3340081 C25.9776059,7.22317758 25.9142209,7.09147343 25.8701923,6.9388917 C25.8261637,6.78630997 25.8041498,6.62044624 25.8041498,6.44129555 L25.8041498,6.39347166 Z M26.437247,6.44129555 C26.437247,6.54453493 26.4459766,6.6405613 26.4634362,6.72937753 C26.4808958,6.81819376 26.5093622,6.89562214 26.548836,6.96166498 C26.5883099,7.02770782 26.6391697,7.07970629 26.701417,7.11766194 C26.7636643,7.1556176 26.8395745,7.17459514 26.9291498,7.17459514 C27.0384621,7.17459514 27.1291747,7.15106299 27.2012905,7.10399798 C27.2734062,7.05693296 27.3307184,6.99240932 27.3732287,6.9104251 L27.3732287,5.91295547 C27.3307184,5.82945302 27.2737858,5.76454983 27.2024291,5.71824393 C27.1310725,5.67193803 27.0414985,5.64878543 26.9337045,5.64878543 C26.8441291,5.64878543 26.7678394,5.66814252 26.704833,5.70685729 C26.6418266,5.74557206 26.5905872,5.79870918 26.5511134,5.86627024 C26.5116395,5.93383131 26.4827936,6.01277789 26.4645749,6.10311235 C26.4463562,6.19344681 26.437247,6.29023228 26.437247,6.39347166 L26.437247,6.44129555 Z M29.8646255,7.68927126 C29.6748472,7.68927126 29.5025311,7.65814808 29.3476721,7.59590081 C29.192813,7.53365353 29.0599702,7.44901369 28.9491397,7.34197874 C28.8383092,7.2349438 28.7529102,7.10893291 28.6929403,6.96394231 C28.6329703,6.8189517 28.6029858,6.6637154 28.6029858,6.49822874 L28.6029858,6.40713563 C28.6029858,6.21887558 28.6325908,6.04693904 28.6918016,5.89132085 C28.7510124,5.73570266 28.8337545,5.60172121 28.9400304,5.48937247 C29.0463062,5.37702373 29.1723171,5.28972703 29.3180668,5.22747976 C29.4638165,5.16523248 29.6224688,5.13410931 29.7940283,5.13410931 C29.9716608,5.13410931 30.1299335,5.16333473 30.2688512,5.22178644 C30.4077689,5.28023815 30.5254297,5.36260068 30.621837,5.46887652 C30.7182444,5.57515235 30.7914977,5.70306099 30.8415992,5.85260628 C30.8917007,6.00215156 30.916751,6.16725618 30.916751,6.3479251 L30.916751,6.6166498 L29.2451923,6.6166498 C29.2573381,6.70015224 29.2820089,6.77644196 29.3192055,6.84552126 C29.356402,6.91460055 29.4038459,6.97419003 29.4615385,7.0242915 C29.5192311,7.07439296 29.5852729,7.11310715 29.659666,7.14043522 C29.7340591,7.16776329 29.815283,7.18142713 29.9033401,7.18142713 C29.9655874,7.18142713 30.0274541,7.17535431 30.0889423,7.1632085 C30.1504305,7.15106269 30.2092609,7.1332238 30.2654352,7.1096913 C30.3216096,7.08615879 30.3739876,7.05693337 30.4225709,7.02201417 C30.4711541,6.98709497 30.5136638,6.94610347 30.5501012,6.89903846 L30.8666498,7.24063765 C30.8271759,7.29681202 30.7759365,7.3518469 30.7129302,7.40574393 C30.6499238,7.45964096 30.5755318,7.50746437 30.489752,7.54921559 C30.4039722,7.59096681 30.308705,7.62474683 30.2039474,7.65055668 C30.0991898,7.67636653 29.9860836,7.68927126 29.8646255,7.68927126 Z M29.7894737,5.6465081 C29.7181171,5.6465081 29.6528343,5.65903328 29.5936235,5.68408401 C29.5344127,5.70913474 29.4824142,5.74519207 29.4376265,5.79225709 C29.3928388,5.8393221 29.3552633,5.89549563 29.3248988,5.96077935 C29.2945343,6.02606308 29.2717612,6.09893684 29.2565789,6.17940283 L30.2950405,6.17940283 L30.2950405,6.12930162 C30.292004,6.06249967 30.2790993,5.99949422 30.2563259,5.9402834 C30.2335525,5.88107258 30.2009111,5.82983321 30.1584008,5.78656377 C30.1158905,5.74329432 30.063892,5.70913474 30.0024038,5.68408401 C29.9409157,5.65903328 29.8699397,5.6465081 29.7894737,5.6465081 Z M36.284413,6.19078947 L34.9225709,6.19078947 L34.9225709,7.12677126 L36.5144231,7.12677126 L36.5144231,7.6437247 L34.2803644,7.6437247 L34.2803644,4.32793522 L36.5075911,4.32793522 L36.5075911,4.84944332 L34.9225709,4.84944332 L34.9225709,5.68522267 L36.284413,5.68522267 L36.284413,6.19078947 Z M37.4595142,5.17965587 L37.4777328,5.47798583 C37.5247978,5.37170999 37.589701,5.28782925 37.6724443,5.22634109 C37.7551877,5.16485293 37.8557686,5.13410931 37.9741903,5.13410931 C38.1730779,5.13410931 38.3028843,5.22140601 38.3636134,5.39600202 C38.4121966,5.31401781 38.4740634,5.24987371 38.5492156,5.20356781 C38.6243678,5.15726191 38.7150804,5.13410931 38.8213563,5.13410931 C38.8957494,5.13410931 38.9652072,5.14777314 39.0297318,5.17510121 C39.0942564,5.20242929 39.1504299,5.24607764 39.198254,5.30604757 C39.2460782,5.36601751 39.2832742,5.44344588 39.3098431,5.53833502 C39.3364121,5.63322416 39.3496964,5.74898717 39.3496964,5.88562753 L39.3496964,7.6437247 L38.7735324,7.6437247 L38.7735324,5.8833502 C38.7735324,5.83628519 38.7685982,5.797571 38.7587298,5.76720648 C38.7488613,5.73684195 38.735577,5.71293025 38.7188765,5.69547065 C38.702176,5.67801105 38.6828189,5.66586542 38.6608047,5.6590334 C38.6387904,5.65220138 38.6163969,5.64878543 38.5936235,5.64878543 C38.5495949,5.64878543 38.5123989,5.6590333 38.4820344,5.67952935 C38.4516699,5.70002541 38.4281377,5.72773262 38.4114372,5.76265182 L38.4114372,7.6437247 L37.8534919,7.6437247 L37.8534919,5.88107287 C37.8534919,5.83400786 37.8489373,5.79529367 37.8398279,5.76492915 C37.8307186,5.73456463 37.8181934,5.71103247 37.802252,5.69433198 C37.7863106,5.6776315 37.7677127,5.66586542 37.7464575,5.6590334 C37.7252023,5.65220138 37.7024293,5.64878543 37.6781377,5.64878543 C37.6295544,5.64878543 37.5904607,5.66244926 37.5608553,5.68977733 C37.5312499,5.7171054 37.5080972,5.75354228 37.4913968,5.79908907 L37.4913968,7.6437247 L36.9152328,7.6437247 L36.9152328,5.17965587 L37.4595142,5.17965587 Z M41.4038462,7.6437247 C41.3886639,7.61336017 41.3757592,7.57844149 41.3651316,7.53896761 C41.354504,7.49949373 41.3453948,7.45774314 41.3378036,7.41371457 C41.3028844,7.45167023 41.262652,7.48734801 41.2171053,7.52074899 C41.1715585,7.55414996 41.1210782,7.58337538 41.065663,7.60842611 C41.0102477,7.63347685 40.94914,7.65321349 40.8823381,7.66763664 C40.8155361,7.68205979 40.7434214,7.68927126 40.6659919,7.68927126 C40.5399791,7.68927126 40.4242161,7.67105281 40.3186994,7.63461538 C40.2131827,7.59817796 40.12247,7.54731814 40.0465587,7.48203441 C39.9706474,7.41675069 39.9114375,7.33894276 39.8689271,7.2486083 C39.8264168,7.15827384 39.8051619,7.05997017 39.8051619,6.95369433 C39.8051619,6.69407765 39.9019474,6.49329524 40.0955213,6.35134109 C40.2890951,6.20938694 40.5779333,6.13841093 40.9620445,6.13841093 L41.3150304,6.13841093 L41.3150304,5.99266194 C41.3150304,5.8742403 41.2763162,5.78049124 41.1988866,5.71141194 C41.1214571,5.64233265 41.0098691,5.60779352 40.8641194,5.60779352 C40.7350702,5.60779352 40.6409416,5.63550074 40.5817308,5.69091599 C40.5225199,5.74633125 40.492915,5.82034367 40.492915,5.91295547 L39.8598178,5.91295547 C39.8598178,5.80819786 39.8829704,5.70875553 39.9292763,5.61462551 C39.9755822,5.52049548 40.0431423,5.43775339 40.1319585,5.36639676 C40.2207747,5.29504013 40.3293263,5.23848705 40.4576164,5.19673583 C40.5859065,5.15498461 40.7327927,5.13410931 40.8982794,5.13410931 C41.0470655,5.13410931 41.1856016,5.15232775 41.3138917,5.18876518 C41.4421818,5.22520261 41.5533902,5.27909883 41.6475202,5.35045547 C41.7416503,5.4218121 41.8152831,5.51176565 41.8684211,5.62031883 C41.921559,5.728872 41.9481275,5.85450334 41.9481275,5.9972166 L41.9481275,7.05389676 C41.9481275,7.18598244 41.9564776,7.29529309 41.9731781,7.38183198 C41.9898786,7.46837088 42.0141699,7.54276285 42.0460526,7.60501012 L42.0460526,7.6437247 L41.4038462,7.6437247 Z M40.8003543,7.19964575 C40.8641198,7.19964575 40.9233297,7.19205473 40.9779858,7.17687247 C41.032642,7.16169021 41.0819836,7.14195356 41.1260121,7.11766194 C41.1700407,7.09337032 41.2079958,7.06566311 41.2398785,7.03453947 C41.2717613,7.00341584 41.2968116,6.97191311 41.3150304,6.94003036 L41.3150304,6.51644737 L40.9916498,6.51644737 C40.8929651,6.51644737 40.8087048,6.52593614 40.7388664,6.54491397 C40.669028,6.5638918 40.6120954,6.59046036 40.5680668,6.62462045 C40.5240382,6.65878054 40.4913969,6.69977203 40.4701417,6.74759615 C40.4488865,6.79542028 40.4382591,6.84741875 40.4382591,6.90359312 C40.4382591,6.98861379 40.4682436,7.05921025 40.5282136,7.11538462 C40.5881835,7.17155899 40.6788962,7.19964575 40.8003543,7.19964575 Z M42.8317308,5.17965587 L44.1730769,5.17965587 L44.1730769,7.12904858 L44.840334,7.12904858 L44.840334,7.6437247 L42.8317308,7.6437247 L42.8317308,7.12904858 L43.5331478,7.12904858 L43.5331478,5.69660931 L42.8317308,5.69660931 L42.8317308,5.17965587 Z M43.4876012,4.54883603 C43.4876012,4.50025279 43.4963309,4.45508624 43.5137905,4.41333502 C43.5312501,4.3715838 43.5559209,4.33590602 43.5878036,4.30630061 C43.6196864,4.2766952 43.658021,4.25354259 43.7028087,4.23684211 C43.7475964,4.22014162 43.7973175,4.2117915 43.8519737,4.2117915 C43.9643224,4.2117915 44.0535169,4.24329422 44.1195597,4.30630061 C44.1856026,4.369307 44.2186235,4.45015133 44.2186235,4.54883603 C44.2186235,4.64752074 44.1856026,4.72836507 44.1195597,4.79137146 C44.0535169,4.85437785 43.9643224,4.88588057 43.8519737,4.88588057 C43.7973175,4.88588057 43.7475964,4.87753045 43.7028087,4.86082996 C43.658021,4.84412947 43.6196864,4.82097687 43.5878036,4.79137146 C43.5559209,4.76176605 43.5312501,4.72608827 43.5137905,4.68433704 C43.4963309,4.64258582 43.4876012,4.59741927 43.4876012,4.54883603 Z M45.5941296,4.14574899 L46.971913,4.14574899 L46.971913,7.12904858 L47.6778846,7.12904858 L47.6778846,7.6437247 L45.5941296,7.6437247 L45.5941296,7.12904858 L46.3319838,7.12904858 L46.3319838,4.66270243 L45.5941296,4.66270243 L45.5941296,4.14574899 Z M22.6864879,10.2907389 L21.6639676,10.2907389 L21.6639676,13.0850202 L21.0217611,13.0850202 L21.0217611,10.2907389 L20.0129049,10.2907389 L20.0129049,9.76923077 L22.6864879,9.76923077 L22.6864879,10.2907389 Z M24.2669534,13.1305668 C24.0771752,13.1305668 23.9048591,13.0994436 23.75,13.0371964 C23.5951409,12.9749491 23.4622981,12.8903092 23.3514676,12.7832743 C23.2406371,12.6762393 23.1552382,12.5502285 23.0952682,12.4052379 C23.0352983,12.2602473 23.0053138,12.1050109 23.0053138,11.9395243 L23.0053138,11.8484312 C23.0053138,11.6601711 23.0349187,11.4882346 23.0941296,11.3326164 C23.1533404,11.1769982 23.2360825,11.0430168 23.3423583,10.930668 C23.4486341,10.8183193 23.574645,10.7310226 23.7203947,10.6687753 C23.8661445,10.606528 24.0247967,10.5754049 24.1963563,10.5754049 C24.3739887,10.5754049 24.5322615,10.6046303 24.6711791,10.663082 C24.8100968,10.7215337 24.9277576,10.8038962 25.024165,10.9101721 C25.1205723,11.0164479 25.1938257,11.1443565 25.2439271,11.2939018 C25.2940286,11.4434471 25.3190789,11.6085517 25.3190789,11.7892206 L25.3190789,12.0579453 L23.6475202,12.0579453 C23.6596661,12.1414478 23.6843369,12.2177375 23.7215334,12.2868168 C23.7587299,12.3558961 23.8061738,12.4154856 23.8638664,12.465587 C23.921559,12.5156885 23.9876008,12.5544027 24.0619939,12.5817308 C24.136387,12.6090588 24.2176109,12.6227227 24.305668,12.6227227 C24.3679153,12.6227227 24.4297821,12.6166499 24.4912702,12.604504 C24.5527584,12.5923582 24.6115888,12.5745193 24.6677632,12.5509868 C24.7239375,12.5274543 24.7763155,12.4982289 24.8248988,12.4633097 C24.873482,12.4283905 24.9159917,12.387399 24.9524291,12.340334 L25.2689777,12.6819332 C25.2295039,12.7381076 25.1782645,12.7931424 25.1152581,12.8470395 C25.0522517,12.9009365 24.9778597,12.9487599 24.89208,12.9905111 C24.8063002,13.0322624 24.7110329,13.0660424 24.6062753,13.0918522 C24.5015177,13.1176621 24.3884115,13.1305668 24.2669534,13.1305668 Z M24.1918016,11.0878036 C24.120445,11.0878036 24.0551622,11.1003288 23.9959514,11.1253796 C23.9367406,11.1504303 23.8847421,11.1864876 23.8399545,11.2335526 C23.7951668,11.2806176 23.7575912,11.3367912 23.7272267,11.4020749 C23.6968622,11.4673586 23.6740891,11.5402324 23.6589069,11.6206984 L24.6973684,11.6206984 L24.6973684,11.5705972 C24.694332,11.5037952 24.6814272,11.4407898 24.6586538,11.3815789 C24.6358805,11.3223681 24.6032391,11.2711288 24.5607287,11.2278593 C24.5182184,11.1845899 24.4662199,11.1504303 24.4047318,11.1253796 C24.3432436,11.1003288 24.2722676,11.0878036 24.1918016,11.0878036 Z M26.26417,10.6209514 L26.2823887,10.9192814 C26.3294537,10.8130055 26.3943569,10.7291248 26.4771002,10.6676366 C26.5598435,10.6061485 26.6604245,10.5754049 26.7788462,10.5754049 C26.9777338,10.5754049 27.1075402,10.6627016 27.1682692,10.8372976 C27.2168525,10.7553134 27.2787193,10.6911693 27.3538715,10.6448634 C27.4290237,10.5985575 27.5197363,10.5754049 27.6260121,10.5754049 C27.7004052,10.5754049 27.769863,10.5890687 27.8343877,10.6163968 C27.8989123,10.6437248 27.9550858,10.6873732 28.0029099,10.7473431 C28.050734,10.8073131 28.08793,10.8847414 28.114499,10.9796306 C28.1410679,11.0745197 28.1543522,11.1902827 28.1543522,11.3269231 L28.1543522,13.0850202 L27.5781883,13.0850202 L27.5781883,11.3246457 C27.5781883,11.2775807 27.5732541,11.2388665 27.5633856,11.208502 C27.5535172,11.1781375 27.5402329,11.1542258 27.5235324,11.1367662 C27.5068319,11.1193066 27.4874748,11.107161 27.4654605,11.1003289 C27.4434462,11.0934969 27.4210527,11.090081 27.3982794,11.090081 C27.3542508,11.090081 27.3170548,11.1003288 27.2866903,11.1208249 C27.2563258,11.141321 27.2327936,11.1690282 27.2160931,11.2039474 L27.2160931,13.0850202 L26.6581478,13.0850202 L26.6581478,11.3223684 C26.6581478,11.2753034 26.6535932,11.2365892 26.6444838,11.2062247 C26.6353744,11.1758602 26.6228493,11.152328 26.6069079,11.1356275 C26.5909665,11.118927 26.5723685,11.107161 26.5511134,11.1003289 C26.5298582,11.0934969 26.5070851,11.090081 26.4827935,11.090081 C26.4342103,11.090081 26.3951165,11.1037448 26.3655111,11.1310729 C26.3359057,11.1584009 26.3127531,11.1948378 26.2960526,11.2403846 L26.2960526,13.0850202 L25.7198887,13.0850202 L25.7198887,10.6209514 L26.26417,10.6209514 Z M30.8825911,11.8757591 C30.8825911,12.0549098 30.8617158,12.2211531 30.8199646,12.3744939 C30.7782134,12.5278348 30.7167261,12.660298 30.635501,12.7718877 C30.5542759,12.8834773 30.4536949,12.9711535 30.3337551,13.034919 C30.2138152,13.0986845 30.0764178,13.1305668 29.9215587,13.1305668 C29.789473,13.1305668 29.6733305,13.1077938 29.5731275,13.062247 C29.4729246,13.0167002 29.3856279,12.9529356 29.3112348,12.8709514 L29.3112348,14.0323887 L28.6781377,14.0323887 L28.6781377,10.6209514 L29.2634109,10.6209514 L29.2861842,10.8623482 C29.3620955,10.7712546 29.4516695,10.7006581 29.5549089,10.6505567 C29.6581483,10.6004552 29.7788455,10.5754049 29.917004,10.5754049 C30.0733813,10.5754049 30.2115379,10.6053894 30.3314777,10.6653593 C30.4514176,10.7253292 30.5523781,10.8103486 30.6343623,10.92042 C30.7163466,11.0304914 30.7782134,11.1625751 30.8199646,11.3166751 C30.8617158,11.4707751 30.8825911,11.6411934 30.8825911,11.8279352 L30.8825911,11.8757591 Z M30.2494939,11.8279352 C30.2494939,11.7246958 30.2400052,11.6279104 30.2210273,11.5375759 C30.2020495,11.4472415 30.1724445,11.369054 30.1322115,11.3030111 C30.0919785,11.2369683 30.0403596,11.1849698 29.9773532,11.1470142 C29.9143469,11.1090585 29.8380571,11.090081 29.7484818,11.090081 C29.6376513,11.090081 29.5469386,11.1117154 29.4763411,11.1549848 C29.4057436,11.1982543 29.3507087,11.259362 29.3112348,11.3383097 L29.3112348,12.3676619 C29.3507087,12.4450915 29.4057436,12.5069583 29.4763411,12.5532642 C29.5469386,12.5995701 29.6391695,12.6227227 29.7530364,12.6227227 C29.8426118,12.6227227 29.9189015,12.602986 29.9819079,12.5635121 C30.0449143,12.5240383 30.0961536,12.470142 30.1356275,12.4018219 C30.1751014,12.3335017 30.2039473,12.2541756 30.222166,12.1638411 C30.2403847,12.0735066 30.2494939,11.9774803 30.2494939,11.8757591 L30.2494939,11.8279352 Z M31.5999494,9.58704453 L32.9777328,9.58704453 L32.9777328,12.5703441 L33.6837045,12.5703441 L33.6837045,13.0850202 L31.5999494,13.0850202 L31.5999494,12.5703441 L32.3378036,12.5703441 L32.3378036,10.103998 L31.5999494,10.103998 L31.5999494,9.58704453 Z M35.8061741,13.0850202 C35.7909918,13.0546557 35.7780871,13.019737 35.7674595,12.9802632 C35.7568319,12.9407893 35.7477227,12.8990387 35.7401316,12.8550101 C35.7052124,12.8929658 35.66498,12.9286436 35.6194332,12.9620445 C35.5738864,12.9954455 35.5234061,13.0246709 35.4679909,13.0497217 C35.4125756,13.0747724 35.3514679,13.094509 35.284666,13.1089322 C35.217864,13.1233553 35.1457494,13.1305668 35.0683198,13.1305668 C34.9423071,13.1305668 34.826544,13.1123484 34.7210273,13.0759109 C34.6155106,13.0394735 34.524798,12.9886137 34.4488866,12.92333 C34.3729753,12.8580462 34.3137654,12.7802383 34.2712551,12.6899038 C34.2287447,12.5995694 34.2074899,12.5012657 34.2074899,12.3949899 C34.2074899,12.1353732 34.3042753,11.9345908 34.4978492,11.7926366 C34.691423,11.6506825 34.9802612,11.5797065 35.3643725,11.5797065 L35.7173583,11.5797065 L35.7173583,11.4339575 C35.7173583,11.3155358 35.6786441,11.2217868 35.6012146,11.1527075 C35.523785,11.0836282 35.4121971,11.0490891 35.2664474,11.0490891 C35.1373981,11.0490891 35.0432695,11.0767963 34.9840587,11.1322115 C34.9248479,11.1876268 34.8952429,11.2616392 34.8952429,11.354251 L34.2621457,11.354251 C34.2621457,11.2494934 34.2852984,11.1500511 34.3316043,11.0559211 C34.3779102,10.961791 34.4454702,10.8790489 34.5342864,10.8076923 C34.6231027,10.7363357 34.7316542,10.6797826 34.8599443,10.6380314 C34.9882344,10.5962802 35.1351206,10.5754049 35.3006073,10.5754049 C35.4493935,10.5754049 35.5879295,10.5936233 35.7162196,10.6300607 C35.8445098,10.6664982 35.9557182,10.7203944 36.0498482,10.791751 C36.1439782,10.8631076 36.2176111,10.9530612 36.270749,11.0616144 C36.3238869,11.1701675 36.3504555,11.2957989 36.3504555,11.4385121 L36.3504555,12.4951923 C36.3504555,12.627278 36.3588056,12.7365886 36.3755061,12.8231275 C36.3922066,12.9096664 36.4164978,12.9840584 36.4483806,13.0463057 L36.4483806,13.0850202 L35.8061741,13.0850202 Z M35.2026822,12.6409413 C35.2664477,12.6409413 35.3256576,12.6333503 35.3803138,12.618168 C35.4349699,12.6029858 35.4843115,12.5832491 35.5283401,12.5589575 C35.5723686,12.5346659 35.6103237,12.5069587 35.6422065,12.475835 C35.6740892,12.4447114 35.6991396,12.4132087 35.7173583,12.3813259 L35.7173583,11.9577429 L35.3939777,11.9577429 C35.295293,11.9577429 35.2110327,11.9672317 35.1411943,11.9862095 C35.0713559,12.0051873 35.0144233,12.0317559 34.9703947,12.065916 C34.9263662,12.1000761 34.8937248,12.1410676 34.8724696,12.1888917 C34.8512145,12.2367158 34.840587,12.2887143 34.840587,12.3448887 C34.840587,12.4299093 34.8705716,12.5005058 34.9305415,12.5566802 C34.9905114,12.6128545 35.0812241,12.6409413 35.2026822,12.6409413 Z M38.2269737,10.0174595 L38.2269737,10.6209514 L39.1470142,10.6209514 L39.1470142,11.0878036 L38.2269737,11.0878036 L38.2269737,12.1467611 C38.2269737,12.2363365 38.2372216,12.311108 38.2577176,12.3710779 C38.2782137,12.4310479 38.3074391,12.4788713 38.3453947,12.5145496 C38.3833504,12.5502279 38.429276,12.5756578 38.4831731,12.5908401 C38.5370701,12.6060223 38.5974187,12.6136134 38.6642206,12.6136134 C38.7128039,12.6136134 38.762525,12.6113361 38.8133856,12.6067814 C38.8642462,12.6022267 38.9128287,12.5965334 38.9591346,12.5897014 C39.0054405,12.5828694 39.0487093,12.5756579 39.0889423,12.5680668 C39.1291753,12.5604757 39.1637144,12.5528847 39.1925607,12.5452935 L39.2540486,12.9802632 C39.21002,13.006073 39.1584011,13.0284665 39.0991903,13.0474443 C39.0399795,13.0664222 38.976974,13.0819837 38.9101721,13.0941296 C38.8433701,13.1062754 38.7739123,13.1157641 38.7017966,13.1225962 C38.6296808,13.1294282 38.5587048,13.1328441 38.4888664,13.1328441 C38.3537443,13.1328441 38.2311493,13.1150052 38.1210779,13.0793269 C38.0110065,13.0436486 37.9168779,12.9882342 37.8386893,12.913082 C37.7605006,12.8379298 37.700152,12.742283 37.6576417,12.6261387 C37.6151314,12.5099944 37.5938765,12.3706992 37.5938765,12.208249 L37.5938765,11.0878036 L37.0313765,11.0878036 L37.0313765,10.6209514 L37.5938765,10.6209514 L37.5938765,10.0174595 L38.2269737,10.0174595 Z M41.0599696,13.1305668 C40.8701914,13.1305668 40.6978753,13.0994436 40.5430162,13.0371964 C40.3881571,12.9749491 40.2553143,12.8903092 40.1444838,12.7832743 C40.0336533,12.6762393 39.9482543,12.5502285 39.8882844,12.4052379 C39.8283145,12.2602473 39.79833,12.1050109 39.79833,11.9395243 L39.79833,11.8484312 C39.79833,11.6601711 39.8279349,11.4882346 39.8871457,11.3326164 C39.9463566,11.1769982 40.0290987,11.0430168 40.1353745,10.930668 C40.2416503,10.8183193 40.3676612,10.7310226 40.5134109,10.6687753 C40.6591606,10.606528 40.8178129,10.5754049 40.9893725,10.5754049 C41.1670049,10.5754049 41.3252776,10.6046303 41.4641953,10.663082 C41.603113,10.7215337 41.7207738,10.8038962 41.8171812,10.9101721 C41.9135885,11.0164479 41.9868419,11.1443565 42.0369433,11.2939018 C42.0870448,11.4434471 42.1120951,11.6085517 42.1120951,11.7892206 L42.1120951,12.0579453 L40.4405364,12.0579453 C40.4526822,12.1414478 40.4773531,12.2177375 40.5145496,12.2868168 C40.5517461,12.3558961 40.59919,12.4154856 40.6568826,12.465587 C40.7145752,12.5156885 40.780617,12.5544027 40.8550101,12.5817308 C40.9294032,12.6090588 41.0106271,12.6227227 41.0986842,12.6227227 C41.1609315,12.6227227 41.2227983,12.6166499 41.2842864,12.604504 C41.3457746,12.5923582 41.404605,12.5745193 41.4607794,12.5509868 C41.5169537,12.5274543 41.5693317,12.4982289 41.617915,12.4633097 C41.6664982,12.4283905 41.7090079,12.387399 41.7454453,12.340334 L42.0619939,12.6819332 C42.02252,12.7381076 41.9712807,12.7931424 41.9082743,12.8470395 C41.8452679,12.9009365 41.7708759,12.9487599 41.6850962,12.9905111 C41.5993164,13.0322624 41.5040491,13.0660424 41.3992915,13.0918522 C41.2945339,13.1176621 41.1814277,13.1305668 41.0599696,13.1305668 Z M40.9848178,11.0878036 C40.9134612,11.0878036 40.8481784,11.1003288 40.7889676,11.1253796 C40.7297568,11.1504303 40.6777583,11.1864876 40.6329706,11.2335526 C40.588183,11.2806176 40.5506074,11.3367912 40.5202429,11.4020749 C40.4898784,11.4673586 40.4671053,11.5402324 40.4519231,11.6206984 L41.4903846,11.6206984 L41.4903846,11.5705972 C41.4873482,11.5037952 41.4744434,11.4407898 41.45167,11.3815789 C41.4288966,11.3223681 41.3962553,11.2711288 41.3537449,11.2278593 C41.3112346,11.1845899 41.2592361,11.1504303 41.197748,11.1253796 C41.1362598,11.1003288 41.0652838,11.0878036 40.9848178,11.0878036 Z M44.2527834,12.4086538 C44.2527834,12.3706982 44.2440537,12.3372977 44.2265941,12.3084514 C44.2091345,12.2796051 44.1780114,12.252657 44.1332237,12.2276063 C44.088436,12.2025555 44.0288465,12.1794029 43.9544534,12.1581478 C43.8800604,12.1368926 43.7859317,12.1156378 43.6720648,12.0943826 C43.5278333,12.0655363 43.3961291,12.029479 43.2769484,11.9862095 C43.1577676,11.9429401 43.0556684,11.890562 42.9706478,11.8290739 C42.8856271,11.7675857 42.8192057,11.6966097 42.7713816,11.6161437 C42.7235575,11.5356777 42.6996457,11.4430673 42.6996457,11.3383097 C42.6996457,11.2365886 42.723937,11.1394235 42.7725202,11.0468117 C42.8211035,10.9541999 42.8909408,10.8729761 42.9820344,10.8031377 C43.073128,10.7332992 43.1839568,10.6778848 43.3145243,10.6368927 C43.4450917,10.5959006 43.5923575,10.5754049 43.7563259,10.5754049 C43.9278855,10.5754049 44.0819831,10.5955211 44.2186235,10.635754 C44.3552638,10.675987 44.4710269,10.7314015 44.565916,10.801999 C44.6608051,10.8725965 44.7332993,10.9564772 44.7834008,11.0536437 C44.8335023,11.1508102 44.8585526,11.2563253 44.8585526,11.3701923 L44.2254555,11.3701923 C44.2254555,11.2745441 44.1867413,11.1944588 44.1093117,11.1299342 C44.0318822,11.0654096 43.9142214,11.0331478 43.7563259,11.0331478 C43.609058,11.0331478 43.4978496,11.0597163 43.4226974,11.1128543 C43.3475452,11.1659922 43.3099696,11.2312749 43.3099696,11.3087045 C43.3099696,11.3451419 43.3175607,11.3789219 43.3327429,11.4100455 C43.3479252,11.4411692 43.3748733,11.4692559 43.4135881,11.4943067 C43.4523028,11.5193574 43.5050604,11.5421305 43.5718623,11.5626265 C43.6386643,11.5831226 43.7236837,11.6009615 43.8269231,11.6161437 C43.9757092,11.6404353 44.1138658,11.6715585 44.2413968,11.7095142 C44.3689278,11.7474698 44.4789975,11.7964319 44.5716093,11.8564018 C44.6642211,11.9163718 44.7367153,11.9892455 44.7890941,12.0750253 C44.8414729,12.1608051 44.8676619,12.2629043 44.8676619,12.3813259 C44.8676619,12.4906382 44.8414729,12.5912192 44.7890941,12.6830719 C44.7367153,12.7749245 44.6623234,12.8542507 44.565916,12.9210526 C44.4695086,12.9878546 44.3529865,13.0398531 44.2163462,13.0770496 C44.0797058,13.1142461 43.9271263,13.1328441 43.7586032,13.1328441 C43.5733796,13.1328441 43.4097932,13.1085529 43.2678391,13.0599696 C43.1258849,13.0113864 43.0070855,12.9480014 42.9114372,12.8698128 C42.815789,12.7916241 42.7432948,12.7028092 42.6939524,12.6033654 C42.6446101,12.5039216 42.6199393,12.4040997 42.6199393,12.3038968 L43.2234312,12.3038968 C43.2279859,12.3706987 43.2462043,12.4280109 43.278087,12.475835 C43.3099698,12.5236591 43.3509613,12.5623733 43.4010628,12.5919787 C43.4511642,12.6215842 43.5084764,12.6432186 43.573001,12.6568826 C43.6375256,12.6705466 43.703947,12.6773785 43.7722672,12.6773785 C43.9286445,12.6773785 44.0478235,12.6523282 44.1298077,12.6022267 C44.2117919,12.5521253 44.2527834,12.4876016 44.2527834,12.4086538 Z" id="html" fill="#E92D79"></path>
            </g>
        </g>
    </g>
</svg>