<?xml version="1.0" encoding="utf-8"?><!DOCTYPE svg PUBLIC "-//W3C//DTD SVG 1.1//EN" "http://www.w3.org/Graphics/SVG/1.1/DTD/svg11.dtd"><svg xmlns="http://www.w3.org/2000/svg" xmlns:xlink="http://www.w3.org/1999/xlink"><symbol viewBox="0 0 48 48" id="_assets--img--src--check"><path d="M.998 23.767l15.997 15.942-1.41 1.416L-.414 25.183z"/><path d="M47 6.875l1.415 1.414L15.58 41.124l-1.415-1.414z"/></symbol><symbol viewBox="0 0 48 48" id="_assets--img--src--clock"><path d="M24 44.624C13.031 44.623 4.108 35.819 4.108 25 4.108 14.18 13.031 5.377 24 5.377c10.967 0 19.889 8.803 19.889 19.623S34.967 44.624 24 44.624zm0-37.247C14.134 7.377 6.108 15.283 6.108 25c0 9.717 8.026 17.623 17.892 17.624 9.864 0 17.889-7.906 17.889-17.624 0-9.717-8.025-17.623-17.889-17.623z"/><path d="M11.262 48a1 1 0 0 1-.941-1.337l2.123-5.924a1 1 0 1 1 1.883.674l-2.123 5.924a1.001 1.001 0 0 1-.942.663zM36.736 48a1 1 0 0 1-.941-.663l-2.123-5.924a.998.998 0 1 1 1.882-.674l2.123 5.924A.998.998 0 0 1 36.736 48z"/><g><path d="M2.818 14.541l-.664-.728A8.159 8.159 0 0 1 .011 7.842a8.188 8.188 0 0 1 2.773-5.729A8.44 8.44 0 0 1 8.378 0c2.375 0 4.646 1 6.232 2.744l.682.75L2.818 14.541zM8.378 2A6.438 6.438 0 0 0 4.11 3.611a6.197 6.197 0 0 0-2.101 4.337 6.15 6.15 0 0 0 1.016 3.739l9.363-8.292A6.46 6.46 0 0 0 8.378 2zM45.185 14.542L32.704 3.494l.683-.75A8.436 8.436 0 0 1 39.62 0c2.065 0 4.052.75 5.594 2.112a8.179 8.179 0 0 1 2.774 5.721 8.168 8.168 0 0 1-2.14 5.979l-.663.73zM35.609 3.395l9.367 8.292a6.166 6.166 0 0 0 1.015-3.746 6.193 6.193 0 0 0-2.103-4.33A6.434 6.434 0 0 0 39.62 2c-1.468 0-2.884.5-4.011 1.395z"/></g><path d="M34.613 26H23V10.939a1 1 0 0 1 2 0V24h9.613a1 1 0 1 1 0 2z"/></symbol><symbol viewBox="0 0 1220 394" id="_assets--img--src--logo"><title>logo</title><g fill="#FFF" fill-rule="evenodd"><path d="M83.234 265v51.016H33.762V265H0v129h33.762v-51.99h49.472V394H117V265zM136 265v25.997h42.268V394h33.658V290.997H254V265zM377.86 265l-20.223 65.87-7.457 27.166h-.394l-7.27-27.361L322.099 265H274v129h30.037v-59.22l-.98-39.677h.39L335.451 394h27.293l32.004-98.897h.394l-.988 39.678V394H424V265zM453 265v129h99v-25.993h-65.151V265zM623 265v129h104v-25.993h-70.06V341.62h53.678v-24.432H656.94v-26.192h67.491V265zM850.861 265l-20.222 65.87-7.46 27.166h-.39l-7.27-27.361L795.101 265H747v129h30.04v-59.22l-.983-39.677h.394L808.453 394h27.289l32.006-98.897h.39l-.983 39.678V394H897V265zM957.43 265L912 394h33.876l9.005-29.12h44.65l8.807 29.12H1043l-45.235-129H957.43zm14.293 45.931l5.289-20.128h.389l5.681 20.326 9.398 30.88h-30.548l9.791-31.078zM1058 394h34V265h-34zM1121 265v129h99v-25.993h-65.151V265zM696.607.577L585 81 475.272.751C459.974 22.638 451 49.271 451 78c0 29.432 9.418 56.663 25.405 78.846L568 95l17 12 18-12 92.524 61.944C711.554 134.744 721 107.475 721 78c0-28.805-9.022-55.503-24.393-77.423z"/></g></symbol><symbol viewBox="0 0 1560 157" id="_assets--img--src--logo-inline"><title>logo-inline</title><path d="M423.234 15v51.016h-49.472V15H340v129h33.762V92.01h49.472V144H457V15m19 0v25.997h42.268V144h33.658V40.997H594V15m123.86 0l-20.223 65.87-7.457 27.166h-.394l-7.27-27.36L662.1 15H614v129h30.037V84.78l-.98-39.677h.39L675.45 144h27.294l32.004-98.897h.394l-.988 39.678V144H764V15m29 0v129h99v-25.993h-65.15V15M963 15v129h104v-25.993h-70.06V91.62h53.678V67.19H996.94V40.996h67.49V15m126.43 0l-20.22 65.87-7.462 27.166h-.39l-7.27-27.36L1135.102 15H1087v129h30.04V84.78l-.983-39.677h.394L1148.454 144h27.29l32.005-98.897h.39l-.983 39.678V144H1237V15m60.43 0L1252 144h33.876l9.005-29.12h44.652l8.806 29.12H1383l-45.235-129h-40.335zm14.293 45.93l5.29-20.127h.388l5.682 20.326 9.398 30.88h-30.548l9.79-31.08zM1398 144h34V15h-34m63 0v129h99v-25.993h-65.15V15M245.607 0L134 80.423 24.272.173C8.974 22.06 0 48.694 0 77.424c0 29.43 9.418 56.663 25.405 78.846L117 94.422l17 12 18-12 92.524 61.944c16.03-22.2 25.476-49.47 25.476-78.944C270 48.618 260.978 21.92 245.607 0z" fill="#FFF" fill-rule="evenodd"/></symbol><symbol viewBox="0 0 1110 329" id="_assets--img--src--templates"><title>templates</title><defs><path id="ea" d="M0 0h177v300H0z"/><mask id="er" x="0" y="0" width="177" height="300" fill="#fff"><use xlink:href="#ea"/></mask><rect id="eb" x="74" y="20" width="30" height="30" rx="36"/><mask id="es" x="0" y="0" width="30" height="30" fill="#fff"><use xlink:href="#eb"/></mask><path id="ec" d="M13 60h153v140H13z"/><mask id="et" x="0" y="0" width="153" height="140" fill="#fff"><use xlink:href="#ec"/></mask><path id="ev" d="M12 60h153v30H12z"/><filter x="-50%" y="-50%" width="200%" height="200%" filterUnits="objectBoundingBox" id="eu"><feOffset dy="1" in="SourceAlpha" result="shadowOffsetOuter1"/><feComposite in="shadowOffsetOuter1" in2="SourceAlpha" operator="out" result="shadowOffsetOuter1"/><feColorMatrix values="0 0 0 0 1 0 0 0 0 1 0 0 0 0 1 0 0 0 0.6 0" in="shadowOffsetOuter1"/></filter><path id="ed" d="M0 0h177v300H0z"/><mask id="ew" x="0" y="0" width="177" height="300" fill="#fff"><use xlink:href="#ed"/></mask><rect id="ee" x="74" y="20" width="30" height="30" rx="36"/><mask id="ex" x="0" y="0" width="30" height="30" fill="#fff"><use xlink:href="#ee"/></mask><path id="ef" d="M12 60h153v210H12z"/><mask id="ey" x="0" y="0" width="153" height="210" fill="#fff"><use xlink:href="#ef"/></mask><path id="eg" d="M29 75h120v50H29z"/><mask id="ez" x="0" y="0" width="120" height="50" fill="#fff"><use xlink:href="#eg"/></mask><path id="eh" d="M29 155h55v50H29z"/><mask id="eA" x="0" y="0" width="55" height="50" fill="#fff"><use xlink:href="#eh"/></mask><path id="ei" d="M94 155h55v50H94z"/><mask id="eB" x="0" y="0" width="55" height="50" fill="#fff"><use xlink:href="#ei"/></mask><path id="ej" d="M0 0h177v300H0z"/><mask id="eC" x="0" y="0" width="177" height="300" fill="#fff"><use xlink:href="#ej"/></mask><rect id="ek" x="74" y="20" width="30" height="30" rx="36"/><mask id="eD" x="0" y="0" width="30" height="30" fill="#fff"><use xlink:href="#ek"/></mask><path id="el" d="M12 60h153v190H12z"/><mask id="eE" x="0" y="0" width="153" height="190" fill="#fff"><use xlink:href="#el"/></mask><path id="eG" d="M12 60h153v50H12z"/><filter x="-50%" y="-50%" width="200%" height="200%" filterUnits="objectBoundingBox" id="eF"><feOffset dy="1" in="SourceAlpha" result="shadowOffsetOuter1"/><feComposite in="shadowOffsetOuter1" in2="SourceAlpha" operator="out" result="shadowOffsetOuter1"/><feColorMatrix values="0 0 0 0 1 0 0 0 0 1 0 0 0 0 1 0 0 0 0.6 0" in="shadowOffsetOuter1"/></filter><path id="em" d="M0 0h177v300H0z"/><mask id="eH" x="0" y="0" width="177" height="300" fill="#fff"><use xlink:href="#em"/></mask><rect id="en" x="73" y="20" width="30" height="30" rx="36"/><mask id="eI" x="0" y="0" width="30" height="30" fill="#fff"><use xlink:href="#en"/></mask><path id="eo" d="M12 60h153v170H12z"/><mask id="eJ" x="0" y="0" width="153" height="170" fill="#fff"><use xlink:href="#eo"/></mask><path id="ep" d="M0 0h177v300H0z"/><mask id="eK" x="0" y="0" width="177" height="300" fill="#fff"><use xlink:href="#ep"/></mask><rect id="eq" x="74" y="20" width="30" height="30" rx="36"/><mask id="eL" x="0" y="0" width="30" height="30" fill="#fff"><use xlink:href="#eq"/></mask></defs><g fill="none" fill-rule="evenodd"><use stroke-opacity=".6" stroke="#FFF" mask="url(#er)" stroke-width="2" fill-opacity=".1" fill="#FFF" xlink:href="#ea"/><use stroke-opacity=".6" stroke="#FFF" mask="url(#es)" stroke-width="2" fill-opacity=".1" fill="#FFF" xlink:href="#eb"/><use stroke-opacity=".6" stroke="#FFF" mask="url(#et)" stroke-width="2" fill-opacity=".1" fill="#FFF" xlink:href="#ec"/><rect fill-opacity=".6" fill="#FFF" x="59" y="165" width="60" height="20" rx="3"/><use fill="#000" filter="url(#eu)" xlink:href="#ev"/><use fill-opacity=".1" fill="#FFF" xlink:href="#ev"/><path fill-opacity=".1" fill="#FFF" d="M29 105h120v10H29zM29 125h120v10H29zM29 145h120v10H29zM29 210h120v10H29zM59 230h60v10H59z"/><text font-family="HelveticaNeue, Helvetica Neue" font-size="16" fill-opacity=".6" fill="#FFF"><tspan x="47.764" y="325">Notification</tspan></text><g transform="translate(233)" fill="#FFF"><use stroke-opacity=".6" stroke="#FFF" mask="url(#ew)" stroke-width="2" fill-opacity=".1" xlink:href="#ed"/><text font-family="HelveticaNeue, Helvetica Neue" font-size="16" fill-opacity=".6"><tspan x="50.292" y="325">Newsletter</tspan></text><use stroke-opacity=".6" stroke="#FFF" mask="url(#ex)" stroke-width="2" fill-opacity=".1" xlink:href="#ee"/><use stroke-opacity=".6" stroke="#FFF" mask="url(#ey)" stroke-width="2" fill-opacity=".1" xlink:href="#ef"/><rect fill-opacity=".6" x="59" y="236" width="60" height="20" rx="3"/><use stroke-opacity=".6" stroke="#FFF" mask="url(#ez)" stroke-width="2" fill-opacity=".1" xlink:href="#eg"/><path fill-opacity=".1" d="M29 135h120v10H29z"/><use stroke-opacity=".6" stroke="#FFF" mask="url(#eA)" stroke-width="2" fill-opacity=".1" xlink:href="#eh"/><path fill-opacity=".1" d="M29 215h55v10H29z"/><use stroke-opacity=".6" stroke="#FFF" mask="url(#eB)" stroke-width="2" fill-opacity=".1" xlink:href="#ei"/><path fill-opacity=".1" d="M94 215h55v10H94z"/></g><g transform="translate(467)"><use stroke-opacity=".6" stroke="#FFF" mask="url(#eC)" stroke-width="2" fill-opacity=".1" fill="#FFF" xlink:href="#ej"/><text font-family="HelveticaNeue, Helvetica Neue" font-size="16" fill-opacity=".6" fill="#FFF"><tspan x="56.468" y="325">Welcome</tspan></text><use stroke-opacity=".6" stroke="#FFF" mask="url(#eD)" stroke-width="2" fill-opacity=".1" fill="#FFF" xlink:href="#ek"/><rect fill-opacity=".6" fill="#FFF" x="81" y="260" width="15" height="15" rx="36"/><rect fill-opacity=".6" fill="#FFF" x="61" y="260" width="15" height="15" rx="36"/><rect fill-opacity=".6" fill="#FFF" x="41" y="260" width="15" height="15" rx="36"/><rect fill-opacity=".6" fill="#FFF" x="101" y="260" width="15" height="15" rx="36"/><rect fill-opacity=".6" fill="#FFF" x="121" y="260" width="15" height="15" rx="36"/><use stroke-opacity=".6" stroke="#FFF" mask="url(#eE)" stroke-width="2" fill-opacity=".1" fill="#FFF" xlink:href="#el"/><use fill="#000" filter="url(#eF)" xlink:href="#eG"/><use fill-opacity=".1" fill="#FFF" xlink:href="#eG"/><rect fill-opacity=".6" fill="#FFF" x="29" y="165" width="45" height="10" rx="2"/><path fill-opacity=".1" fill="#FFF" d="M29 125h60v10H29zM29 145h120v10H29z"/><rect fill-opacity=".6" fill="#FFF" x="29" y="225" width="45" height="10" rx="2"/><path fill-opacity=".1" fill="#FFF" d="M29 185h60v10H29zM29 205h120v10H29z"/></g><g transform="translate(701)"><use stroke-opacity=".6" stroke="#FFF" mask="url(#eH)" stroke-width="2" fill-opacity=".1" fill="#FFF" xlink:href="#em"/><text font-family="HelveticaNeue, Helvetica Neue" font-size="16" fill-opacity=".6" fill="#FFF"><tspan x="61.092" y="325">Receipt</tspan></text><use stroke-opacity=".6" stroke="#FFF" mask="url(#eI)" stroke-width="2" fill-opacity=".1" fill="#FFF" xlink:href="#en"/><use stroke-opacity=".6" stroke="#FFF" mask="url(#eJ)" stroke-width="2" fill-opacity=".1" fill="#FFF" xlink:href="#eo"/><path fill-opacity=".1" fill="#FFF" d="M58 75h60v10H58zM28 95h120v10H28z"/><path d="M28 126h120M28 136h120M28 146h120M28 156h120M117.463 166H148M117.463 178H148" stroke="#FFF" stroke-linecap="square" opacity=".6"/><rect fill-opacity=".6" fill="#FFF" x="58" y="195" width="60" height="20" rx="3"/><rect fill-opacity=".6" fill="#FFF" x="34" y="260" width="30" height="10" rx="2"/><rect fill-opacity=".6" fill="#FFF" x="74" y="260" width="30" height="10" rx="2"/><rect fill-opacity=".6" fill="#FFF" x="114" y="260" width="30" height="10" rx="2"/><path fill-opacity=".1" fill="#FFF" d="M28 240h120v10H28z"/></g><g transform="translate(933)" fill="#FFF"><use stroke-opacity=".6" stroke="#FFF" mask="url(#eK)" stroke-width="2" fill-opacity=".1" xlink:href="#ep"/><text font-family="HelveticaNeue, Helvetica Neue" font-size="16" fill-opacity=".6"><tspan x="71.02" y="325">Plain</tspan></text><use stroke-opacity=".6" stroke="#FFF" mask="url(#eL)" stroke-width="2" fill-opacity=".1" xlink:href="#eq"/><path fill-opacity=".1" d="M16 75h60v10H16zM16 95h120v10H16zM16 115h120v10H16zM16 135h120v10H16z"/><rect fill-opacity=".6" x="16" y="155" width="60" height="20" rx="3"/><path fill-opacity=".1" d="M16 185h80v10H16zM16 205h80v10H16z"/></g></g></symbol><symbol viewBox="0 0 64 52" id="_assets--img--src--time"><title>time</title><g fill="none" fill-rule="evenodd"><path d="M7.303 8.994L12.35 3.95l1.68 1.68-6.727 6.727-1.68-1.68.001-.001L3.94 8.99l1.68-1.68 1.683 1.683zM10.465 0v2.376h-5.71a2.376 2.376 0 0 0-2.377 2.375v6.418a2.376 2.376 0 0 0 2.378 2.375h6.423a2.376 2.376 0 0 0 2.378-2.375v-4.04h2.378v4.04a4.754 4.754 0 0 1-4.756 4.751H4.756A4.754 4.754 0 0 1 0 11.17V4.75A4.754 4.754 0 0 1 4.756 0h5.709zM0 22.573a4.754 4.754 0 0 1 4.756-4.752h6.423a4.754 4.754 0 0 1 4.756 4.752v6.417a4.754 4.754 0 0 1-4.756 4.752H4.756A4.754 4.754 0 0 1 0 28.99v-6.417zm2.378 0v6.417a2.376 2.376 0 0 0 2.378 2.375h6.423a2.376 2.376 0 0 0 2.378-2.375v-6.417a2.376 2.376 0 0 0-2.378-2.376H4.756a2.376 2.376 0 0 0-2.378 2.376zM0 40.393a4.754 4.754 0 0 1 4.756-4.75h6.423a4.754 4.754 0 0 1 4.756 4.75v6.418a4.754 4.754 0 0 1-4.756 4.752H4.756A4.754 4.754 0 0 1 0 46.81v-6.417zm2.378 0v6.418a2.376 2.376 0 0 0 2.378 2.376h6.423a2.376 2.376 0 0 0 2.378-2.376v-6.417a2.376 2.376 0 0 0-2.378-2.375H4.756a2.376 2.376 0 0 0-2.378 2.375z" fill="#AE2BCA" fill-rule="nonzero"/><path fill="#E92D79" d="M19.951 21.895H64v2.591H19.951zM19.951 27.077h19.433v2.591H19.951zM19.951 39.514h32.777v2.591H19.951zM19.951 44.696h28.113v2.591H19.951zM22.552 6.605c-.01.167-.047.318-.108.451a1.05 1.05 0 0 1-.616.56c-.143.05-.3.076-.474.076-.196 0-.37-.037-.521-.109a1.067 1.067 0 0 1-.383-.303 1.38 1.38 0 0 1-.237-.468 2.086 2.086 0 0 1-.082-.6v-.447c0-.22.03-.421.087-.604.058-.182.14-.338.246-.469a1.107 1.107 0 0 1 .895-.412c.182 0 .344.026.486.078.142.051.263.125.363.22.1.096.18.213.237.351.058.138.094.294.11.467h-.638a1.086 1.086 0 0 0-.045-.26.493.493 0 0 0-.102-.185.42.42 0 0 0-.169-.112.699.699 0 0 0-.242-.037.502.502 0 0 0-.258.063.504.504 0 0 0-.18.187.951.951 0 0 0-.106.302 2.18 2.18 0 0 0-.035.406v.451c0 .327.046.568.138.724.092.157.237.235.436.235.167 0 .3-.044.397-.133.097-.089.15-.233.161-.432h.64zm.433-.216c0-.18.026-.345.077-.498.052-.152.127-.285.227-.397.1-.112.22-.2.364-.264s.308-.096.493-.096.35.032.494.096c.145.064.267.152.366.264.1.112.175.245.227.397.051.153.077.319.077.498v.048c0 .18-.026.347-.077.5a1.156 1.156 0 0 1-.226.397c-.099.112-.22.2-.364.263a1.218 1.218 0 0 1-.492.095c-.185 0-.35-.032-.496-.095a1.03 1.03 0 0 1-.366-.263 1.146 1.146 0 0 1-.227-.397 1.551 1.551 0 0 1-.077-.5v-.048zm.633.048c0 .103.01.2.03.29.02.09.05.17.093.237a.477.477 0 0 0 .165.16c.068.04.15.06.245.06.092 0 .172-.02.239-.06a.47.47 0 0 0 .163-.16.753.753 0 0 0 .092-.237c.02-.09.03-.187.03-.29v-.048c0-.1-.01-.195-.03-.285a.767.767 0 0 0-.092-.237.468.468 0 0 0-.163-.161.471.471 0 0 0-.244-.06.466.466 0 0 0-.241.06.477.477 0 0 0-.164.161.75.75 0 0 0-.093.237c-.02.09-.03.185-.03.285v.048zm2.186-.044a1.9 1.9 0 0 1 .065-.512c.043-.155.107-.288.19-.398a.874.874 0 0 1 .304-.258.888.888 0 0 1 .409-.09c.13 0 .243.022.34.069a.814.814 0 0 1 .261.197V4.146h.636v3.498h-.572l-.032-.258a.836.836 0 0 1-.273.224.795.795 0 0 1-.365.08.852.852 0 0 1-.707-.356 1.218 1.218 0 0 1-.19-.395 1.789 1.789 0 0 1-.066-.498v-.048zm.633.048c0 .104.009.2.026.288a.72.72 0 0 0 .086.233c.04.066.09.118.152.156a.43.43 0 0 0 .228.057c.11 0 .2-.024.272-.071a.501.501 0 0 0 .172-.194v-.997a.492.492 0 0 0-.17-.195.484.484 0 0 0-.27-.07c-.089 0-.165.02-.228.059a.45.45 0 0 0-.154.16.767.767 0 0 0-.086.236c-.019.09-.028.187-.028.29v.048zm3.428 1.248c-.19 0-.362-.03-.517-.093a1.223 1.223 0 0 1-.399-.254 1.108 1.108 0 0 1-.256-.378c-.06-.145-.09-.3-.09-.466v-.09c0-.19.03-.361.089-.517.059-.155.142-.29.248-.402.106-.112.232-.2.378-.262a1.2 1.2 0 0 1 .476-.093c.178 0 .336.03.475.088.139.058.256.14.353.247.096.106.17.234.22.384.05.15.075.314.075.495v.269h-1.672c.012.083.037.16.074.229a.63.63 0 0 0 .34.294.702.702 0 0 0 .244.041.956.956 0 0 0 .362-.071.794.794 0 0 0 .158-.088.612.612 0 0 0 .127-.123l.317.342a.905.905 0 0 1-.154.165 1.044 1.044 0 0 1-.223.143 1.437 1.437 0 0 1-.625.14zm-.076-2.042a.462.462 0 0 0-.352.146.623.623 0 0 0-.112.168.922.922 0 0 0-.068.218h1.038v-.05a.599.599 0 0 0-.039-.189.444.444 0 0 0-.254-.256.561.561 0 0 0-.213-.037zm6.495.544h-1.361v.936h1.591v.517H34.28V4.328h2.228v.521h-1.585v.836h1.361v.506zM37.46 5.18l.018.298a.616.616 0 0 1 .194-.252.492.492 0 0 1 .302-.092c.2 0 .329.087.39.262a.55.55 0 0 1 .185-.192.509.509 0 0 1 .272-.07c.075 0 .144.014.209.041.064.027.12.071.168.131a.65.65 0 0 1 .112.232c.026.095.04.211.04.348v1.758h-.576v-1.76a.383.383 0 0 0-.015-.117.185.185 0 0 0-.04-.072.135.135 0 0 0-.058-.036.225.225 0 0 0-.179.02.204.204 0 0 0-.07.084v1.88h-.559V5.882a.412.412 0 0 0-.013-.116.172.172 0 0 0-.038-.07.132.132 0 0 0-.056-.036.222.222 0 0 0-.068-.01.166.166 0 0 0-.117.04.274.274 0 0 0-.07.11v1.845h-.576V5.18h.545zm3.944 2.464a.56.56 0 0 1-.039-.105c-.01-.04-.02-.081-.027-.125a.83.83 0 0 1-.272.194 1.025 1.025 0 0 1-.4.08c-.126.001-.242-.017-.347-.053a.825.825 0 0 1-.272-.153.695.695 0 0 1-.242-.528c0-.26.097-.46.29-.603.194-.142.483-.213.867-.213h.353v-.145a.358.358 0 0 0-.116-.282c-.078-.069-.19-.103-.335-.103-.129 0-.223.028-.282.083a.29.29 0 0 0-.09.222h-.632c0-.105.023-.204.07-.298a.732.732 0 0 1 .202-.249c.089-.071.197-.128.326-.17.128-.041.275-.062.44-.062.15 0 .288.018.416.055.128.036.24.09.334.161a.744.744 0 0 1 .22.27c.054.109.08.235.08.377v1.057c0 .132.008.241.025.328.017.086.041.16.073.223v.039h-.642zM40.8 7.2a.662.662 0 0 0 .44-.165.436.436 0 0 0 .075-.095v-.424h-.323a.975.975 0 0 0-.253.029.482.482 0 0 0-.17.08.318.318 0 0 0-.099.123.38.38 0 0 0-.032.156c0 .085.03.155.09.211.06.057.15.085.272.085zm2.032-2.02h1.341v1.949h.667v.515h-2.008v-.515h.701V5.697h-.701V5.18zm.656-.631c0-.049.008-.094.026-.136a.304.304 0 0 1 .074-.107.343.343 0 0 1 .115-.07.424.424 0 0 1 .149-.024c.112 0 .202.031.268.094a.32.32 0 0 1 .099.243.32.32 0 0 1-.1.242.372.372 0 0 1-.267.095.424.424 0 0 1-.15-.025.343.343 0 0 1-.114-.07.304.304 0 0 1-.074-.107.348.348 0 0 1-.026-.135zm2.106-.403h1.378v2.983h.706v.515h-2.084v-.515h.738V4.663h-.738v-.517zM22.686 10.29h-1.022v2.794h-.642v-2.794h-1.01v-.522h2.674v.522zm1.581 2.84c-.19 0-.362-.032-.517-.094a1.223 1.223 0 0 1-.399-.254 1.108 1.108 0 0 1-.256-.378c-.06-.145-.09-.3-.09-.465v-.092c0-.188.03-.36.09-.515a1.12 1.12 0 0 1 .626-.664 1.2 1.2 0 0 1 .475-.094c.178 0 .336.03.475.088.14.059.257.14.353.247.097.106.17.234.22.384.05.15.075.315.075.495v.269h-1.671c.012.083.036.16.074.229a.63.63 0 0 0 .34.295.702.702 0 0 0 .244.04.956.956 0 0 0 .362-.071.794.794 0 0 0 .157-.088.612.612 0 0 0 .127-.123l.317.342a.905.905 0 0 1-.154.165 1.044 1.044 0 0 1-.223.144 1.437 1.437 0 0 1-.625.14zm-.075-2.043a.462.462 0 0 0-.352.146.623.623 0 0 0-.113.168.922.922 0 0 0-.068.219h1.038v-.05a.599.599 0 0 0-.038-.19.444.444 0 0 0-.254-.256.561.561 0 0 0-.213-.037zm2.072-.467l.018.298a.616.616 0 0 1 .195-.251.492.492 0 0 1 .302-.093c.199 0 .329.088.39.262a.55.55 0 0 1 .185-.192.509.509 0 0 1 .272-.07c.074 0 .144.014.208.041.065.028.121.071.169.131a.65.65 0 0 1 .111.233c.027.095.04.21.04.347v1.758h-.576v-1.76a.383.383 0 0 0-.015-.116.185.185 0 0 0-.04-.072.135.135 0 0 0-.058-.037.225.225 0 0 0-.178.02.204.204 0 0 0-.07.084v1.881h-.559v-1.763a.412.412 0 0 0-.014-.116.172.172 0 0 0-.037-.07.132.132 0 0 0-.056-.036.222.222 0 0 0-.068-.01.166.166 0 0 0-.117.041.274.274 0 0 0-.07.11v1.844h-.576v-2.464h.544zm4.619 1.255c0 .179-.021.345-.063.498a1.207 1.207 0 0 1-.184.398.88.88 0 0 1-.302.263.865.865 0 0 1-.412.096.834.834 0 0 1-.349-.069.794.794 0 0 1-.262-.191v1.161h-.633v-3.411h.585l.023.241a.804.804 0 0 1 .269-.211.82.82 0 0 1 .362-.076.844.844 0 0 1 .717.345c.082.11.144.243.186.397.042.154.063.324.063.51v.049zm-.634-.048c0-.103-.009-.2-.028-.29a.74.74 0 0 0-.089-.235.455.455 0 0 0-.155-.156.436.436 0 0 0-.229-.057.514.514 0 0 0-.272.065.44.44 0 0 0-.165.183v1.03c.04.077.095.139.165.185.07.047.163.07.277.07.09 0 .166-.02.229-.06a.456.456 0 0 0 .154-.161.781.781 0 0 0 .086-.238c.018-.09.027-.187.027-.288v-.048zm1.35-2.241h1.379v2.983h.706v.515H31.6v-.515h.738v-2.466H31.6v-.517zm4.207 3.498a.56.56 0 0 1-.039-.105c-.01-.04-.02-.081-.027-.125a.83.83 0 0 1-.272.195 1.025 1.025 0 0 1-.4.08c-.126 0-.241-.018-.347-.054a.825.825 0 0 1-.272-.153.695.695 0 0 1-.242-.528c0-.26.097-.46.29-.602.194-.142.483-.213.867-.213h.353v-.146a.358.358 0 0 0-.116-.281c-.077-.07-.189-.104-.335-.104-.129 0-.223.028-.282.083a.29.29 0 0 0-.089.222h-.633c0-.105.023-.204.07-.298a.732.732 0 0 1 .202-.248c.09-.072.198-.128.326-.17.128-.042.275-.063.44-.063.15 0 .288.019.416.055.129.036.24.09.334.162a.744.744 0 0 1 .22.27c.054.108.08.234.08.377v1.056c0 .132.009.242.026.328.016.087.04.161.072.223v.039h-.642zm-.603-.444a.662.662 0 0 0 .44-.165.436.436 0 0 0 .074-.095v-.423h-.323a.975.975 0 0 0-.253.028.482.482 0 0 0-.17.08.318.318 0 0 0-.099.123.38.38 0 0 0-.031.156c0 .085.03.156.09.212.06.056.15.084.272.084zm3.024-2.624v.604h.92v.467h-.92v1.059c0 .09.01.164.03.224.021.06.05.108.088.144a.327.327 0 0 0 .138.076.667.667 0 0 0 .181.023 2.57 2.57 0 0 0 .528-.068l.062.434a.772.772 0 0 1-.155.067c-.059.02-.122.035-.189.047a2.464 2.464 0 0 1-.421.039c-.135 0-.258-.018-.368-.054a.722.722 0 0 1-.282-.166.746.746 0 0 1-.181-.287 1.219 1.219 0 0 1-.064-.418v-1.12h-.563v-.467h.563v-.604h.633zm2.833 3.114c-.19 0-.362-.032-.517-.094a1.223 1.223 0 0 1-.399-.254 1.108 1.108 0 0 1-.256-.378c-.06-.145-.09-.3-.09-.465v-.092c0-.188.03-.36.09-.515a1.12 1.12 0 0 1 .626-.664 1.2 1.2 0 0 1 .475-.094c.178 0 .336.03.475.088.14.059.257.14.353.247.097.106.17.234.22.384.05.15.075.315.075.495v.269h-1.671c.012.083.036.16.074.229a.63.63 0 0 0 .34.295.702.702 0 0 0 .244.04.956.956 0 0 0 .362-.071.794.794 0 0 0 .157-.088.612.612 0 0 0 .127-.123l.317.342a.905.905 0 0 1-.154.165 1.044 1.044 0 0 1-.223.144 1.437 1.437 0 0 1-.625.14zm-.075-2.043a.462.462 0 0 0-.352.146.623.623 0 0 0-.113.168.922.922 0 0 0-.068.219h1.038v-.05a.599.599 0 0 0-.038-.19.444.444 0 0 0-.254-.256.561.561 0 0 0-.213-.037zm3.268 1.32a.19.19 0 0 0-.026-.1.246.246 0 0 0-.094-.08.854.854 0 0 0-.179-.07 3.183 3.183 0 0 0-.282-.064 2.725 2.725 0 0 1-.395-.108 1.245 1.245 0 0 1-.306-.157.713.713 0 0 1-.2-.213.533.533 0 0 1-.071-.278.62.62 0 0 1 .073-.291.74.74 0 0 1 .209-.244c.091-.07.202-.125.333-.166.13-.041.277-.062.441-.062.172 0 .326.02.463.06.136.041.252.096.347.167.095.07.167.154.217.252a.68.68 0 0 1 .076.316h-.634a.3.3 0 0 0-.116-.24c-.077-.065-.195-.097-.353-.097-.147 0-.258.027-.333.08-.075.053-.113.118-.113.196 0 .036.008.07.023.101s.042.06.08.084a.643.643 0 0 0 .159.069c.067.02.152.038.255.053.149.024.287.056.414.094.128.037.238.086.33.146.093.06.166.133.218.219a.576.576 0 0 1 .079.306c0 .11-.027.21-.079.302a.73.73 0 0 1-.223.238 1.13 1.13 0 0 1-.35.156c-.136.037-.289.056-.457.056-.186 0-.35-.024-.491-.073a1.141 1.141 0 0 1-.357-.19.808.808 0 0 1-.217-.267.668.668 0 0 1-.074-.3h.603a.347.347 0 0 0 .178.289c.05.03.107.051.172.065a.96.96 0 0 0 .2.02.693.693 0 0 0 .357-.075c.082-.05.123-.114.123-.193z"/></g></symbol><symbol viewBox="0 0 48 48" id="_assets--img--src--unhappy"><path d="M24 47.998C10.767 47.998.001 37.232.001 23.999.001 10.766 10.767 0 24 0c13.233 0 23.999 10.766 23.999 23.999 0 13.233-10.766 23.999-23.999 23.999zM24 2C11.87 2 2.001 11.869 2.001 23.999c0 12.13 9.869 21.999 21.999 21.999 12.13 0 21.999-9.869 21.999-21.999C45.999 11.869 36.13 2 24 2z"/><path d="M15.828 25.343c-2.559 0-4.563-2.938-4.563-6.69s2.004-6.69 4.563-6.69 4.563 2.938 4.563 6.69-2.004 6.69-4.563 6.69zm0-11.38c-1.212 0-2.563 1.926-2.563 4.69s1.351 4.69 2.563 4.69 2.563-1.926 2.563-4.69-1.35-4.69-2.563-4.69zM32.169 25.343c-2.558 0-4.562-2.938-4.562-6.69 0-3.752 2.004-6.691 4.562-6.691 2.559 0 4.563 2.939 4.563 6.691 0 3.751-2.004 6.69-4.563 6.69zm0-11.381c-1.212 0-2.562 1.926-2.562 4.691 0 2.764 1.35 4.69 2.562 4.69 1.213 0 2.563-1.926 2.563-4.69 0-2.765-1.35-4.691-2.563-4.691zM14.057 38.208l-1.673-1.096a13.91 13.91 0 0 1 11.666-6.306c4.638 0 8.959 2.297 11.558 6.144l-1.656 1.119a11.94 11.94 0 0 0-9.901-5.263 11.916 11.916 0 0 0-9.994 5.402zM18.763 12.714c-1.5-2.876-4.412-3.69-4.441-3.698l.509-1.935c.153.04 3.784 1.023 5.706 4.708l-1.774.925zM28.363 12.714l-1.773-.924c1.921-3.684 5.552-4.667 5.706-4.708l.508 1.935c-.029.007-2.941.821-4.441 3.697z"/></symbol></svg>