<?xml version="1.0" encoding="utf-8"?><!DOCTYPE svg PUBLIC "-//W3C//DTD SVG 1.1//EN" "http://www.w3.org/Graphics/SVG/1.1/DTD/svg11.dtd"><svg xmlns="http://www.w3.org/2000/svg" xmlns:xlink="http://www.w3.org/1999/xlink"><symbol viewBox="0 0 48 48" id="_assets--img--src--responsive"><path d="M40 48H8c-4.411 0-8-3.589-8-8V8c0-4.411 3.589-8 8-8h32c4.411 0 8 3.589 8 8v32c0 4.411-3.589 8-8 8zM8 2C4.691 2 2 4.691 2 8v32c0 3.309 2.691 6 6 6h32c3.309 0 6-2.691 6-6V8c0-3.309-2.691-6-6-6H8z"/><path d="M7.113 5.568l8.832 8.833-1.414 1.414-8.833-8.832z"/><path d="M7.404 17.085h-2l.001-11.809h11.807v2H7.405z"/><g><path d="M14.531 32.184l1.414 1.415-8.834 8.833-1.414-1.414z"/><path d="M17.212 42.727H5.405l-.001-11.811h2l.001 9.811h9.807z"/></g><g><path d="M40.889 5.57l1.414 1.413-8.832 8.833-1.415-1.415z"/><path d="M42.596 17.085h-2V7.276h-9.808v-2h11.808z"/><g><path d="M33.47 32.187l8.833 8.836-1.414 1.414-8.833-8.836z"/><path d="M42.596 42.727H30.788v-2h9.808v-9.811h2z"/></g></g></symbol><symbol viewBox="0 0 1110 329" id="_assets--img--src--templates"><title>templates</title><defs><path id="ba" d="M0 0h177v300H0z"/><mask id="br" x="0" y="0" width="177" height="300" fill="#fff"><use xlink:href="#ba"/></mask><rect id="bb" x="74" y="20" width="30" height="30" rx="36"/><mask id="bs" x="0" y="0" width="30" height="30" fill="#fff"><use xlink:href="#bb"/></mask><path id="bc" d="M13 60h153v140H13z"/><mask id="bt" x="0" y="0" width="153" height="140" fill="#fff"><use xlink:href="#bc"/></mask><path id="bv" d="M12 60h153v30H12z"/><filter x="-50%" y="-50%" width="200%" height="200%" filterUnits="objectBoundingBox" id="bu"><feOffset dy="1" in="SourceAlpha" result="shadowOffsetOuter1"/><feComposite in="shadowOffsetOuter1" in2="SourceAlpha" operator="out" result="shadowOffsetOuter1"/><feColorMatrix values="0 0 0 0 1 0 0 0 0 1 0 0 0 0 1 0 0 0 0.6 0" in="shadowOffsetOuter1"/></filter><path id="bd" d="M0 0h177v300H0z"/><mask id="bw" x="0" y="0" width="177" height="300" fill="#fff"><use xlink:href="#bd"/></mask><rect id="be" x="74" y="20" width="30" height="30" rx="36"/><mask id="bx" x="0" y="0" width="30" height="30" fill="#fff"><use xlink:href="#be"/></mask><path id="bf" d="M12 60h153v210H12z"/><mask id="by" x="0" y="0" width="153" height="210" fill="#fff"><use xlink:href="#bf"/></mask><path id="bg" d="M29 75h120v50H29z"/><mask id="bz" x="0" y="0" width="120" height="50" fill="#fff"><use xlink:href="#bg"/></mask><path id="bh" d="M29 155h55v50H29z"/><mask id="bA" x="0" y="0" width="55" height="50" fill="#fff"><use xlink:href="#bh"/></mask><path id="bi" d="M94 155h55v50H94z"/><mask id="bB" x="0" y="0" width="55" height="50" fill="#fff"><use xlink:href="#bi"/></mask><path id="bj" d="M0 0h177v300H0z"/><mask id="bC" x="0" y="0" width="177" height="300" fill="#fff"><use xlink:href="#bj"/></mask><rect id="bk" x="74" y="20" width="30" height="30" rx="36"/><mask id="bD" x="0" y="0" width="30" height="30" fill="#fff"><use xlink:href="#bk"/></mask><path id="bl" d="M12 60h153v190H12z"/><mask id="bE" x="0" y="0" width="153" height="190" fill="#fff"><use xlink:href="#bl"/></mask><path id="bG" d="M12 60h153v50H12z"/><filter x="-50%" y="-50%" width="200%" height="200%" filterUnits="objectBoundingBox" id="bF"><feOffset dy="1" in="SourceAlpha" result="shadowOffsetOuter1"/><feComposite in="shadowOffsetOuter1" in2="SourceAlpha" operator="out" result="shadowOffsetOuter1"/><feColorMatrix values="0 0 0 0 1 0 0 0 0 1 0 0 0 0 1 0 0 0 0.6 0" in="shadowOffsetOuter1"/></filter><path id="bm" d="M0 0h177v300H0z"/><mask id="bH" x="0" y="0" width="177" height="300" fill="#fff"><use xlink:href="#bm"/></mask><rect id="bn" x="73" y="20" width="30" height="30" rx="36"/><mask id="bI" x="0" y="0" width="30" height="30" fill="#fff"><use xlink:href="#bn"/></mask><path id="bo" d="M12 60h153v170H12z"/><mask id="bJ" x="0" y="0" width="153" height="170" fill="#fff"><use xlink:href="#bo"/></mask><path id="bp" d="M0 0h177v300H0z"/><mask id="bK" x="0" y="0" width="177" height="300" fill="#fff"><use xlink:href="#bp"/></mask><rect id="bq" x="74" y="20" width="30" height="30" rx="36"/><mask id="bL" x="0" y="0" width="30" height="30" fill="#fff"><use xlink:href="#bq"/></mask></defs><g fill="none" fill-rule="evenodd"><use stroke-opacity=".6" stroke="#FFF" mask="url(#br)" stroke-width="2" fill-opacity=".1" fill="#FFF" xlink:href="#ba"/><use stroke-opacity=".6" stroke="#FFF" mask="url(#bs)" stroke-width="2" fill-opacity=".1" fill="#FFF" xlink:href="#bb"/><use stroke-opacity=".6" stroke="#FFF" mask="url(#bt)" stroke-width="2" fill-opacity=".1" fill="#FFF" xlink:href="#bc"/><rect fill-opacity=".6" fill="#FFF" x="59" y="165" width="60" height="20" rx="3"/><use fill="#000" filter="url(#bu)" xlink:href="#bv"/><use fill-opacity=".1" fill="#FFF" xlink:href="#bv"/><path fill-opacity=".1" fill="#FFF" d="M29 105h120v10H29zM29 125h120v10H29zM29 145h120v10H29zM29 210h120v10H29zM59 230h60v10H59z"/><text font-family="HelveticaNeue, Helvetica Neue" font-size="16" fill-opacity=".6" fill="#FFF"><tspan x="47.764" y="325">Notification</tspan></text><g transform="translate(233)" fill="#FFF"><use stroke-opacity=".6" stroke="#FFF" mask="url(#bw)" stroke-width="2" fill-opacity=".1" xlink:href="#bd"/><text font-family="HelveticaNeue, Helvetica Neue" font-size="16" fill-opacity=".6"><tspan x="50.292" y="325">Newsletter</tspan></text><use stroke-opacity=".6" stroke="#FFF" mask="url(#bx)" stroke-width="2" fill-opacity=".1" xlink:href="#be"/><use stroke-opacity=".6" stroke="#FFF" mask="url(#by)" stroke-width="2" fill-opacity=".1" xlink:href="#bf"/><rect fill-opacity=".6" x="59" y="236" width="60" height="20" rx="3"/><use stroke-opacity=".6" stroke="#FFF" mask="url(#bz)" stroke-width="2" fill-opacity=".1" xlink:href="#bg"/><path fill-opacity=".1" d="M29 135h120v10H29z"/><use stroke-opacity=".6" stroke="#FFF" mask="url(#bA)" stroke-width="2" fill-opacity=".1" xlink:href="#bh"/><path fill-opacity=".1" d="M29 215h55v10H29z"/><use stroke-opacity=".6" stroke="#FFF" mask="url(#bB)" stroke-width="2" fill-opacity=".1" xlink:href="#bi"/><path fill-opacity=".1" d="M94 215h55v10H94z"/></g><g transform="translate(467)"><use stroke-opacity=".6" stroke="#FFF" mask="url(#bC)" stroke-width="2" fill-opacity=".1" fill="#FFF" xlink:href="#bj"/><text font-family="HelveticaNeue, Helvetica Neue" font-size="16" fill-opacity=".6" fill="#FFF"><tspan x="56.468" y="325">Welcome</tspan></text><use stroke-opacity=".6" stroke="#FFF" mask="url(#bD)" stroke-width="2" fill-opacity=".1" fill="#FFF" xlink:href="#bk"/><rect fill-opacity=".6" fill="#FFF" x="81" y="260" width="15" height="15" rx="36"/><rect fill-opacity=".6" fill="#FFF" x="61" y="260" width="15" height="15" rx="36"/><rect fill-opacity=".6" fill="#FFF" x="41" y="260" width="15" height="15" rx="36"/><rect fill-opacity=".6" fill="#FFF" x="101" y="260" width="15" height="15" rx="36"/><rect fill-opacity=".6" fill="#FFF" x="121" y="260" width="15" height="15" rx="36"/><use stroke-opacity=".6" stroke="#FFF" mask="url(#bE)" stroke-width="2" fill-opacity=".1" fill="#FFF" xlink:href="#bl"/><use fill="#000" filter="url(#bF)" xlink:href="#bG"/><use fill-opacity=".1" fill="#FFF" xlink:href="#bG"/><rect fill-opacity=".6" fill="#FFF" x="29" y="165" width="45" height="10" rx="2"/><path fill-opacity=".1" fill="#FFF" d="M29 125h60v10H29zM29 145h120v10H29z"/><rect fill-opacity=".6" fill="#FFF" x="29" y="225" width="45" height="10" rx="2"/><path fill-opacity=".1" fill="#FFF" d="M29 185h60v10H29zM29 205h120v10H29z"/></g><g transform="translate(701)"><use stroke-opacity=".6" stroke="#FFF" mask="url(#bH)" stroke-width="2" fill-opacity=".1" fill="#FFF" xlink:href="#bm"/><text font-family="HelveticaNeue, Helvetica Neue" font-size="16" fill-opacity=".6" fill="#FFF"><tspan x="61.092" y="325">Receipt</tspan></text><use stroke-opacity=".6" stroke="#FFF" mask="url(#bI)" stroke-width="2" fill-opacity=".1" fill="#FFF" xlink:href="#bn"/><use stroke-opacity=".6" stroke="#FFF" mask="url(#bJ)" stroke-width="2" fill-opacity=".1" fill="#FFF" xlink:href="#bo"/><path fill-opacity=".1" fill="#FFF" d="M58 75h60v10H58zM28 95h120v10H28z"/><path d="M28 126h120M28 136h120M28 146h120M28 156h120M117.463 166H148M117.463 178H148" stroke="#FFF" stroke-linecap="square" opacity=".6"/><rect fill-opacity=".6" fill="#FFF" x="58" y="195" width="60" height="20" rx="3"/><rect fill-opacity=".6" fill="#FFF" x="34" y="260" width="30" height="10" rx="2"/><rect fill-opacity=".6" fill="#FFF" x="74" y="260" width="30" height="10" rx="2"/><rect fill-opacity=".6" fill="#FFF" x="114" y="260" width="30" height="10" rx="2"/><path fill-opacity=".1" fill="#FFF" d="M28 240h120v10H28z"/></g><g transform="translate(933)" fill="#FFF"><use stroke-opacity=".6" stroke="#FFF" mask="url(#bK)" stroke-width="2" fill-opacity=".1" xlink:href="#bp"/><text font-family="HelveticaNeue, Helvetica Neue" font-size="16" fill-opacity=".6"><tspan x="71.02" y="325">Plain</tspan></text><use stroke-opacity=".6" stroke="#FFF" mask="url(#bL)" stroke-width="2" fill-opacity=".1" xlink:href="#bq"/><path fill-opacity=".1" d="M16 75h60v10H16zM16 95h120v10H16zM16 115h120v10H16zM16 135h120v10H16z"/><rect fill-opacity=".6" x="16" y="155" width="60" height="20" rx="3"/><path fill-opacity=".1" d="M16 185h80v10H16zM16 205h80v10H16z"/></g></g></symbol><symbol viewBox="0 0 48 48" id="_assets--img--src--unhappy"><path d="M24 47.998C10.767 47.998.001 37.232.001 23.999.001 10.766 10.767 0 24 0c13.233 0 23.999 10.766 23.999 23.999 0 13.233-10.766 23.999-23.999 23.999zM24 2C11.87 2 2.001 11.869 2.001 23.999c0 12.13 9.869 21.999 21.999 21.999 12.13 0 21.999-9.869 21.999-21.999C45.999 11.869 36.13 2 24 2z"/><path d="M15.828 25.343c-2.559 0-4.563-2.938-4.563-6.69s2.004-6.69 4.563-6.69 4.563 2.938 4.563 6.69-2.004 6.69-4.563 6.69zm0-11.38c-1.212 0-2.563 1.926-2.563 4.69s1.351 4.69 2.563 4.69 2.563-1.926 2.563-4.69-1.35-4.69-2.563-4.69zM32.169 25.343c-2.558 0-4.562-2.938-4.562-6.69 0-3.752 2.004-6.691 4.562-6.691 2.559 0 4.563 2.939 4.563 6.691 0 3.751-2.004 6.69-4.563 6.69zm0-11.381c-1.212 0-2.562 1.926-2.562 4.691 0 2.764 1.35 4.69 2.562 4.69 1.213 0 2.563-1.926 2.563-4.69 0-2.765-1.35-4.691-2.563-4.691zM14.057 38.208l-1.673-1.096a13.91 13.91 0 0 1 11.666-6.306c4.638 0 8.959 2.297 11.558 6.144l-1.656 1.119a11.94 11.94 0 0 0-9.901-5.263 11.916 11.916 0 0 0-9.994 5.402zM18.763 12.714c-1.5-2.876-4.412-3.69-4.441-3.698l.509-1.935c.153.04 3.784 1.023 5.706 4.708l-1.774.925zM28.363 12.714l-1.773-.924c1.921-3.684 5.552-4.667 5.706-4.708l.508 1.935c-.029.007-2.941.821-4.441 3.697z"/></symbol></svg>