<?xml version="1.0" encoding="UTF-8" standalone="no"?><!DOCTYPE svg PUBLIC "-//W3C//DTD SVG 1.1//EN" "http://www.w3.org/Graphics/SVG/1.1/DTD/svg11.dtd"><svg xmlns="http://www.w3.org/2000/svg" xmlns:xlink="http://www.w3.org/1999/xlink"><symbol viewBox="0 0 1220 394" id="_assets--img--src--logo"><title>logo</title><g fill="#FFF" fill-rule="evenodd"><path d="M83.234 265v51.016H33.762V265H0v129h33.762v-51.99h49.472V394H117V265zM136 265v25.997h42.268V394h33.658V290.997H254V265zM377.86 265l-20.223 65.87-7.457 27.166h-.394l-7.27-27.361L322.099 265H274v129h30.037v-59.22l-.98-39.677h.39L335.451 394h27.293l32.004-98.897h.394l-.988 39.678V394H424V265zM453 265v129h99v-25.993h-65.151V265zM623 265v129h104v-25.993h-70.06V341.62h53.678v-24.432H656.94v-26.192h67.491V265zM850.861 265l-20.222 65.87-7.46 27.166h-.39l-7.27-27.361L795.101 265H747v129h30.04v-59.22l-.983-39.677h.394L808.453 394h27.289l32.006-98.897h.39l-.983 39.678V394H897V265zM957.43 265L912 394h33.876l9.005-29.12h44.65l8.807 29.12H1043l-45.235-129H957.43zm14.293 45.931l5.289-20.128h.389l5.681 20.326 9.398 30.88h-30.548l9.791-31.078zM1058 394h34V265h-34zM1121 265v129h99v-25.993h-65.151V265zM696.607.577L585 81 475.272.751C459.974 22.638 451 49.271 451 78c0 29.432 9.418 56.663 25.405 78.846L568 95l17 12 18-12 92.524 61.944C711.554 134.744 721 107.475 721 78c0-28.805-9.022-55.503-24.393-77.423z"/></g></symbol><symbol viewBox="0 0 48 48" id="_assets--img--src--responsive"><path d="M40 48H8c-4.411 0-8-3.589-8-8V8c0-4.411 3.589-8 8-8h32c4.411 0 8 3.589 8 8v32c0 4.411-3.589 8-8 8zM8 2C4.691 2 2 4.691 2 8v32c0 3.309 2.691 6 6 6h32c3.309 0 6-2.691 6-6V8c0-3.309-2.691-6-6-6H8z"/><path d="M7.113 5.568l8.832 8.833-1.414 1.414-8.833-8.832z"/><path d="M7.404 17.085h-2l.001-11.809h11.807v2H7.405z"/><g><path d="M14.531 32.184l1.414 1.415-8.834 8.833-1.414-1.414z"/><path d="M17.212 42.727H5.405l-.001-11.811h2l.001 9.811h9.807z"/></g><g><path d="M40.889 5.57l1.414 1.413-8.832 8.833-1.415-1.415z"/><path d="M42.596 17.085h-2V7.276h-9.808v-2h11.808z"/><g><path d="M33.47 32.187l8.833 8.836-1.414 1.414-8.833-8.836z"/><path d="M42.596 42.727H30.788v-2h9.808v-9.811h2z"/></g></g></symbol><symbol viewBox="0 0 1110 329" id="_assets--img--src--templates"><title>templates</title><defs><path id="ca" d="M0 0h177v300H0z"/><mask id="cr" x="0" y="0" width="177" height="300" fill="#fff"><use xlink:href="#ca"/></mask><rect id="cb" x="74" y="20" width="30" height="30" rx="36"/><mask id="cs" x="0" y="0" width="30" height="30" fill="#fff"><use xlink:href="#cb"/></mask><path id="cc" d="M13 60h153v140H13z"/><mask id="ct" x="0" y="0" width="153" height="140" fill="#fff"><use xlink:href="#cc"/></mask><path id="cv" d="M12 60h153v30H12z"/><filter x="-50%" y="-50%" width="200%" height="200%" filterUnits="objectBoundingBox" id="cu"><feOffset dy="1" in="SourceAlpha" result="shadowOffsetOuter1"/><feComposite in="shadowOffsetOuter1" in2="SourceAlpha" operator="out" result="shadowOffsetOuter1"/><feColorMatrix values="0 0 0 0 1 0 0 0 0 1 0 0 0 0 1 0 0 0 0.6 0" in="shadowOffsetOuter1"/></filter><path id="cd" d="M0 0h177v300H0z"/><mask id="cw" x="0" y="0" width="177" height="300" fill="#fff"><use xlink:href="#cd"/></mask><rect id="ce" x="74" y="20" width="30" height="30" rx="36"/><mask id="cx" x="0" y="0" width="30" height="30" fill="#fff"><use xlink:href="#ce"/></mask><path id="cf" d="M12 60h153v210H12z"/><mask id="cy" x="0" y="0" width="153" height="210" fill="#fff"><use xlink:href="#cf"/></mask><path id="cg" d="M29 75h120v50H29z"/><mask id="cz" x="0" y="0" width="120" height="50" fill="#fff"><use xlink:href="#cg"/></mask><path id="ch" d="M29 155h55v50H29z"/><mask id="cA" x="0" y="0" width="55" height="50" fill="#fff"><use xlink:href="#ch"/></mask><path id="ci" d="M94 155h55v50H94z"/><mask id="cB" x="0" y="0" width="55" height="50" fill="#fff"><use xlink:href="#ci"/></mask><path id="cj" d="M0 0h177v300H0z"/><mask id="cC" x="0" y="0" width="177" height="300" fill="#fff"><use xlink:href="#cj"/></mask><rect id="ck" x="74" y="20" width="30" height="30" rx="36"/><mask id="cD" x="0" y="0" width="30" height="30" fill="#fff"><use xlink:href="#ck"/></mask><path id="cl" d="M12 60h153v190H12z"/><mask id="cE" x="0" y="0" width="153" height="190" fill="#fff"><use xlink:href="#cl"/></mask><path id="cG" d="M12 60h153v50H12z"/><filter x="-50%" y="-50%" width="200%" height="200%" filterUnits="objectBoundingBox" id="cF"><feOffset dy="1" in="SourceAlpha" result="shadowOffsetOuter1"/><feComposite in="shadowOffsetOuter1" in2="SourceAlpha" operator="out" result="shadowOffsetOuter1"/><feColorMatrix values="0 0 0 0 1 0 0 0 0 1 0 0 0 0 1 0 0 0 0.6 0" in="shadowOffsetOuter1"/></filter><path id="cm" d="M0 0h177v300H0z"/><mask id="cH" x="0" y="0" width="177" height="300" fill="#fff"><use xlink:href="#cm"/></mask><rect id="cn" x="73" y="20" width="30" height="30" rx="36"/><mask id="cI" x="0" y="0" width="30" height="30" fill="#fff"><use xlink:href="#cn"/></mask><path id="co" d="M12 60h153v170H12z"/><mask id="cJ" x="0" y="0" width="153" height="170" fill="#fff"><use xlink:href="#co"/></mask><path id="cp" d="M0 0h177v300H0z"/><mask id="cK" x="0" y="0" width="177" height="300" fill="#fff"><use xlink:href="#cp"/></mask><rect id="cq" x="74" y="20" width="30" height="30" rx="36"/><mask id="cL" x="0" y="0" width="30" height="30" fill="#fff"><use xlink:href="#cq"/></mask></defs><g fill="none" fill-rule="evenodd"><use stroke-opacity=".6" stroke="#FFF" mask="url(#cr)" stroke-width="2" fill-opacity=".1" fill="#FFF" xlink:href="#ca"/><use stroke-opacity=".6" stroke="#FFF" mask="url(#cs)" stroke-width="2" fill-opacity=".1" fill="#FFF" xlink:href="#cb"/><use stroke-opacity=".6" stroke="#FFF" mask="url(#ct)" stroke-width="2" fill-opacity=".1" fill="#FFF" xlink:href="#cc"/><rect fill-opacity=".6" fill="#FFF" x="59" y="165" width="60" height="20" rx="3"/><use fill="#000" filter="url(#cu)" xlink:href="#cv"/><use fill-opacity=".1" fill="#FFF" xlink:href="#cv"/><path fill-opacity=".1" fill="#FFF" d="M29 105h120v10H29zM29 125h120v10H29zM29 145h120v10H29zM29 210h120v10H29zM59 230h60v10H59z"/><text font-family="HelveticaNeue, Helvetica Neue" font-size="16" fill-opacity=".6" fill="#FFF"><tspan x="47.764" y="325">Notification</tspan></text><g transform="translate(233)" fill="#FFF"><use stroke-opacity=".6" stroke="#FFF" mask="url(#cw)" stroke-width="2" fill-opacity=".1" xlink:href="#cd"/><text font-family="HelveticaNeue, Helvetica Neue" font-size="16" fill-opacity=".6"><tspan x="50.292" y="325">Newsletter</tspan></text><use stroke-opacity=".6" stroke="#FFF" mask="url(#cx)" stroke-width="2" fill-opacity=".1" xlink:href="#ce"/><use stroke-opacity=".6" stroke="#FFF" mask="url(#cy)" stroke-width="2" fill-opacity=".1" xlink:href="#cf"/><rect fill-opacity=".6" x="59" y="236" width="60" height="20" rx="3"/><use stroke-opacity=".6" stroke="#FFF" mask="url(#cz)" stroke-width="2" fill-opacity=".1" xlink:href="#cg"/><path fill-opacity=".1" d="M29 135h120v10H29z"/><use stroke-opacity=".6" stroke="#FFF" mask="url(#cA)" stroke-width="2" fill-opacity=".1" xlink:href="#ch"/><path fill-opacity=".1" d="M29 215h55v10H29z"/><use stroke-opacity=".6" stroke="#FFF" mask="url(#cB)" stroke-width="2" fill-opacity=".1" xlink:href="#ci"/><path fill-opacity=".1" d="M94 215h55v10H94z"/></g><g transform="translate(467)"><use stroke-opacity=".6" stroke="#FFF" mask="url(#cC)" stroke-width="2" fill-opacity=".1" fill="#FFF" xlink:href="#cj"/><text font-family="HelveticaNeue, Helvetica Neue" font-size="16" fill-opacity=".6" fill="#FFF"><tspan x="56.468" y="325">Welcome</tspan></text><use stroke-opacity=".6" stroke="#FFF" mask="url(#cD)" stroke-width="2" fill-opacity=".1" fill="#FFF" xlink:href="#ck"/><rect fill-opacity=".6" fill="#FFF" x="81" y="260" width="15" height="15" rx="36"/><rect fill-opacity=".6" fill="#FFF" x="61" y="260" width="15" height="15" rx="36"/><rect fill-opacity=".6" fill="#FFF" x="41" y="260" width="15" height="15" rx="36"/><rect fill-opacity=".6" fill="#FFF" x="101" y="260" width="15" height="15" rx="36"/><rect fill-opacity=".6" fill="#FFF" x="121" y="260" width="15" height="15" rx="36"/><use stroke-opacity=".6" stroke="#FFF" mask="url(#cE)" stroke-width="2" fill-opacity=".1" fill="#FFF" xlink:href="#cl"/><use fill="#000" filter="url(#cF)" xlink:href="#cG"/><use fill-opacity=".1" fill="#FFF" xlink:href="#cG"/><rect fill-opacity=".6" fill="#FFF" x="29" y="165" width="45" height="10" rx="2"/><path fill-opacity=".1" fill="#FFF" d="M29 125h60v10H29zM29 145h120v10H29z"/><rect fill-opacity=".6" fill="#FFF" x="29" y="225" width="45" height="10" rx="2"/><path fill-opacity=".1" fill="#FFF" d="M29 185h60v10H29zM29 205h120v10H29z"/></g><g transform="translate(701)"><use stroke-opacity=".6" stroke="#FFF" mask="url(#cH)" stroke-width="2" fill-opacity=".1" fill="#FFF" xlink:href="#cm"/><text font-family="HelveticaNeue, Helvetica Neue" font-size="16" fill-opacity=".6" fill="#FFF"><tspan x="61.092" y="325">Receipt</tspan></text><use stroke-opacity=".6" stroke="#FFF" mask="url(#cI)" stroke-width="2" fill-opacity=".1" fill="#FFF" xlink:href="#cn"/><use stroke-opacity=".6" stroke="#FFF" mask="url(#cJ)" stroke-width="2" fill-opacity=".1" fill="#FFF" xlink:href="#co"/><path fill-opacity=".1" fill="#FFF" d="M58 75h60v10H58zM28 95h120v10H28z"/><path d="M28 126h120M28 136h120M28 146h120M28 156h120M117.463 166H148M117.463 178H148" stroke="#FFF" stroke-linecap="square" opacity=".6"/><rect fill-opacity=".6" fill="#FFF" x="58" y="195" width="60" height="20" rx="3"/><rect fill-opacity=".6" fill="#FFF" x="34" y="260" width="30" height="10" rx="2"/><rect fill-opacity=".6" fill="#FFF" x="74" y="260" width="30" height="10" rx="2"/><rect fill-opacity=".6" fill="#FFF" x="114" y="260" width="30" height="10" rx="2"/><path fill-opacity=".1" fill="#FFF" d="M28 240h120v10H28z"/></g><g transform="translate(933)" fill="#FFF"><use stroke-opacity=".6" stroke="#FFF" mask="url(#cK)" stroke-width="2" fill-opacity=".1" xlink:href="#cp"/><text font-family="HelveticaNeue, Helvetica Neue" font-size="16" fill-opacity=".6"><tspan x="71.02" y="325">Plain</tspan></text><use stroke-opacity=".6" stroke="#FFF" mask="url(#cL)" stroke-width="2" fill-opacity=".1" xlink:href="#cq"/><path fill-opacity=".1" d="M16 75h60v10H16zM16 95h120v10H16zM16 115h120v10H16zM16 135h120v10H16z"/><rect fill-opacity=".6" x="16" y="155" width="60" height="20" rx="3"/><path fill-opacity=".1" d="M16 185h80v10H16zM16 205h80v10H16z"/></g></g></symbol><symbol viewBox="0 0 48 48" id="_assets--img--src--unhappy"><path d="M24 47.998C10.767 47.998.001 37.232.001 23.999.001 10.766 10.767 0 24 0c13.233 0 23.999 10.766 23.999 23.999 0 13.233-10.766 23.999-23.999 23.999zM24 2C11.87 2 2.001 11.869 2.001 23.999c0 12.13 9.869 21.999 21.999 21.999 12.13 0 21.999-9.869 21.999-21.999C45.999 11.869 36.13 2 24 2z"/><path d="M15.828 25.343c-2.559 0-4.563-2.938-4.563-6.69s2.004-6.69 4.563-6.69 4.563 2.938 4.563 6.69-2.004 6.69-4.563 6.69zm0-11.38c-1.212 0-2.563 1.926-2.563 4.69s1.351 4.69 2.563 4.69 2.563-1.926 2.563-4.69-1.35-4.69-2.563-4.69zM32.169 25.343c-2.558 0-4.562-2.938-4.562-6.69 0-3.752 2.004-6.691 4.562-6.691 2.559 0 4.563 2.939 4.563 6.691 0 3.751-2.004 6.69-4.563 6.69zm0-11.381c-1.212 0-2.562 1.926-2.562 4.691 0 2.764 1.35 4.69 2.562 4.69 1.213 0 2.563-1.926 2.563-4.69 0-2.765-1.35-4.691-2.563-4.691zM14.057 38.208l-1.673-1.096a13.91 13.91 0 0 1 11.666-6.306c4.638 0 8.959 2.297 11.558 6.144l-1.656 1.119a11.94 11.94 0 0 0-9.901-5.263 11.916 11.916 0 0 0-9.994 5.402zM18.763 12.714c-1.5-2.876-4.412-3.69-4.441-3.698l.509-1.935c.153.04 3.784 1.023 5.706 4.708l-1.774.925zM28.363 12.714l-1.773-.924c1.921-3.684 5.552-4.667 5.706-4.708l.508 1.935c-.029.007-2.941.821-4.441 3.697z"/></symbol></svg>